<svg width="100" height="100" viewBox="0 0 100 100" fill="none" xmlns="http://www.w3.org/2000/svg">
<path d="M11.8342 83.2199C11.5064 82.8921 11.38 80.261 11.38 73.7656V64.7654L12.34 64.1365C13.6631 63.2696 22.8637 63.5667 25.2922 64.5548C31.9963 67.2824 31.3489 81.3313 24.4306 83.2519C22.331 83.8349 12.424 83.8098 11.8342 83.2199ZM22.151 77.3827C23.5743 76.8365 24.289 73.845 23.4952 71.757C23.0426 70.5666 21.0939 69.6688 18.9627 69.6688H17.4364V73.6433V77.6178H19.4873C20.6154 77.6178 21.814 77.512 22.151 77.3827ZM36.1663 83.1467C32.9016 81.7242 32.077 79.5022 32.2615 72.6252C32.4684 64.9119 33.6945 63.8814 42.9075 63.6776C50.4847 63.51 50.7465 63.6282 50.7465 67.2171V69.6688H45.233C38.1525 69.6688 38.2552 69.6112 38.2552 73.5809C38.2552 77.4545 38.4037 77.6178 41.9269 77.6178C45.1423 77.6178 46.2753 76.2806 43.2706 76.0319L41.8512 75.9144L41.7377 73.7379L41.6241 71.5614H45.5905C50.8011 71.5614 50.7465 71.5046 50.7465 76.9256V81.1002L49.4595 82.3872L48.1725 83.6742L42.7407 83.6594C39.1131 83.6496 36.9294 83.4792 36.1663 83.1467ZM58.6094 76.7819L58.5062 69.8581L55.7463 69.7465L52.9864 69.635L53.0966 66.7183L53.2069 63.8017H61.7237H70.2404L70.3511 66.7352L70.4616 69.6688H67.6153H64.7689L64.6658 76.5769L64.5626 83.4849L61.6376 83.5953L58.7127 83.7057L58.6094 76.7819ZM73.1551 83.2199C72.8257 82.8906 72.7008 80.1329 72.7008 73.189V63.6124H75.5313H78.3616L78.4648 70.5205L78.568 77.4285L83.5834 77.5342L88.5988 77.6397V80.657V83.6742H81.1041C75.7795 83.6742 73.4777 83.5427 73.1551 83.2199ZM17.3837 55.3195C16.6091 54.6932 16.4649 54.1766 16.3008 51.4396L16.1116 48.2822L13.1443 48.093C6.52999 47.6711 6.17582 40.19 12.7685 40.156C16.2813 40.1378 16.3008 40.12 16.3008 36.9279C16.3008 34.7788 16.4602 33.9745 17.024 33.2778L17.7471 32.3842L28.8528 32.195L39.9586 32.0057V28.2205C39.9586 24.7057 39.9045 24.4313 39.2015 24.3808C38.7851 24.3509 32.5073 24.3083 25.2507 24.2862L12.0569 24.246L12.1932 21.2467C12.3087 18.7026 12.4683 18.0994 13.2455 17.2722L14.1617 16.297H26.1666C40.6733 16.297 39.8558 16.0279 40.1478 20.8993L40.3371 24.0567L43.2343 24.1666C50.0621 24.4256 50.372 32.195 43.5545 32.195C40.1638 32.195 40.1478 32.2108 40.1478 35.5762C40.1478 40.3345 40.674 40.144 27.5375 40.144H16.6794V43.9245V47.705L30.4008 47.8044L44.1223 47.9037L44.2372 50.3524C44.5118 56.2068 44.9163 56.042 30.2767 56.042C19.0332 56.042 18.2211 55.9964 17.3837 55.3195ZM60.9139 55.3195C60.1393 54.6932 59.9951 54.1766 59.831 51.4396L59.6418 48.2822L56.6745 48.093C49.9513 47.6642 49.6267 40.144 56.3315 40.144C59.6837 40.144 59.831 39.9672 59.831 35.945C59.831 32.1657 59.8575 32.195 56.4243 32.195C49.6069 32.195 49.9168 24.4256 56.7446 24.1666L59.6418 24.0567L59.831 20.8993C60.1189 16.0977 59.6026 16.297 71.7545 16.297C83.9065 16.297 83.3902 16.0977 83.678 20.8993L83.8673 24.0567L86.8347 24.246C93.7555 24.6874 93.706 32.0121 86.7803 32.274L83.8673 32.3842L83.7576 35.9486C83.629 40.127 83.6276 40.1251 87.0847 40.1502C93.7822 40.1988 93.5471 47.6648 86.8347 48.093L83.8673 48.2822L83.678 51.4396C83.3902 56.2412 83.9065 56.042 71.7545 56.042C62.5307 56.042 61.7426 55.9894 60.9139 55.3195ZM83.2995 43.9237V40.133L71.6599 40.2331L60.0203 40.3332L59.912 44.0238L59.8037 47.7144H71.5516H83.2995V43.9237ZM83.2995 28.2073V24.2196L71.6599 24.3274L60.0203 24.4352L59.9081 27.4621C59.8464 29.1269 59.8922 30.8729 60.01 31.342L60.224 32.195H71.7617H83.2995V28.2073Z" fill="black"/>
</svg>
