<svg width="100" height="100" viewBox="0 0 100 100" fill="none" xmlns="http://www.w3.org/2000/svg">
<path d="M9.68534 84.5091C8.91379 84.2919 8.2358 83.5931 8.08022 82.8547C7.9082 82.0386 9.08555 82.007 9.68062 82.8118C10.1643 83.4661 11.3398 83.5531 11.8643 82.9735C12.3416 82.4461 12.0222 82.1018 10.6388 81.6531C8.24553 80.8768 7.63086 79.9908 8.49834 78.568C9.55958 76.8275 13.4875 77.3262 13.4875 79.2014C13.4875 79.74 12.3638 79.6831 11.8402 79.1181C11.333 78.5709 10.4164 78.5339 9.9564 79.0422C9.4716 79.5779 9.80147 79.9106 11.3314 80.4288C15.1829 81.7335 13.6167 85.616 9.68534 84.5091ZM15.758 84.36C13.3191 83.2531 14.281 79.2053 16.9832 79.2042C18.1765 79.2037 19.3286 80.0816 19.3286 80.9914C19.3286 81.467 18.1571 81.3516 17.7516 80.8361C17.0183 79.9039 16.0656 80.3803 15.9359 81.7437C15.7989 83.1855 17.0327 84.1065 17.7123 83.0695C18.1544 82.3947 19.4181 82.43 19.2487 83.1124C18.913 84.4648 17.2771 85.0495 15.758 84.36ZM27.8573 84.5249C25.8534 83.9244 25.5514 80.5167 27.4138 79.5179C29.1156 78.6052 31.0653 79.6218 31.2925 81.5403C31.5455 83.6769 29.874 85.1293 27.8573 84.5249ZM29.2244 83.3675C29.8217 82.9686 30.0077 81.4545 29.5411 80.7884C28.9006 79.874 27.661 80.5736 27.661 81.8495C27.661 83.061 28.4851 83.8611 29.2244 83.3675ZM33.4518 84.3687C31.6004 83.5048 31.5857 80.4445 33.4287 79.5049C35.315 78.5431 37.1969 79.7647 37.1955 81.95C37.1955 84.0784 35.3637 85.2608 33.4518 84.3687ZM35.431 83.0341C35.8414 82.4078 35.8296 81.2338 35.4084 80.7682C34.6495 79.9296 33.5881 80.549 33.5881 81.8304C33.5881 83.3375 34.7395 84.0894 35.431 83.0341ZM44.2768 84.36C41.8204 83.2451 42.8028 79.2053 45.5307 79.2042C47.1746 79.2037 48.0759 80.2913 47.9812 82.1618C47.8757 84.2472 46.2083 85.2366 44.2768 84.36ZM46.2317 83.1373C47.0151 82.2715 46.4721 80.4065 45.4366 80.4065C44.8126 80.4065 44.5473 80.7677 44.4546 81.7437C44.3204 83.1552 45.4288 84.0244 46.2317 83.1373ZM56.415 84.5091C55.6357 84.2897 54.9314 83.5716 54.7868 82.8485C54.6247 82.0378 55.8181 82.0108 56.4103 82.812C56.894 83.4663 58.0694 83.5533 58.5939 82.9737C59.0758 82.4413 58.752 82.1044 57.2827 81.6094C55.1957 80.9063 54.7247 80.403 54.9632 79.1315C55.375 76.9364 59.6082 76.8906 60.1393 79.0754C60.3023 79.7458 59.1798 79.7765 58.5698 79.1183C58.0627 78.5711 57.146 78.5341 56.686 79.0425C56.2012 79.5781 56.5311 79.9108 58.061 80.4291C61.9023 81.7302 60.3359 85.6131 56.415 84.5091ZM62.486 84.3592C60.6143 83.5097 60.6611 80.2341 62.5563 79.4422C64.0912 78.8009 66.0583 79.6711 66.0583 80.9914C66.0583 81.467 64.8867 81.3516 64.4812 80.8361C63.7292 79.88 62.6223 80.5028 62.6223 81.8819C62.6223 83.2486 63.8146 84.0268 64.4419 83.0695C64.884 82.3947 66.1475 82.43 65.9781 83.1124C65.6423 84.4655 64.0068 85.0495 62.486 84.3592ZM71.1507 84.5338C69.1343 83.8933 68.869 80.6863 70.7381 79.5466C72.3553 78.5606 74.4763 79.7537 74.4763 81.6494V82.2963H72.6725C70.7535 82.2963 70.6691 82.3399 71.2247 83.0463C71.6325 83.5647 72.5725 83.6722 72.9302 83.2412C73.1196 83.013 74.4763 82.8551 74.4763 83.0613C74.4763 84.0924 72.5067 84.9644 71.1507 84.5338ZM73.1022 81.1921C73.1022 80.7977 72.2385 80.2144 71.8294 80.3326C71.3912 80.4591 70.8348 81.0717 70.9657 81.2834C71.1343 81.5563 73.1022 81.4722 73.1022 81.1921ZM83.005 84.5338C80.3915 83.7037 81.0498 79.2039 83.7846 79.2039C85.0535 79.2039 85.9136 79.7912 86.2383 80.879C86.4188 81.484 85.1149 81.4472 84.7144 80.8361C84.3468 80.275 83.539 80.2502 83.162 80.7883C82.5406 81.6755 83.0041 83.4989 83.8509 83.4989C84.2751 83.4989 84.7844 83.1674 84.7844 82.8915C84.7844 82.7078 84.9931 82.6398 85.5575 82.6398C86.4286 82.6398 86.4151 82.6211 86.0965 83.3834C85.6812 84.3773 84.222 84.9203 83.005 84.5338ZM88.6744 84.5252C86.6478 83.9179 86.3806 80.6939 88.2618 79.5469C89.879 78.5609 92 79.7539 92 81.6496V82.2966H90.1962C89.204 82.2966 88.3923 82.3406 88.3923 82.3937C88.3923 83.2736 89.9094 83.8975 90.4539 83.2414C90.6859 82.9619 92 82.8777 92 83.1424C92 84.1092 90.0257 84.9301 88.6744 84.5252ZM90.6256 81.1923C90.6256 80.7979 89.7622 80.2147 89.3531 80.3328C88.9149 80.4593 88.3582 81.0719 88.4891 81.2837C88.6577 81.5566 90.6256 81.4725 90.6256 81.1923ZM20.3594 81.0081V77.4862H21.0465H21.7338L21.7391 78.8176C21.7444 79.8996 21.7838 80.098 21.954 79.8765C22.6963 78.9097 24.3775 79.0295 24.9249 80.0881C25.0953 80.4177 25.1698 81.1644 25.1698 82.5457V84.53H24.4982H23.8265L23.7681 82.712C23.7062 80.7922 23.533 80.4068 22.7318 80.4068C21.9737 80.4068 21.7338 80.9847 21.7338 82.812V84.53H21.0465H20.3594V81.0081ZM38.2265 81.0081V77.4862H38.9998H39.7729V81.0081V84.53H38.9998H38.2265V81.0081ZM49.222 82.4684C49.222 80.5213 49.2026 80.4068 48.8783 80.4068C48.6001 80.4068 48.5346 80.2923 48.5346 79.8055C48.5346 79.3381 48.6043 79.2042 48.8479 79.2042C49.0723 79.2042 49.2307 78.9739 49.4062 78.3924C49.6921 77.4453 50.4626 77.0148 51.5176 77.2127C52.3069 77.3608 52.1877 78.2027 51.3571 78.3463C50.6029 78.4767 50.5303 79.2042 51.2714 79.2042C51.7595 79.2042 51.7988 79.2488 51.7988 79.8055C51.7988 80.3591 51.7581 80.4068 51.2835 80.4068H50.7681V82.4684V84.53H49.995H49.222V82.4684ZM67.089 81.8671V79.2042H67.7761H68.4635V81.8671V84.53H67.7761H67.089V81.8671ZM75.5073 81.8671V79.2042H76.1944C76.8192 79.2042 76.8815 79.2445 76.8815 79.649V80.0937L77.432 79.6306C79.0876 78.2375 80.3177 79.4146 80.3177 82.3921V84.53H79.6304H78.9433V82.812C78.9433 80.9807 78.7036 80.4068 77.939 80.4068C77.2479 80.4068 77.0535 80.9286 77.0535 82.7826V84.53H76.2804H75.5073V81.8671ZM67.0849 78.2542C66.7651 77.8689 67.1316 77.1417 67.6437 77.1452C68.352 77.1505 68.7235 77.6535 68.4341 78.2163C68.2412 78.5914 67.3846 78.6152 67.0849 78.2542ZM78.8269 76.3458C78.4432 76.1893 78.92 75.2527 79.3834 75.2527C80.2251 75.2527 80.199 74.7829 79.1965 71.913L78.2562 69.221L79.055 69.2736C79.8425 69.3251 79.857 69.337 80.0697 70.099C80.7419 72.5061 80.8609 72.8773 80.9361 72.8021C80.9818 72.7564 81.2353 71.9559 81.5 71.0227L81.9813 69.3259L82.779 69.2738L83.5767 69.2218L82.5436 72.1946C81.1583 76.1818 80.4269 76.999 78.8269 76.3464V76.3458ZM16.0235 74.3064C14.5688 73.4871 15.3781 71.5735 17.2695 71.3604C18.6715 71.2024 18.9912 70.8512 18.203 70.3347C17.7861 70.0615 17.74 70.0656 17.265 70.4167C16.3392 71.1012 15.2697 70.8084 15.7907 70.0132C16.534 68.8788 18.5294 68.7662 19.6293 69.7966C19.9897 70.1341 20.0157 70.3021 20.0157 72.2762V74.3938H19.3286C18.8037 74.3938 18.6413 74.3266 18.6413 74.1095C18.6413 73.8518 18.6097 73.8537 18.3047 74.1298C17.8456 74.5454 16.6167 74.6405 16.0235 74.3064ZM18.2979 73.1912C18.7903 72.6987 18.7513 72.1604 18.2232 72.1604C17.1955 72.1604 16.4967 72.7628 16.9253 73.2793C17.2242 73.6394 17.8925 73.5965 18.2979 73.1912ZM25.0586 74.3949C24.4836 74.1629 24.4026 73.9121 24.3107 72.0745C24.2297 70.4539 24.2029 70.3533 23.8383 70.3016C23.5403 70.2592 23.4519 70.1341 23.4519 69.7551C23.4519 69.3762 23.5403 69.2511 23.8383 69.2088C24.1488 69.1647 24.2354 69.0271 24.2782 68.5096C24.3298 67.885 24.3519 67.8654 24.9981 67.8654C25.6442 67.8654 25.666 67.8852 25.7177 68.5096C25.7638 69.0689 25.8334 69.161 26.2435 69.2082C26.9896 69.2941 26.9439 70.2706 26.1937 70.2706H25.6713L25.7213 71.6862C25.7691 73.0401 25.7916 73.1116 26.2435 73.3277C27.4766 73.9172 26.3623 74.9209 25.0586 74.3949ZM28.6031 74.2455C26.7906 73.2764 26.9082 70.0936 28.7843 69.343C30.7432 68.5591 32.4656 69.7169 32.4656 71.8174C32.4656 73.4695 31.4401 74.5656 29.8944 74.5656C29.5135 74.5656 28.9323 74.4215 28.6031 74.2455ZM30.4269 73.2315C31.0721 72.8007 31.1982 71.4138 30.6549 70.7232C29.9021 69.7661 28.8634 70.4001 28.8634 71.8168C28.8634 73.0046 29.6715 73.7358 30.4269 73.2315ZM37.428 74.3779C36.0015 73.9647 35.5984 72.8368 35.6832 69.4975L35.7358 67.4359L36.4659 67.3832L37.196 67.3306V69.8395C37.196 72.6618 37.4096 73.1916 38.5484 73.1916C39.8926 73.1916 40.1166 72.6899 40.1166 69.6782V67.3504H40.8039H41.491V70.0562C41.491 74.0048 40.345 75.2231 37.4288 74.3783L37.428 74.3779ZM58.0565 74.24C57.1849 73.8441 56.7809 73.0631 56.7809 71.7733C56.7809 68.4726 61.3498 68.0973 61.7185 71.3677L61.8078 72.1604H59.9817C58.0038 72.1604 57.8436 72.2526 58.4723 73.029C58.8541 73.5004 59.7217 73.5536 60.1854 73.1339C60.4729 72.8738 61.7633 72.7168 61.7633 72.942C61.7633 74.1702 59.5835 74.9335 58.0565 74.24ZM60.3889 71.1678C60.3889 70.7354 59.8103 70.2706 59.2721 70.2706C58.8656 70.2706 58.6096 70.3856 58.4228 70.6524C58.0068 71.2462 58.0792 71.3013 59.2721 71.3013C59.8863 71.3013 60.3889 71.2413 60.3889 71.1678ZM67.7764 74.3726C67.1692 74.1305 66.5737 73.5306 66.5737 73.1612C66.5737 72.7164 67.6659 72.736 68.2446 73.1913C68.7893 73.6198 69.1855 73.6272 69.5577 73.216C69.939 72.7947 69.682 72.5777 68.5015 72.3245C66.1192 71.8136 66.0153 69.4993 68.3589 69.1479C69.452 68.984 70.4737 69.3193 70.8708 69.9722C71.3726 70.7973 70.2369 71.1853 69.4942 70.4426C69.0787 70.027 68.7515 70.0071 68.3838 70.3749C67.9812 70.7773 68.3094 71.0734 69.4111 71.3021C70.6874 71.5671 71.2123 72.0124 71.2123 72.8303C71.2123 74.1439 69.3261 74.9906 67.7764 74.3726ZM76.0382 74.3785C75.3014 74.0839 75.175 73.7296 75.1692 71.9458C75.1638 70.3871 75.1395 70.2707 74.82 70.2707C74.5527 70.2707 74.4763 70.1562 74.4763 69.7553C74.4763 69.3545 74.5527 69.24 74.82 69.24C75.1071 69.24 75.1637 69.1254 75.1637 68.5428V67.8458L75.8937 67.8984C76.6025 67.9494 76.6255 67.9701 76.6773 68.5955C76.7229 69.1493 76.7893 69.2397 77.1497 69.2397C77.5009 69.2397 77.5689 69.3233 77.5689 69.7551C77.5689 70.1925 77.5028 70.2705 77.1326 70.2705H76.6964L76.7457 71.7737C76.7914 73.1614 76.8238 73.281 77.1638 73.3295C77.5807 73.3889 77.8419 74.2223 77.5099 74.4336C77.2396 74.6056 76.541 74.5795 76.0382 74.3785ZM8.65746 72.5471C9.01916 71.5313 9.56575 69.9429 9.87199 69.0171L10.4288 67.334L11.3998 67.385L12.3708 67.436L13.5184 70.7002C14.9045 74.642 14.8771 74.3939 13.9313 74.3939C13.1913 74.3939 13.1665 74.3757 12.9297 73.6638L12.6866 72.9336L11.3932 72.8837L10.0998 72.8338L9.88142 73.6136L9.66305 74.3936H8.83153H8L8.65746 72.5471ZM11.8769 70.4443C11.4345 68.9897 11.3983 68.9807 11.0055 70.2278C10.8343 70.7711 10.6574 71.3123 10.6123 71.4304C10.5533 71.5845 10.7721 71.6451 11.3861 71.6451H12.242L11.8769 70.4443ZM21.2185 70.8621V67.3304L21.9485 67.383L22.6786 67.4356L22.7255 70.9145L22.7722 74.3935H21.9955H21.2187L21.2185 70.8621ZM42.8652 71.8169V69.24H43.5525C44.1435 69.24 44.2396 69.292 44.2396 69.6135V69.9871L44.6263 69.6262C46.3056 68.0588 47.6756 69.3094 47.6756 72.4097V74.3939H47.0039H46.3326L46.2739 72.5759C46.2234 71.0149 46.168 70.7235 45.8817 70.5143C44.8756 69.7795 44.2396 70.6471 44.2396 72.754V74.3939H43.5525H42.8652V71.8169ZM48.8783 71.8169V69.24H49.6513H50.4244V71.8169V74.3939H49.6513H48.8783V71.8169ZM52.0573 72.0317C51.6076 70.7324 51.2024 69.5728 51.1571 69.4547C51.0987 69.3023 51.3012 69.24 51.8531 69.24C52.7264 69.24 52.5871 69.0174 53.3589 71.6451C53.567 72.3538 53.7642 72.8563 53.7972 72.7618C53.8305 72.6673 54.075 71.8556 54.3409 70.9579L54.8243 69.3258L55.6207 69.2738L56.4173 69.2217L55.5253 71.806L54.6334 74.3904H53.7542H52.875L52.0573 72.0317ZM62.794 71.8169V69.24H63.4811C64.0484 69.24 64.1685 69.2985 64.1685 69.5758C64.1685 69.8833 64.205 69.8751 64.6013 69.4787C65.2749 68.8051 65.9559 68.9579 66.0255 69.7983C66.0776 70.4258 66.0638 70.4426 65.5002 70.4426C64.423 70.4426 64.2615 70.7171 64.1952 72.6619L64.1362 74.3939H63.4651H62.794V71.8169ZM72.2431 71.8169V69.24H72.9302H73.6175V71.8169V74.3939H72.9302H72.2431V71.8169ZM49.179 68.3672C48.5674 68.011 48.9161 67.0065 49.6513 67.0065C50.3748 67.0065 50.6733 67.7639 50.1544 68.2828C49.8438 68.5934 49.603 68.6142 49.179 68.3672ZM72.5438 68.3672C71.8479 67.9619 72.3783 66.8739 73.1742 67.0736C73.733 67.2139 73.9076 67.7934 73.5203 68.2215C73.1845 68.5925 72.9824 68.6227 72.5438 68.3672ZM8.83598 55.7107C9.29523 54.4114 12.588 45.1149 16.1533 35.0517C19.7186 24.9885 22.7492 16.4264 22.8881 16.0248L23.1405 15.2947H29.637H36.1335L36.4722 16.2826C36.6585 16.8259 39.9212 26.0451 43.7227 36.7697C47.5241 47.4943 50.7761 56.6749 50.9495 57.1709L51.2649 58.0729H45.8812H40.4975L39.8793 56.312C39.5394 55.3434 38.943 53.6426 38.5542 52.5323L37.8472 50.5137H29.6349H21.4227L20.9193 51.931C20.6424 52.7106 20.0466 54.4114 19.5952 55.7107L18.7745 58.0729H13.3876H8.00105L8.83598 55.7107ZM34.7932 41.7948C34.7985 41.558 29.7237 26.9789 29.6362 26.978C29.5482 26.978 24.4721 41.5605 24.4788 41.7948C24.4788 41.8657 26.8018 41.9237 29.6365 41.9237C32.4712 41.9237 34.7918 41.8657 34.7932 41.7948ZM55.2348 53.1739V48.275L60.0882 48.3206L64.9415 48.3662L64.9872 53.2196L65.0328 58.073H60.1338H55.2348V53.1739ZM57.0436 44.6295C57.005 44.5114 56.5428 41.3224 56.0168 37.5428L55.0605 30.6708V22.9828V15.2947H60.1285H65.1969V22.9712V30.6476L64.0762 37.2735C63.46 40.9178 62.9128 44.112 62.8601 44.3719L62.7642 44.8443H59.9377C57.8286 44.8443 57.0934 44.7898 57.041 44.6295H57.0436Z" fill="black"/>
</svg>
