<svg width="100" height="100" viewBox="0 0 100 100" fill="none" xmlns="http://www.w3.org/2000/svg">
<path d="M38.362 79.5464C34.5673 76.0775 33.4594 68.7889 35.0405 63.5085C37.7819 66.8377 41.5803 67.8923 45.5147 68.4876C51.5886 69.4063 57.5537 69.0627 63.196 66.2865C63.8415 65.9686 64.4381 65.546 65.1433 65.118C65.6728 66.654 65.8105 68.2046 65.6256 69.7829C65.176 73.6265 63.2631 76.5957 60.2208 78.8464C59.0042 79.7467 57.7169 80.5514 56.4604 81.4002C52.6003 84.0092 51.556 87.0683 53.0064 91.518C53.0409 91.6271 53.0717 91.7354 53.1497 92C51.1788 91.1176 49.7392 89.8333 48.6423 88.1446C47.4837 86.3628 46.9325 84.3914 46.9036 82.2583C46.889 81.2202 46.889 80.1729 46.7495 79.1495C46.4086 76.6545 45.2373 75.5373 43.0308 75.473C40.7662 75.4069 38.9749 76.8069 38.4999 79.0117C38.4636 79.1807 38.411 79.348 38.3584 79.5445L38.362 79.5464Z" fill="black"/>
<path d="M16.7031 62.6287C16.7031 62.6287 27.9402 57.1547 39.2087 57.1547L47.7047 30.8609C48.0228 29.5893 48.9515 28.7252 50 28.7252C51.0485 28.7252 51.9772 29.5893 52.2953 30.8609L60.7914 57.1547C74.1372 57.1547 83.2969 62.6287 83.2969 62.6287C83.2969 62.6287 64.2098 10.6317 64.1725 10.5274C63.6247 8.9901 62.6999 8 61.4531 8H38.5489C37.3021 8 36.4146 8.9901 35.8295 10.5274C35.7882 10.6298 16.7031 62.6287 16.7031 62.6287Z" fill="black"/>
</svg>
