<svg width="100" height="100" viewBox="0 0 100 100" fill="none" xmlns="http://www.w3.org/2000/svg">
<path d="M60.1756 64.6416C61.5105 64.4816 63.3814 64.2727 64.3333 64.1773C76.6424 62.9439 88.7452 57.8071 91.3904 52.6935C94.4686 46.7428 85.5864 39.7524 71.5817 37.1037C68.9262 36.6015 65.5287 36.0334 64.2767 35.8823C63.5234 35.7914 61.7464 35.579 60.3278 35.4104C57.0596 35.022 42.9764 35.0104 39.7667 35.3937C38.4319 35.553 36.6497 35.7537 35.8064 35.8396C34.963 35.9255 33.5933 36.1265 32.7627 36.2864C31.932 36.4461 30.362 36.7418 29.2739 36.9433C12.1261 40.1189 3.57203 48.2566 10.2968 54.9967C14.5267 59.2362 25.4674 63.1844 35.8085 64.2033C36.8181 64.3028 38.4659 64.4902 39.4704 64.6197C42.1442 64.9646 57.3461 64.9806 60.1756 64.6416ZM41.601 63.5388C38.4737 63.3148 33.9181 62.7561 31.7089 62.3257C26.7943 61.3683 25.9673 61.1714 22.7299 60.1878C3.2109 54.2577 5.94599 42.7707 27.9042 38.4563C28.9086 38.2589 30.2783 37.9796 30.9479 37.8356C39.7246 35.9477 60.1476 35.9488 68.9945 37.8386C69.6641 37.9816 71.0338 38.26 72.0382 38.4574C96.2275 43.2101 96.2275 56.714 72.0382 61.573C71.0338 61.7748 69.6398 62.065 68.9405 62.2179C64.1755 63.2603 48.367 64.0247 41.601 63.5399V63.5388ZM65.2659 58.3655C66.3546 57.6532 66.4073 57.6466 66.4073 58.2211C66.4073 60.4725 69.8428 59.5933 72.7863 56.5887C74.9248 54.4058 74.5892 53.3149 72.4174 55.3897C70.1744 57.5326 69.0034 58.0969 68.6594 57.2006C68.5693 56.9659 69.7721 54.763 71.3322 52.3054C72.8923 49.8477 74.5414 47.232 74.9969 46.4926L75.825 45.1482H74.5165H73.208L71.1221 48.3821C69.3539 51.1233 69.0007 51.5205 68.8042 50.9892C68.0668 48.9959 65.3509 49.3118 62.4322 51.7304C58.5563 54.9421 57.2709 55.3012 57.0259 53.241C56.88 52.014 57.5609 51.3072 58.0126 52.2167C58.7391 53.6799 60.7003 52.8221 60.7003 51.0411C60.7003 49.37 58.9636 48.9415 57.1576 50.1671L56.0411 50.9248L55.7563 50.1755C55.1582 48.6026 53.2679 48.9069 51.0739 50.9292L49.737 52.1615L49.5379 51.1005C49.0836 48.679 47.7291 49.4815 47.6901 52.1952C47.6485 55.0829 46.1806 57.0187 44.0323 57.0187C41.1467 57.0187 43.3066 51.802 46.7189 50.5299C46.9762 50.434 46.9448 50.2533 46.6094 49.8996C45.3945 48.6184 41.6926 51.0818 40.2525 54.1297C39.7411 55.212 39.0477 56.2693 38.7117 56.4792C38.0845 56.8708 37.8908 57.7662 38.3692 58.0618C38.517 58.1531 38.9832 57.9563 39.4052 57.6243L40.1725 57.0207L41.2739 58.1221C43.4912 60.3395 45.9515 59.4155 49.3686 55.0818C53.7104 49.5752 55.471 49.8314 51.9479 55.4571C49.6318 59.1553 49.6325 59.152 51.1126 59.1399C52.2128 59.1308 52.3144 59.035 53.9258 56.4864C55.1498 54.5504 55.6269 54.0027 55.7073 54.4412C55.9941 56.0056 57.7433 56.5726 59.4829 55.6652L60.3199 55.2285V56.5271C60.3199 59.2386 62.6229 60.0946 65.2659 58.3655ZM63.0586 56.8657C61.8112 55.3628 65.1462 50.7943 67.0497 51.3985C68.4961 51.8575 66.9321 55.8081 64.8848 56.8668C63.7818 57.4372 63.5327 57.437 63.0586 56.8668V56.8657ZM32.7852 58.0303C34.7836 56.9134 36.7255 54.5191 40.3835 48.662C40.8715 47.8806 44.4697 47.6591 45.5179 48.3459C46.4293 48.9431 46.92 48.7642 46.3278 48.0507C46.0151 47.6739 46.0369 47.5554 46.4479 47.3977C47.113 47.1424 47.8842 45.6158 47.6527 45.0126C47.0961 43.5623 44.4925 44.691 44.4925 46.3826C44.4925 46.8811 44.2765 46.9744 43.1228 46.9744C41.2276 46.9744 41.3504 46.596 44.0941 43.9809C46.7469 41.4525 46.2319 41.5357 51.0365 42.8593C54.7527 43.883 58.314 44.0214 60.1635 43.2139C62.8866 42.025 63.8189 40.0187 61.4613 40.4212C56.7774 41.2209 54.0524 41.1643 47.6884 40.1353C36.5147 38.3285 31.0798 39.4848 29.8847 43.9229C28.5583 48.8488 34.6806 49.7844 37.1973 45.0404C38.1144 43.3116 37.7911 42.9125 36.4928 44.1709C34.5152 46.0877 32.3176 46.1211 32.3176 44.2344C32.3176 41.3345 37.293 39.8477 43.2177 40.9772L45.1387 41.3435L43.6074 42.4838C42.7652 43.111 41.4228 44.4407 40.6242 45.4386C39.3635 47.0141 38.9716 47.3002 37.6473 47.6111C35.9423 48.0115 34.4482 48.6891 34.4482 49.0621C34.4482 49.628 34.8747 49.6255 36.1709 49.052C37.8958 48.289 38.0968 48.4863 37.0838 49.9481C34.3685 53.8662 31.0968 56.3327 29.0545 56.0013C26.3808 55.5674 25.9809 53.26 28.2353 51.2755C30.2382 49.5126 29.1009 48.5525 26.8358 50.0941C20.8145 54.1921 26.3769 61.612 32.7852 58.0303ZM45.4056 46.2761C45.4056 45.7309 46.254 44.982 46.5436 45.2716C46.7975 45.5254 46.2648 46.4344 45.7643 46.6012C45.567 46.6669 45.4056 46.5207 45.4056 46.2761Z" fill="black"/>
</svg>
