<svg width="100" height="100" viewBox="0 0 100 100" fill="none" xmlns="http://www.w3.org/2000/svg">
<path d="M12.5112 94.422C12.0604 93.3841 8.84076 85.5371 8.84076 85.4763C8.84076 85.4252 9.06877 85.4075 9.5581 85.4207L10.2755 85.4399L11.5566 88.6208C12.2613 90.3703 12.8486 91.8125 12.8618 91.8257C12.875 91.8389 13.4653 90.4076 14.1734 88.6449L15.461 85.4399L16.19 85.4207C16.591 85.4101 16.9187 85.4252 16.9184 85.4546C16.9184 85.484 16.0651 87.5698 15.023 90.09L13.1283 94.6723L12.8833 94.6934C12.6526 94.7134 12.631 94.6977 12.5112 94.422ZM44.9724 91.4444L42.1044 88.1825V91.3765V94.5705H41.4595H40.8146V89.9203V85.2702H41.042C41.2569 85.2702 41.4266 85.449 44.1477 88.542L47.0261 91.8138L47.0437 88.6099L47.0615 85.406H47.7057H48.3499V90.0561V94.7063H48.0952C47.844 94.7063 47.7992 94.6595 44.9724 91.4444ZM53.7806 94.6055C52.8966 94.4291 52.1815 94.0561 51.5223 93.4275C50.3953 92.3528 49.8967 90.6928 50.2107 89.0608C50.4917 87.6004 51.3178 86.4763 52.5715 85.8483C53.39 85.4384 53.9985 85.3139 54.9917 85.3531C56.3229 85.4058 57.2927 85.8375 58.1285 86.7497C58.3508 86.9922 58.5326 87.2112 58.5326 87.2363C58.5326 87.2822 57.5542 87.9856 57.4903 87.9856C57.4715 87.9856 57.2801 87.8012 57.065 87.5757C56.7975 87.2952 56.5172 87.0883 56.1777 86.9204C55.7326 86.7005 55.611 86.6718 54.9994 86.6423C54.1662 86.6022 53.619 86.7303 53.0484 87.0991C52.0627 87.7362 51.5395 88.75 51.5413 90.0195C51.5413 91.0302 51.8464 91.817 52.4822 92.4566C52.9184 92.8956 53.377 93.1625 53.9527 93.3124C54.7761 93.5269 55.8245 93.3903 56.5384 92.9756C56.7205 92.8698 57.062 92.5851 57.2974 92.3429L57.7253 91.9025L58.2138 92.2445C58.4825 92.4326 58.7023 92.6348 58.7023 92.6939C58.7023 92.8767 58.0157 93.5922 57.5313 93.9143C57.2778 94.0828 56.9029 94.2874 56.6983 94.3689C55.9019 94.6862 54.681 94.7851 53.7806 94.6055ZM79.4272 94.0722C79.1175 93.7235 77.8408 92.2738 76.59 90.8508L74.3159 88.2633L74.2982 91.4169L74.2804 94.5705H73.6362H72.992V89.9203V85.2702L73.2126 85.2748C73.417 85.2789 73.643 85.5184 76.2844 88.5277L79.1355 91.7759L79.1533 88.5909L79.1709 85.4059H79.8153H80.4595V90.056V94.7061H80.2248C80.0141 94.7061 79.9327 94.6415 79.4272 94.0722ZM16.2402 94.5197C16.2402 94.4892 17.0922 92.4031 18.1334 89.8842L20.0266 85.3042L20.2558 85.2842L20.485 85.2643L22.3848 89.8562C23.4297 92.3818 24.2948 94.4758 24.3072 94.5095C24.3197 94.5434 24.013 94.5708 23.6177 94.5708H22.9056L22.5428 93.6549L22.1801 92.739L20.2716 92.7387L18.3632 92.7383L17.9922 93.6377L17.6212 94.5372L16.9307 94.5564C16.5509 94.567 16.2402 94.5508 16.2402 94.5203V94.5197ZM21.5829 91.2951C21.5334 91.1737 21.2219 90.4095 20.8907 89.5968C20.5594 88.7841 20.2665 88.1426 20.2399 88.1712C20.187 88.2282 18.8877 91.3987 18.8877 91.471C18.8877 91.4955 19.5144 91.5157 20.2803 91.5157H21.6728L21.5829 91.2951ZM25.812 89.9883V85.406H26.4568H27.1018V89.3773V93.3486H29.1383H31.1749V93.9596V94.5705H28.4934H25.812V89.9883ZM32.7362 89.9883V85.406H35.6214H38.5065V86.0509V86.6958H36.3002H34.0939V88.4269V90.158H36.0627H38.0313V90.769V91.3799H36.0627H34.0939V92.3643V93.3486H36.402H38.7102V93.9596V94.5705H35.7232H32.7362V89.9883ZM60.5692 89.9883V85.406H61.248H61.9269V89.9883V94.5705H61.248H60.5692V89.9883ZM63.4209 94.5196C63.4211 94.4917 64.274 92.4066 65.316 89.8864L67.2106 85.3042L67.44 85.2839L67.6692 85.2635L69.5583 89.832C70.5973 92.3447 71.4622 94.4388 71.4802 94.4855C71.5055 94.55 71.3441 94.5703 70.8064 94.5703H70.0996L69.7299 93.6542L69.3602 92.7382L67.4488 92.7378L65.5374 92.7375L65.1747 93.6534L64.8119 94.5692L64.1161 94.5697C63.7334 94.57 63.4206 94.5477 63.4209 94.5196ZM68.8299 91.4308C68.8103 91.3842 68.4918 90.6063 68.1225 89.7022L67.4509 88.0584L66.795 89.6683C66.4343 90.5537 66.1197 91.3315 66.0962 91.3969C66.0562 91.5076 66.1492 91.5157 67.4595 91.5157C68.5582 91.5157 68.8579 91.4972 68.8299 91.4308ZM81.954 94.5196C81.954 94.4917 82.808 92.4066 83.8505 89.8864L85.7459 85.3042L85.9756 85.2839L86.2055 85.2635L88.0926 89.831C89.1306 92.343 89.9946 94.4371 90.0128 94.4845C90.038 94.5506 89.8818 94.5705 89.3386 94.5705H88.6314L88.2638 93.654L87.8962 92.7376H85.9831H84.07L83.7073 93.6535L83.3447 94.5694L82.6488 94.5698C82.2661 94.5701 81.9534 94.5477 81.954 94.5196ZM87.3837 91.4987C87.3837 91.4893 87.0685 90.7116 86.6831 89.7704L85.9825 88.0591L85.328 89.6686C84.968 90.5538 84.6538 91.3315 84.6297 91.3969C84.589 91.5076 84.6811 91.5157 85.9848 91.5157C86.7542 91.5157 87.3838 91.5081 87.3837 91.4987ZM12.0809 81.4653C11.006 81.3401 10.0827 80.8904 9.31236 80.1167C8.39308 79.1935 8 78.2056 8 76.8186C8 75.8518 8.11229 75.3701 8.52127 74.5827C9.1062 73.4565 10.1724 72.6042 11.4215 72.2642C11.7284 72.1807 12.1082 72.1446 12.6762 72.1449C14.026 72.1449 14.9829 72.5004 15.8541 73.3232L16.2741 73.7199L15.9686 74.0358C15.8006 74.2096 15.5785 74.4129 15.4751 74.4876L15.2871 74.6234L14.898 74.2673C13.0716 72.5952 10.1125 73.4723 9.48774 75.871C9.35759 76.3706 9.35501 77.2477 9.48241 77.7261C9.82908 79.0287 10.8477 79.954 12.1876 80.1836C13.0549 80.3322 14.2296 80.1099 14.8914 79.6719L15.1541 79.4981V78.8541V78.2102H13.8303H12.5065V77.5653V76.9204H14.4752H16.4439V78.5451V80.1698L16.1554 80.404C15.3853 81.029 14.5669 81.3518 13.4667 81.4645C13.08 81.5041 12.7134 81.5326 12.652 81.5277C12.5907 81.5228 12.3336 81.4945 12.0809 81.4653ZM30.8577 78.3072L28.0183 75.0779L28.0005 78.2393L27.9828 81.4008H27.3047H26.6264V76.7506V72.1005H26.881C27.1312 72.1043 27.1845 72.1581 29.9868 75.3468L32.8379 78.5912L32.8557 75.4127L32.8734 72.2343H33.5177H34.1619V76.8844V81.5346H33.9296C33.7082 81.5346 33.5644 81.3835 30.8578 78.3052L30.8577 78.3072ZM18.6162 76.8186V72.2363H21.4673H24.3185V72.8473V73.4582H22.1462H19.9739V75.1893V76.9204H21.9086H23.8433V77.5653V78.2102H21.9086H19.9739V79.1606V80.111H22.248H24.5222V80.7559V81.4008H21.5692H18.6162V76.8186ZM36.6057 76.8186V72.2363H39.4908H42.376V72.8473V73.4582H40.1697H37.9634V75.1893V76.9204H39.9321H41.9007V77.5653V78.2102H39.9321H37.9634V79.1606V80.111H40.2715H42.5796V80.7559V81.4008H39.5926H36.6057V76.8186ZM44.6841 76.8186V72.2363H46.2624C48.057 72.2363 48.5006 72.3018 49.2835 72.6736C50.1522 73.0862 50.6823 73.78 50.8946 74.782C51.0204 75.3763 51.0212 75.7433 50.8983 76.3265C50.7121 77.2053 50.1393 77.9836 49.3962 78.3673L49.1113 78.5145L50.0882 79.9401C50.6255 80.7241 51.0653 81.3733 51.0655 81.3826C51.0658 81.392 50.6918 81.3988 50.2344 81.3977H49.4028L48.571 80.1436L47.7393 78.8896H46.8909H46.0425V80.1455V81.4013H45.3637H44.6848L44.6841 76.8186ZM48.1803 77.501C48.8683 77.2965 49.3437 76.8354 49.5131 76.2082C49.6247 75.7951 49.555 74.903 49.3858 74.5784C48.9715 73.7836 48.1484 73.4604 46.534 73.4588H46.0418V75.5737V77.6887L46.9415 77.6455C47.4363 77.6218 47.9938 77.557 48.1803 77.5015V77.501ZM52.0948 81.3396C52.1072 81.3061 52.9719 79.2135 54.0163 76.6895L55.9152 72.1005H56.1547H56.3942L58.2611 76.6237C59.2878 79.1115 60.1502 81.2045 60.1775 81.2748C60.2244 81.3958 60.1884 81.4016 59.5086 81.3834L58.7902 81.3642L58.4371 80.4817L58.0839 79.5992L56.1529 79.5819L54.2219 79.5645L53.8592 80.4813L53.4966 81.3981H52.7844C52.3905 81.3981 52.0823 81.371 52.0948 81.337V81.3396ZM57.486 78.1593C57.2892 77.6136 56.182 74.9533 56.1514 74.9526C56.1115 74.9526 54.7964 78.1338 54.7981 78.2272C54.7981 78.255 55.4131 78.2781 56.1639 78.2781C57.4349 78.2781 57.5259 78.2698 57.486 78.1593ZM61.6553 76.8186V72.2363H62.3342H63.013V76.1736V80.111H65.0156H67.0182V80.7559V81.4008H64.3367H61.6553V76.8186ZM68.6475 76.8186V72.2363H69.3263H70.0052V76.8186V81.4008H69.3263H68.6475V76.8186ZM74.3498 77.4295V73.4582H72.9922H71.6344V72.8473V72.2363H74.9947H78.3551V72.8473V73.4582H76.9973H75.6397V77.4295V81.4008H74.9947H74.3498V77.4295ZM77.7285 81.2786C77.7556 81.2088 78.6181 79.1159 79.6448 76.6276L81.5118 72.1034H81.7517H81.9917L83.8901 76.6916C84.9342 79.2151 85.7987 81.3076 85.8111 81.3417C85.8239 81.3764 85.522 81.4036 85.1215 81.4036H84.4094L84.0467 80.4868L83.684 79.57L81.753 79.5874L79.8219 79.6047L79.4688 80.4872L79.1158 81.3697L78.3973 81.3889C77.7195 81.407 77.6817 81.4009 77.7285 81.2814V81.2786ZM83.1079 78.2272C83.1079 78.1338 81.7945 74.9517 81.7546 74.9526C81.724 74.9526 80.6167 77.6136 80.4199 78.1593C80.3801 78.2699 80.471 78.2781 81.7421 78.2781C82.4928 78.2781 83.1075 78.2551 83.1079 78.2272ZM87.8589 77.4295V73.4582H86.5013H85.1435V72.8473V72.2363H88.5718H92V72.8473V73.4582H90.6083H89.2167V77.4295V81.4008H88.5378H87.8589V77.4295ZM48.7573 57.5455L41.4599 50.2417L42.4611 49.2405L43.4623 48.2393L51.5728 56.3496C56.0336 60.8103 59.6612 64.4804 59.6341 64.5054C59.534 64.5978 57.9934 64.7815 57.0391 64.8149L56.0548 64.8491L48.7573 57.5455ZM51.5404 64.2598C49.0952 63.5827 46.9835 62.5035 44.9895 60.9119C44.4402 60.4735 37.8956 53.9812 37.8956 53.8747C37.8956 53.7845 39.741 51.9386 39.8313 51.9386C39.9084 51.9386 52.2872 64.3017 52.2872 64.3787C52.2872 64.4537 52.1777 64.4362 51.5404 64.2598ZM53.2363 54.6867L45.1263 46.5765L46.1096 45.5914L47.0929 44.6063L54.4146 51.9213L61.7362 59.2363L61.6989 60.1527C61.662 61.0666 61.4853 62.5482 61.3942 62.7111C61.3625 62.7676 58.5787 60.0293 53.2363 54.6867ZM55.0192 49.2059L48.7564 42.9429L49.725 41.976C50.2577 41.4442 50.7256 41.0092 50.7647 41.0092C50.8981 41.0092 57.2791 47.4873 57.8527 48.2049C59.3452 50.0725 60.4674 52.2602 61.0806 54.4974C61.2109 54.9729 61.3095 55.386 61.2996 55.4154C61.2899 55.4448 58.4637 52.6505 55.0192 49.2059ZM43.0119 42.6893C43.1017 42.0306 43.1396 37.6365 43.0625 36.8342C42.8502 34.6262 42.2471 32.5297 41.0393 29.8011L40.6006 28.8098L41.7311 26.5494C42.3572 25.2977 42.848 24.2368 42.831 24.1719C42.8141 24.1074 42.4091 23.1041 41.9308 21.9424C41.3254 20.4719 41.0242 19.8185 40.9396 19.7917C40.7177 19.7212 40.5169 19.3542 40.5171 19.0195C40.5173 18.4684 40.8699 18.1319 41.4469 18.1319C42.0881 18.1319 42.5142 18.855 42.2132 19.4321C42.1274 19.5965 42.1358 19.6409 42.3089 19.9412C42.4132 20.1222 42.6064 20.3735 42.738 20.4996L42.9774 20.729L43.0185 20.4657C43.3476 18.3566 43.8006 17.3717 44.9834 16.194C45.6943 15.4862 46.5201 14.8979 48.2752 13.8491C49.7795 12.95 50.3134 12.2844 50.1165 11.5533C49.9638 10.9861 49.4443 10.6205 48.8854 10.6867C48.3079 10.7551 47.0838 11.5026 46.1819 12.3376C45.4667 12.9998 45.2354 13.5756 45.4609 14.1322C45.4944 14.2148 45.4026 14.2829 45.0638 14.4268C44.8214 14.5299 44.5934 14.5958 44.5572 14.5734C44.4753 14.5228 44.3446 13.9301 44.3446 13.6092C44.3446 13.4776 44.4227 13.1373 44.5182 12.8531C44.69 12.3412 44.6903 12.3346 44.5623 12.1622C44.3237 11.8412 44.1373 11.8923 43.4811 12.4591C43.1541 12.7415 42.8557 12.9713 42.818 12.9697C42.7245 12.9655 42.2394 12.3288 42.2434 12.2152C42.2434 12.165 42.3656 12.0324 42.5112 11.9204C42.6568 11.8084 42.938 11.5253 43.136 11.2913C44.2226 10.0075 44.8189 8.1912 44.8195 6.16323L44.8198 5.29382L45.2003 5.70482C46.137 6.71662 47.5682 6.94485 48.7572 6.27207C48.9252 6.17699 49.2322 5.92138 49.4394 5.70399L49.8162 5.30872L50.1319 5.74409C50.8971 6.79921 52.267 7.36417 53.4485 7.11186C53.7245 7.05295 54.0133 6.98603 54.0903 6.9632C54.2256 6.92304 54.2292 6.94137 54.2014 7.52355C54.1856 7.85459 54.2078 8.29562 54.2512 8.50359C54.3743 9.0967 54.7402 9.78396 55.1821 10.2522L55.5796 10.6734L56.0405 10.4634C56.8029 10.1161 57.5621 9.96842 58.4424 9.99625C58.8595 10.0094 59.2221 10.0415 59.2482 10.0676C59.2741 10.0936 59.1545 10.2761 58.9822 10.4731C58.5905 10.9209 58.2288 11.6021 58.0829 12.1664C57.9468 12.6934 57.9336 13.5542 58.0542 14.0587C58.1641 14.5186 58.4792 15.2317 58.701 15.5225L58.8668 15.7398L58.4452 15.949C57.0474 16.6424 56.1567 18.0781 56.1567 19.6378C56.1567 20.1339 56.297 20.9423 56.4011 21.0464C56.4204 21.0657 56.6017 20.995 56.8038 20.8892C57.2136 20.6746 57.6396 20.2489 57.8424 19.8512C57.9596 19.6217 57.9645 19.572 57.8813 19.4582C57.8289 19.3865 57.786 19.1773 57.786 18.9934C57.786 18.6954 57.8146 18.6302 58.0495 18.3954C58.2803 18.1646 58.3523 18.1319 58.6299 18.1319C59.2256 18.1319 59.5512 18.4487 59.5507 19.028C59.5505 19.3579 59.3591 19.7267 59.1546 19.7916C59.0808 19.8149 59.0057 19.8712 58.9876 19.9164C58.9695 19.9616 58.5512 20.9762 58.0577 22.171L57.1606 24.3434L57.1933 26.4478C57.2303 28.7963 57.291 29.2906 57.6907 30.4869C58.2129 32.05 59.0867 33.3548 60.649 34.9044L61.4416 35.6906L58.1181 39.0118L54.7945 42.3329L53.4196 40.9413C52.6372 40.1493 51.9291 39.3684 51.7763 39.1291L51.5079 38.7086L47.2895 40.8432C44.9694 42.0172 43.049 42.9778 43.0219 42.9778C42.9947 42.9778 42.9901 42.848 43.0119 42.6893ZM45.7359 40.348L47.1958 39.6189V34.5099V29.4008H44.6572H42.1187L42.4575 30.1984C42.8772 31.1865 43.528 33.1309 43.7632 34.0993C44.1391 35.6469 44.3086 37.5464 44.2656 39.7291C44.2509 40.4705 44.2475 41.077 44.2573 41.077C44.2675 41.077 44.9329 40.749 45.7359 40.348ZM59.7545 35.6972C59.7545 35.6689 59.5078 35.38 59.2063 35.0553C57.4448 33.1586 56.4348 31.1126 56.1637 28.8916C56.1227 28.5556 56.089 27.4177 56.0889 26.3629L56.0887 24.4452H53.4412H50.7937L50.7939 26.9739C50.7939 32.8658 51.0993 35.3261 52.0837 37.3798C52.4954 38.2389 53.0052 38.9271 53.9837 39.9445L54.7552 40.7467L57.2549 38.2478C58.6297 36.8733 59.7545 35.7255 59.7545 35.6972ZM53.2376 31.4373V30.6227H53.0678C52.8994 30.6227 52.8981 30.6182 52.8981 30.0118V29.4008H52.2872H51.6762V28.8577V28.3146H52.2872H52.8981V27.6697V27.0248H53.4412H53.9843V27.6697V28.3146H54.6292H55.2741V28.8577V29.4008H54.6292H53.9843V30.0118C53.9843 30.6182 53.9843 30.6227 53.8146 30.6227H53.6449V31.4373V32.252H53.4412H53.2376V31.4373ZM49.6603 38.3858L50.9716 37.7312L50.7422 37.1531C50.3029 36.0467 50.0009 34.5585 49.8441 32.7272C49.7531 31.6639 49.6437 28.0294 49.6414 25.9896V24.4452H46.8375H44.0335L43.1207 26.3204C42.6187 27.3517 42.1978 28.2223 42.1853 28.2551C42.1725 28.2886 43.4968 28.3146 45.2233 28.3146H48.2837V33.6775C48.2837 36.6272 48.2987 39.0405 48.3172 39.0405C48.3357 39.0405 48.9409 38.7459 49.6621 38.3858H49.6603ZM56.55 23.0366C56.6262 22.8592 56.7526 22.5515 56.8308 22.3528L56.9731 21.9915L56.8194 22.0409C55.9334 22.3251 54.8847 22.2372 54.0912 21.8124C53.9017 21.7109 53.5526 21.4402 53.3153 21.2108L52.8839 20.7936L52.4857 21.1918C51.1399 22.5376 48.985 22.5498 47.628 21.2193L47.1958 20.7955L46.7635 21.2193C45.9015 22.0646 44.6663 22.4041 43.5279 22.1087C43.3238 22.0558 43.1488 22.0204 43.1391 22.0301C43.1293 22.0399 43.216 22.2741 43.3314 22.5507C43.4469 22.8273 43.5686 23.1223 43.6019 23.2063L43.6624 23.3591H50.0369H56.4114L56.55 23.0366ZM44.9244 21.0826C45.4508 20.9472 45.9713 20.5861 46.2744 20.146C46.5408 19.7592 46.5616 19.6562 46.4129 19.4596C46.28 19.2838 46.2863 18.7755 46.4242 18.5419C46.655 18.1513 47.265 18.0047 47.6682 18.2429C48.063 18.4761 48.2052 19.0841 47.9614 19.4968C47.8498 19.6856 47.8505 19.7057 47.9757 19.9379C48.1911 20.3379 48.6061 20.7114 49.0859 20.9369C49.9773 21.3559 51.005 21.1646 51.6916 20.4519C51.8598 20.2773 52.0509 20.0404 52.1162 19.9255C52.2265 19.7315 52.2271 19.7013 52.1253 19.5046C52.065 19.388 52.0156 19.1674 52.0156 19.0144C52.0156 18.4512 52.3464 18.1319 52.9298 18.1319C53.1879 18.1319 53.2819 18.1706 53.4932 18.3642C53.7324 18.5834 53.7467 18.6199 53.7467 19.0067C53.7467 19.3014 53.7143 19.4492 53.6319 19.5316C53.5241 19.6394 53.5255 19.6627 53.6538 19.9139C53.9161 20.428 54.5178 20.9054 55.1315 21.0863C55.2774 21.1293 55.2897 21.1176 55.2507 20.9738C55.227 20.8855 55.1711 20.5461 55.1268 20.2193C54.9023 18.5632 55.6266 16.7404 56.9346 15.6698L57.3539 15.3266L57.2041 14.9133C56.8586 13.9603 56.82 12.6628 57.1091 11.7267C57.188 11.4713 57.2421 11.2519 57.2293 11.2391C57.187 11.1968 56.4279 11.5308 56.042 11.7615C55.4971 12.0873 54.8389 12.7545 54.1776 13.6514C53.258 14.8985 52.4566 15.6292 51.3808 16.2016L50.8145 16.5028L50.7724 17.1646C50.7334 17.7793 50.5154 18.7736 50.3921 18.8992C50.3628 18.9293 50.1331 18.8717 49.8819 18.7711C49.4833 18.6115 49.4305 18.57 49.4662 18.4449C49.7243 17.5408 49.8095 16.5754 49.69 15.9086C49.6453 15.6592 49.6546 15.6198 49.7579 15.6178C49.9963 15.6132 50.8589 15.2251 51.336 14.908C52.0088 14.4606 52.6293 13.829 53.3381 12.8697C53.6687 12.4222 54.1182 11.8804 54.337 11.6658C54.5557 11.4511 54.7047 11.2755 54.668 11.2755C54.5471 11.2755 53.866 10.3679 53.6236 9.88378C53.379 9.39543 53.1699 8.71035 53.1699 8.39751C53.1699 8.22758 53.1545 8.22059 52.7796 8.21946C51.8694 8.21569 50.8225 7.83725 50.0989 7.24784L49.7109 6.93179L49.3902 7.13522C48.6723 7.59046 47.6869 7.80207 46.836 7.68371C46.5594 7.64525 46.2504 7.58228 46.1492 7.54378C45.8678 7.4368 45.7706 7.45804 45.7694 7.62665C45.7656 8.1918 45.3052 9.76757 44.9215 10.5295L44.6841 11.001L44.9546 11.1391C45.1035 11.2151 45.2754 11.3536 45.3366 11.447L45.4478 11.6167L45.7279 11.36C46.3649 10.7762 47.2545 10.1703 47.882 9.89279C48.93 9.42931 49.9303 9.58295 50.6008 10.3105C51.035 10.7814 51.1652 11.1363 51.1663 11.8525C51.1663 12.392 51.1441 12.5109 50.9681 12.8692C50.634 13.5497 50.1695 13.9465 48.6562 14.8441C46.1016 16.3594 45.0793 17.3164 44.5119 18.7239C44.2255 19.4344 43.9716 20.9945 44.1186 21.1414C44.1925 21.2154 44.4936 21.1934 44.9244 21.0826ZM46.5411 9.58144C46.1494 9.41645 46.0661 8.9326 46.376 8.62273C46.7677 8.23105 47.3624 8.47521 47.3624 9.02771C47.3624 9.46765 46.9428 9.75061 46.5411 9.58144ZM40.9334 16.1164C40.7864 16.078 40.7822 16.003 40.9206 15.8881C40.979 15.8397 41.2592 15.477 41.5435 15.0821C42.2194 14.1432 42.2923 14.0637 42.6134 13.9155C42.8492 13.8067 43.7335 13.7265 43.7335 13.814C43.7335 13.8287 43.6408 13.94 43.5274 14.0614C43.414 14.1827 43.1343 14.5449 42.9058 14.8662C42.304 15.7122 42.0615 15.9468 41.6688 16.0634C41.3342 16.1628 41.1592 16.1754 40.9334 16.1164Z" fill="black"/>
</svg>
