<svg width="100" height="100" viewBox="0 0 100 100" fill="none" xmlns="http://www.w3.org/2000/svg">
<path d="M25.8918 91.8072C20.4882 91.07 15.2698 87.9808 12.0954 83.64C10.8236 81.9007 9.85717 80.1945 9.33447 78.7654C8.98475 77.8092 8.26301 75.088 8.12327 74.1989C8.04224 73.6831 7.99974 65.2823 8 49.8095V26.2068L8.29602 24.8148C9.27616 20.2066 11.0193 16.9166 14.0846 13.8899C16.8957 11.114 19.6024 9.58682 23.8536 8.37787L25.0035 8.05089L49.3324 8.01581C66.4142 7.9912 73.9629 8.02013 74.6738 8.11298C77.5033 8.48243 81.2141 10.0797 83.8622 12.068C84.9992 12.9218 87.0911 15 87.7431 15.9236C89.6145 18.5742 90.4431 20.2033 91.1307 22.5842C92.0702 25.837 91.9988 23.5914 91.9988 49.8675C91.9988 76.0696 92.062 74.0398 91.1483 77.1643C90.4188 79.6591 89.5566 81.3797 87.9059 83.6351C84.6326 88.1073 79.14 91.2706 73.6263 91.8588C71.6766 92.0669 27.4441 92.019 25.8915 91.8072H25.8918ZM41.6467 76.2516C42.0794 76.1833 42.6906 76.0437 43.0048 75.9414C43.5892 75.7511 44.1886 75.1897 44.1886 74.8325C44.1886 74.7252 43.8868 73.995 43.518 73.2098C42.4693 70.9771 42.1683 69.212 42.5558 67.5682C42.8058 66.5079 43.115 65.9592 43.9181 65.151C44.7306 64.3332 45.4926 63.899 46.8769 63.465C47.7587 63.1886 48.1444 63.1438 50.0589 63.0956C51.7962 63.052 52.4094 63.081 53.085 63.2385C55.0273 63.6917 56.1041 64.3085 56.8491 65.3946C58.0353 67.1238 57.8925 69.5427 56.4117 72.8011C56.0133 73.678 55.6873 74.48 55.6873 74.5834C55.6873 75.4795 57.8655 76.1355 60.841 76.1355C62.9388 76.1355 68.8522 75.5466 72.3348 74.9908C76.679 74.2975 77.4941 74.1613 79.29 73.8287C80.3218 73.6376 81.5297 73.4162 81.9741 73.3367L82.7821 73.1921L83.1404 72.3943C83.3375 71.9556 83.5278 71.4876 83.5631 71.3545C83.5985 71.2214 83.7916 70.6424 83.9923 70.068C84.3817 68.9535 85.2171 65.085 85.4788 63.1843C85.6947 61.6163 85.6945 57.0559 85.4788 56.1035C85.2832 55.2414 84.8729 54.3922 84.471 54.0174C83.9062 53.491 83.6067 53.5353 81.8608 54.4032C79.2648 55.6938 77.1885 56.1288 75.42 55.7528C73.5555 55.3564 72.4336 54.4889 71.5689 52.7749C70.9385 51.5254 70.763 50.5499 70.8506 48.7806C70.9222 47.3329 71.1203 46.6528 71.8088 45.4906C73.744 42.2239 77.5217 41.7534 82.25 44.1903C83.6941 44.9346 84.1164 44.9651 84.6818 44.3656C84.914 44.1194 85.1954 43.6046 85.3601 43.1249C85.6145 42.3837 85.6412 42.0959 85.6382 40.1263C85.6333 36.9621 84.9585 33.125 83.8348 29.8749C83.0581 27.6283 82.7635 27.1387 82.0138 26.8478C75.6902 24.3941 65.2312 22.7693 59.5875 23.3639C57.6035 23.5729 56.781 23.8149 56.2493 24.3462C55.6608 24.9342 55.6786 25.1077 56.5234 27.0122C57.2977 28.7577 57.558 30.0066 57.4658 31.5325C57.3801 32.9506 57.252 33.3448 56.5327 34.4044C55.8314 35.4374 55.1755 35.9613 53.9654 36.4548C51.6003 37.4195 49.2377 37.4307 46.643 36.4896C44.9622 35.8799 43.7843 34.8788 43.0918 33.4713C42.6802 32.6348 42.676 32.6096 42.6762 30.99C42.6762 29.1842 42.7481 28.8777 43.5984 27.0372C44.1916 25.7532 44.2179 25.2046 43.7067 24.7745C43.2218 24.3664 42.1855 23.9925 41.0598 23.8192C39.9008 23.6409 35.1149 23.6426 32.9323 23.8221C28.5463 24.183 20.8933 25.8702 17.9159 27.1327C17.2452 27.4171 16.9493 27.9512 16.1527 30.3152C15.2915 32.8712 14.5916 36.3739 14.4163 39.005C14.2313 41.7817 14.6023 43.8993 15.4 44.6213C15.8069 44.9895 16.7241 44.8885 17.5384 44.3859C18.459 43.8177 20.0196 43.1388 20.9577 42.8985C21.5044 42.7584 22.1079 42.7161 23.1207 42.7467C24.4308 42.7862 24.5818 42.8168 25.361 43.2005C27.1565 44.0846 28.2226 45.7577 28.5667 48.2317C28.8963 50.6017 27.8707 53.3881 26.2369 54.5613C25.1053 55.3741 24.6947 55.4861 22.8256 55.4919C20.8231 55.4982 20.1407 55.3269 17.9959 54.2793C17.257 53.9185 16.5164 53.6249 16.3499 53.6269C15.3682 53.639 14.6581 54.8607 14.3917 56.9955C14.2296 58.2946 14.3429 61.9534 14.5958 63.589C15.1347 67.0733 16.147 70.8924 16.9612 72.513L17.3001 73.1875L19.8207 73.6887C25.8118 74.8798 32.9155 75.9591 36.9871 76.2967C38.1421 76.3924 40.9252 76.3654 41.6472 76.2515L41.6467 76.2516Z" fill="black"/>
</svg>
