<svg width="100" height="100" viewBox="0 0 100 100" fill="none" xmlns="http://www.w3.org/2000/svg">
<path d="M31.6298 81.5385L13.5245 71.0767V28.8891L31.5415 18.4751C41.4508 12.7473 49.7174 8.03364 49.9117 8.00027C50.1324 7.96238 57.0581 11.8695 68.3703 18.4135L86.4755 28.8872V71.0795L68.3703 81.5396C58.4123 87.2927 50.1457 91.9999 50 92C49.8543 92.0001 41.5877 87.2925 31.6298 81.5385ZM35.2112 72.775C38.8539 71.9368 43.2768 70.1632 47.6 67.807C50.3111 66.3295 49.6889 66.3295 52.4 67.807C74.6823 79.951 85.7374 70.5732 71.182 51.8747C69.5743 49.8093 69.6325 49.9816 70.2866 49.2275C86.6495 30.363 74.3078 19.4261 51.5456 32.6197L50 33.5156L48.4544 32.6197C25.6922 19.4261 13.3505 30.363 29.7134 49.2275C30.3669 49.981 30.4226 49.8134 28.8477 51.8368C18.0243 65.7438 21.1448 76.0115 35.2112 72.775ZM28.097 70.5445C22.8144 69.0604 23.9947 61.9455 30.975 53.1972L31.9956 51.9182L34.2053 54.1199C37.6876 57.5897 41.7404 60.9478 45.9901 63.885L47.5444 64.9592L46.4257 65.5848C39.3933 69.5176 31.7773 71.5784 28.097 70.5445ZM66.8926 70.6208C63.4925 70.1243 57.9318 68.0216 53.5744 65.5848L52.4556 64.9592L54.0098 63.885C58.2596 60.9478 62.3124 57.5897 65.7947 54.1199L68.0044 51.9182L69.025 53.1972C78.0281 64.4806 77.0943 72.1106 66.8926 70.6208ZM47.5271 61.864C43.1454 58.8509 39.313 55.667 35.7837 52.1073L33.667 49.9724L35.5187 48.1015C39.6031 43.9749 48.9123 36.5476 50 36.5476C51.0877 36.5476 60.3969 43.975 64.4813 48.1016L66.3331 49.9725L64.128 52.1924C59.9752 56.3729 51.0602 63.4224 49.9678 63.3894C49.8398 63.3855 48.7415 62.6991 47.5271 61.864ZM52.6197 54.8287C57.5965 52.12 55.6636 44.4962 50 44.4962C44.6467 44.4962 42.4522 51.5582 46.885 54.5206C48.5505 55.6337 50.908 55.7603 52.6197 54.8287ZM30.9179 46.6832C20.4252 33.4793 23.8508 25.7611 38.0487 30.6171C40.8483 31.5746 46.7232 34.2932 47.4034 34.9459C47.4811 35.0205 47.0058 35.4312 46.347 35.8587C42.7389 38.2 38.5862 41.6058 34.7807 45.3448L32.0143 48.063L30.9179 46.6832ZM65.718 45.8089C62.2701 42.3379 58.1325 38.8989 54.2209 36.2528C53.2574 35.601 52.5295 35.0098 52.6035 34.939C53.2798 34.2915 59.168 31.5691 61.9513 30.6171C76.1399 25.7643 79.5744 33.4798 69.0956 46.6662C67.7959 48.3018 68.3287 48.4371 65.718 45.8089Z" fill="black"/>
</svg>
