<svg width="100" height="100" viewBox="0 0 100 100" fill="none" xmlns="http://www.w3.org/2000/svg">
<path d="M50.9679 87.0521C20.0783 87.014 10.019 86.973 10.1711 86.8858C10.2822 86.8222 11.7591 86.1117 13.453 85.3069C15.147 84.5022 17.1544 83.5462 17.9139 83.1824C18.6733 82.8186 19.5594 82.3972 19.883 82.2459C20.2066 82.0945 21.3527 81.5462 22.4299 81.0275C23.5071 80.5087 24.4047 80.0843 24.4244 80.0843C24.4442 80.0843 25.262 79.698 26.2419 79.2259C27.2218 78.7538 28.036 78.3676 28.0511 78.3676C28.0662 78.3676 29.1107 77.8677 30.3721 77.2568C31.6335 76.6459 32.6782 76.146 32.6937 76.146C32.7218 76.146 34.0824 75.4993 36.9157 74.1391C37.7402 73.7433 38.4284 73.4195 38.4451 73.4195C38.4617 73.4195 39.264 73.0386 40.2279 72.573C41.1918 72.1075 43.3892 71.058 45.1109 70.2409C46.8327 69.4238 48.6504 68.5593 49.1502 68.3199C51.5189 67.1853 57.3442 64.4155 59.5009 63.3984C59.973 63.1758 60.8591 62.7552 61.47 62.4637C62.081 62.1723 62.9671 61.7505 63.4392 61.5265C63.9113 61.3024 65.0634 60.7512 65.9995 60.3015C66.9355 59.8518 67.7129 59.4839 67.7271 59.4839C67.7413 59.4839 68.6928 59.0295 69.8416 58.4741C70.9904 57.9187 71.9495 57.4643 71.9729 57.4643C71.9964 57.4643 72.56 57.1955 73.2254 56.8669C73.8908 56.5384 74.5236 56.2415 74.6317 56.2073C74.8439 56.1399 74.945 56.3038 77.2751 60.4937C77.8464 61.5212 78.4207 62.5314 78.5512 62.7386C78.6817 62.9458 78.7885 63.1371 78.7885 63.1638C78.7885 63.1903 79.089 63.7481 79.4563 64.4029C79.8237 65.0576 80.6821 66.5931 81.3638 67.815C82.7653 70.3267 84.7455 73.8689 86.8679 77.6607C87.6606 79.077 88.5574 80.6902 88.8608 81.2456C89.1642 81.801 89.4466 82.3008 89.4883 82.3564C89.5301 82.4119 89.7314 82.7655 89.9358 83.1421C90.4188 84.0321 90.6446 84.4355 91.1072 85.2344C91.6339 86.144 92.0346 86.9541 91.9976 87.0348C91.9807 87.0721 73.5172 87.0798 50.9679 87.0521ZM8 85.5828C8 85.4804 8.32145 84.889 8.95772 83.8206C10.0948 81.9113 10.545 81.15 10.7493 80.7912C11.0738 80.2212 13.7764 75.6319 14.2877 74.7827C14.8581 73.8352 16.2013 71.5523 16.4563 71.0969C16.5962 70.8469 16.9943 70.1653 17.3409 69.5821C17.6875 68.999 18.1311 68.2492 18.3267 67.9159C19.8017 65.4036 20.8445 63.6345 21.3326 62.8163C21.6475 62.2887 22.2363 61.289 22.6412 60.5947C23.0461 59.9005 23.5808 58.9916 23.8295 58.5751C24.0782 58.1586 24.372 57.6587 24.4824 57.4643C24.6898 57.0992 25.985 54.9056 26.9865 53.223C27.3006 52.6954 27.726 51.9683 27.9319 51.6073C28.1378 51.2463 28.6451 50.3829 29.0594 49.6887C29.4736 48.9944 30.0874 47.9492 30.4233 47.3661C30.7593 46.7829 31.1015 46.2155 31.1838 46.1052C31.3671 45.8596 31.1361 45.7278 34.025 47.7265C35.2347 48.5635 37.1788 49.9072 38.3451 50.7125C39.5115 51.5177 40.7611 52.3817 41.1221 52.6324C41.4831 52.8831 42.7555 53.7619 43.9496 54.5854C45.1437 55.4089 47.0473 56.723 48.1797 57.5056C49.3122 58.2882 50.6073 59.1819 51.0577 59.4914C51.5082 59.8011 52.4902 60.4803 53.24 61.001C53.9898 61.5216 54.8305 62.1016 55.1082 62.2898C55.3859 62.4781 55.6282 62.6736 55.6467 62.7242C55.6766 62.8066 55.0071 63.1445 51.2204 64.9581C50.6372 65.2374 49.6148 65.7284 48.9483 66.0492C47.1682 66.9059 45.4721 67.7182 44.1011 68.3707C43.4346 68.688 40.5036 70.0945 37.5878 71.4963C30.7979 74.7608 28.8878 75.6766 26.7322 76.7011C25.8283 77.1308 20.9076 79.4941 13.8065 82.909C13.2511 83.1761 12.3195 83.6218 11.7363 83.8996C11.1532 84.1773 10.0955 84.6822 9.3859 85.0214C8.06773 85.6517 8 85.6791 8 85.5828ZM57.2793 61.5034C56.9738 61.2865 56.6647 61.1291 56.5924 61.1537C56.5201 61.1784 56.4825 61.1636 56.5087 61.121C56.535 61.0784 56.2079 60.8047 55.7819 60.5129C49.2874 56.0634 46.3642 54.1255 46.2519 54.1949C46.1878 54.2346 46.1683 54.2184 46.2062 54.1569C46.2445 54.0951 45.7131 53.672 44.9501 53.1567C41.3662 50.7364 37.5527 48.1512 34.5873 46.1319C33.3866 45.3142 32.355 44.6269 32.2948 44.6044C32.2245 44.5782 32.2539 44.4415 32.3769 44.2229C32.6269 43.7788 33.5621 42.1855 34.5031 40.6003C34.9153 39.906 35.4675 38.9517 35.7302 38.4796C35.9929 38.0076 36.286 37.5077 36.3816 37.3688C36.5969 37.056 37.8907 34.8336 37.8907 34.7766C37.8907 34.7538 37.9765 34.612 38.0813 34.4615C38.4288 33.9628 39.9984 31.2621 40.0304 31.108C40.0477 31.0247 40.1008 30.928 40.1486 30.8932C40.2399 30.8266 40.3357 30.6712 41.2131 29.1657C41.5131 28.6511 41.9495 27.9118 42.183 27.5231C42.4164 27.1343 42.9399 26.2482 43.3462 25.5539C43.7525 24.8597 44.4587 23.6555 44.9154 22.8779C45.3722 22.1003 46.2799 20.5553 46.9323 19.4445C47.5848 18.3337 48.4148 16.925 48.7767 16.3141C49.1386 15.7031 49.5466 14.9988 49.6833 14.7488C50.1178 13.9542 50.7597 12.9312 50.8238 12.9312C50.8578 12.9312 50.9698 13.0874 51.0726 13.2784C51.1755 13.4694 51.2957 13.6034 51.3398 13.5762C51.3839 13.549 51.3971 13.586 51.3691 13.6589C51.341 13.7316 51.6078 14.2907 51.9616 14.9012C52.3153 15.5116 52.9862 16.7011 53.4524 17.5445C54.4756 19.3951 54.7987 19.9705 55.0013 20.3028C55.086 20.4417 55.3771 20.9643 55.6482 21.4642C56.111 22.3173 56.6803 23.3393 58.2787 26.186C58.6453 26.8391 59.0846 27.6239 59.2548 27.9299C59.425 28.2359 59.6027 28.4514 59.6497 28.4086C59.6967 28.3659 59.7032 28.3864 59.6642 28.4544C59.6243 28.5237 59.8765 29.0759 60.2407 29.7166C60.5968 30.343 61.147 31.3221 61.4634 31.8924C61.8117 32.52 62.0821 32.9024 62.1486 32.8614C62.2144 32.8207 62.2294 32.8403 62.1862 32.9103C62.1182 33.0203 62.9077 34.617 63.1925 34.9455C63.2648 35.0289 63.3725 35.2247 63.4318 35.3807C63.4911 35.5367 63.5846 35.6365 63.6396 35.6025C63.6946 35.5685 63.717 35.5994 63.6893 35.6721C63.6615 35.7445 63.8275 36.1217 64.0579 36.5105C64.2883 36.8993 64.7362 37.6945 65.0532 38.2777C65.3702 38.8608 65.8473 39.7243 66.1132 40.1964C66.5948 41.0512 67.6997 43.0223 68.2359 43.9832C68.3908 44.2609 68.8358 45.0561 69.2246 45.7504C69.6135 46.4446 70.2231 47.5352 70.5793 48.1739C70.9355 48.8127 71.3205 49.4943 71.4349 49.6887C71.5493 49.8831 71.7598 50.2693 71.9026 50.547C72.0455 50.8247 72.2603 51.211 72.38 51.4054C72.7623 52.0264 73.9573 54.2506 73.9234 54.2782C73.8206 54.3618 66.7058 57.7714 64.9538 58.5767C64.2595 58.8958 63.5551 59.2306 63.3885 59.3207C63.2219 59.4108 62.0632 59.9632 60.8135 60.5482C59.5638 61.1333 58.4208 61.6784 58.2733 61.7597C57.9167 61.9564 57.9177 61.9566 57.2793 61.5034Z" fill="black"/>
</svg>
