<svg width="100" height="100" viewBox="0 0 100 100" fill="none" xmlns="http://www.w3.org/2000/svg">
<path d="M16.2031 8C11.6586 8 8 11.6586 8 16.2031V83.7968C8 88.3414 11.6586 92 16.2031 92H83.7969C88.3414 92 92 88.3414 92 83.7968V16.2031C92 11.6586 88.3414 8 83.7969 8H16.2031ZM74.2995 47.0468C76.2166 47.0468 77.9157 47.1625 79.3964 47.3935C80.877 47.6245 82.242 47.9796 83.4915 48.4587V56.1328C82.8753 55.7049 82.2034 55.3284 81.476 55.0032C80.7484 54.6782 79.9997 54.4087 79.2294 54.1948C78.459 53.981 77.693 53.823 76.9313 53.7203C76.1695 53.6177 75.4462 53.5662 74.7616 53.5662C73.82 53.5662 72.9644 53.6559 72.194 53.8356C71.4237 54.0152 70.7733 54.2677 70.2425 54.5927C69.7119 54.9179 69.3012 55.307 69.0101 55.7605C68.7191 56.214 68.5737 56.7231 68.5737 57.2876C68.5737 57.9037 68.7362 58.4555 69.0614 58.9433C69.3865 59.4309 69.8488 59.8928 70.4479 60.3292C71.0471 60.7654 71.7745 61.1932 72.6304 61.6125C73.4863 62.0317 74.4535 62.4638 75.5319 62.9087C77.004 63.5246 78.3263 64.179 79.4989 64.872C80.6715 65.565 81.6771 66.3478 82.5158 67.2204C83.3546 68.0931 83.9965 69.0898 84.4416 70.2105C84.8867 71.3312 85.1094 72.6358 85.1094 74.1246C85.1094 76.1778 84.7199 77.9015 83.9411 79.2961C83.1623 80.6906 82.1052 81.82 80.7701 82.684C79.4349 83.5481 77.8814 84.1684 76.1097 84.5448C74.3379 84.9213 72.4678 85.1094 70.4992 85.1094C68.4792 85.1094 66.558 84.9383 64.7349 84.596C62.9118 84.2538 61.3327 83.7408 59.9976 83.0564V74.8433C61.4868 76.0924 63.1046 77.0291 64.8506 77.6535C66.5967 78.2781 68.3597 78.5905 70.14 78.5905C71.1842 78.5905 72.0956 78.4962 72.8746 78.3079C73.6534 78.1197 74.3036 77.8591 74.8257 77.5254C75.3477 77.1917 75.7372 76.798 75.994 76.3446C76.2507 75.8911 76.3795 75.3993 76.3795 74.8689C76.3795 74.1502 76.1738 73.5087 75.763 72.9441C75.352 72.3794 74.7914 71.8575 74.081 71.3784C73.3708 70.8993 72.5278 70.4372 71.5521 69.9923C70.5764 69.5473 69.5236 69.094 68.3939 68.632C65.5181 67.4342 63.3742 65.9714 61.9622 64.2434C60.5499 62.5151 59.8438 60.4276 59.8438 57.9808C59.8438 56.0643 60.229 54.4172 60.9993 53.0399C61.7695 51.6625 62.8177 50.5291 64.1443 49.6392C65.4711 48.7495 67.0075 48.095 68.7535 47.6758C70.4994 47.2566 72.348 47.0468 74.2995 47.0468ZM27.3594 47.8672H56.7266V54.6072H46.1904V84.6172H37.8437V54.6072H27.3594V47.8672Z" fill="black"/>
</svg>
