<svg width="100" height="100" viewBox="0 0 100 100" fill="none" xmlns="http://www.w3.org/2000/svg">
<path fill-rule="evenodd" clip-rule="evenodd" d="M41.3814 24.2412C41.2429 23.8991 41.4534 23.4394 41.4534 23.4394C41.7041 23.3612 42.1724 23.41 42.3124 23.7358C42.4657 24.0895 42.3125 24.3921 41.9085 24.6351C41.9085 24.6351 41.6515 24.5454 41.3814 24.2412Z" fill="black"/>
<path fill-rule="evenodd" clip-rule="evenodd" d="M53.3868 44.7291L50.9071 46.7049L50.8947 26.3162H53.3868V44.7291Z" fill="black"/>
<path fill-rule="evenodd" clip-rule="evenodd" d="M54.9827 42.9513L54.9904 26.3169H57.0112L57.0313 39.0088C56.642 40.21 56.0043 41.5172 54.9827 42.9513Z" fill="black"/>
<path fill-rule="evenodd" clip-rule="evenodd" d="M46.8315 44.9171L49.3437 46.893V26.3162H46.8315V44.9171Z" fill="black"/>
<path fill-rule="evenodd" clip-rule="evenodd" d="M45.4253 43.5271L45.4105 26.3162H43.18V39.8633C43.2659 40.7773 44.8997 43.0937 45.4253 43.5271Z" fill="black"/>
<path d="M50.0016 49.5082C40.6144 49.5082 32.9787 41.8717 32.9787 32.486C32.9787 23.1004 40.6144 15.4647 50.0016 15.4647C59.3872 15.4647 67.0222 23.0996 67.0222 32.486C67.0222 41.8717 59.3864 49.5082 50.0016 49.5082V50.1103C59.7185 50.1103 67.6251 42.2037 67.6251 32.486C67.6251 22.7676 59.7185 14.8626 50.0016 14.8626C40.2816 14.8626 32.3766 22.7684 32.3766 32.486C32.3766 42.2037 40.2824 50.1103 50.0016 50.1103V49.5082Z" fill="black"/>
<path d="M50.0016 56.1919C36.9274 56.1919 26.2926 45.5572 26.2926 32.486C26.2926 19.4141 36.9274 8.78014 50.0016 8.78014C63.0735 8.78014 73.7083 19.4141 73.7083 32.486C73.7075 45.5572 63.0727 56.1919 50.0016 56.1919V56.9713C63.5038 56.9713 74.4884 45.9875 74.4884 32.486C74.4884 18.9846 63.5046 8 50.0016 8C36.4978 8 25.5132 18.9838 25.5132 32.486C25.5132 45.9875 36.4978 56.9713 50.0016 56.9713V56.1919Z" fill="black"/>
<path fill-rule="evenodd" clip-rule="evenodd" d="M29.814 39.4275C30.348 39.9492 30.6197 40.3098 30.9123 40.9963C31.1739 41.6093 31.2296 42.0025 31.266 42.668L32.4779 42.1309C32.0298 41.6348 31.7783 41.3283 31.5074 40.7162C31.2079 40.0374 31.0988 39.6102 31.0516 38.8711L29.814 39.4275Z" fill="black"/>
<path fill-rule="evenodd" clip-rule="evenodd" d="M29.7359 42.1093C30.2521 41.5714 30.6151 41.2974 31.3046 41.011C31.9199 40.7549 32.3116 40.6999 32.9764 40.6581L32.4408 39.4469C31.9455 39.8973 31.6344 40.1419 31.0245 40.4159C30.3481 40.72 29.9177 40.8191 29.1786 40.8725L29.7359 42.1093Z" fill="black"/>
<path fill-rule="evenodd" clip-rule="evenodd" d="M70.1365 39.4275C69.6033 39.9507 69.3293 40.3098 69.0383 40.9963C68.7759 41.6101 68.7202 42.0025 68.6846 42.668L67.4734 42.1309C67.9153 41.631 68.1761 41.3307 68.4423 40.7162C68.7388 40.0366 68.8525 39.6102 68.8998 38.8711L70.1365 39.4275Z" fill="black"/>
<path fill-rule="evenodd" clip-rule="evenodd" d="M70.2147 42.1093C69.6946 41.5729 69.3362 41.2951 68.6467 41.011C68.0291 40.7579 67.639 40.6968 66.9742 40.6581L67.5097 39.4469C68.0035 39.8989 68.3162 40.1396 68.9261 40.4159C69.6009 40.7231 70.0328 40.8175 70.7727 40.8725L70.2147 42.1093Z" fill="black"/>
<path fill-rule="evenodd" clip-rule="evenodd" d="M40.4457 49.4563C40.7646 49.2822 40.9193 49.4401 40.9991 49.3379C41.0579 49.262 40.989 49.2303 40.9 49.1607C40.7816 49.0686 40.6508 48.9935 40.5316 48.9022C40.4109 48.8062 40.3064 48.6971 40.1841 48.6011C40.1346 48.5616 40.0223 48.4525 39.9558 48.5361C39.8343 48.6932 40.3876 48.8604 40.0626 49.2783C40.0076 49.3487 39.8784 49.4966 39.5193 49.6955L37.8894 50.5925C37.8514 50.6134 37.7872 50.6621 37.7609 50.6428C37.7353 50.6226 37.7624 50.5445 37.7748 50.5019L38.3421 48.6475C38.4489 48.2938 38.5565 48.0431 38.661 47.9084C38.8065 47.7227 39.0077 47.9881 39.1006 47.8674C39.1602 47.7923 39.1354 47.7799 39.0015 47.6739C38.9342 47.6228 38.7972 47.5447 38.5279 47.3349C38.3847 47.2219 38.2547 47.0919 38.1161 46.9836C38.0519 46.9348 37.9497 46.7978 37.8661 46.9031C37.8421 46.9348 37.8762 47.0045 37.8847 47.0184C38.0225 47.1964 38.0441 47.2924 37.9807 47.5207L37.0125 50.9222C36.9436 51.1675 36.9506 51.2449 36.9939 51.2782C37.0396 51.3145 37.0814 51.3037 37.2176 51.2263L40.4457 49.4563Z" fill="black"/>
<path fill-rule="evenodd" clip-rule="evenodd" d="M44.683 51.2108C44.7875 50.7952 45.1056 51.0893 45.1567 50.8819C45.1729 50.8169 45.1489 50.803 45.0398 50.7759C44.957 50.7558 44.8881 50.7627 44.4485 50.652C44.2504 50.6041 43.954 50.5065 43.7481 50.4555C43.6382 50.4276 43.5709 50.4562 43.5569 50.5058C43.5097 50.6977 44.1335 50.6946 44.0182 51.159L43.3743 53.7432C43.2079 54.4095 42.8875 54.0164 42.8232 54.2679C42.8155 54.3004 42.8403 54.3352 42.9076 54.353C43.1932 54.4235 43.4153 54.4552 43.5778 54.4955C43.8363 54.5612 44.1428 54.6611 44.9315 54.8584C45.3556 54.9629 45.7743 54.5914 45.8811 54.165C45.9066 54.0613 45.8749 54.0357 45.854 54.0311C45.6574 53.9816 45.5506 54.7145 44.2643 54.3956C43.8905 54.302 43.9594 54.11 44.0438 53.7718L44.683 51.2108Z" fill="black"/>
<path fill-rule="evenodd" clip-rule="evenodd" d="M47.7835 51.8687C47.8113 51.4794 47.8314 51.4763 48.4769 51.522C49.507 51.5939 49.0442 52.2224 49.295 52.2386C49.418 52.2487 49.4049 52.0606 49.4049 51.9871L49.4219 51.4306C49.4265 51.3788 49.3917 51.3207 49.3236 51.3161C48.8538 51.2836 48.4839 51.2797 48.1046 51.2542C47.2881 51.1961 46.9074 51.1474 46.6883 51.1311C46.6133 51.1265 46.5668 51.169 46.5645 51.2186C46.5482 51.4438 47.1635 51.306 47.1287 51.8114L46.9453 54.4397C46.8973 55.1239 46.5134 54.7926 46.4948 55.0511C46.4925 55.0844 46.5227 55.1162 46.5924 55.12C46.8864 55.1394 47.1109 55.1355 47.2765 55.1456C47.5435 55.1641 47.8616 55.2083 48.6727 55.2655C49.11 55.2965 49.4575 54.8577 49.4877 54.4196C49.4954 54.312 49.459 54.2942 49.4389 54.2927C49.2346 54.2772 49.2594 55.0186 47.9359 54.9265C47.5528 54.8994 47.5876 54.6982 47.6116 54.35L47.6612 53.6317C47.6844 53.3059 47.6681 53.237 47.9135 53.2533L48.3074 53.2819C48.8623 53.3206 48.6719 53.9049 48.8414 53.9165C48.9699 53.9266 48.9529 53.7207 48.9529 53.648L48.9846 52.6457C48.9908 52.4948 48.9312 52.501 48.8933 52.4987C48.7865 52.4909 48.7346 53.0072 48.2749 52.9754L47.939 52.9507C47.7092 52.9344 47.7123 52.8957 47.7293 52.6535L47.7835 51.8687Z" fill="black"/>
<path fill-rule="evenodd" clip-rule="evenodd" d="M50.6362 54.5705C50.6857 55.1409 50.1657 55.086 50.1858 55.3096C50.1935 55.4064 50.298 55.3677 50.3576 55.363C50.5008 55.3499 50.6424 55.3151 50.8135 55.3011C50.9992 55.2849 51.1826 55.2903 51.4434 55.2678C51.5123 55.2624 51.6462 55.2555 51.6393 55.1773C51.616 54.9149 50.9667 55.3545 50.8746 54.278L50.7066 52.371C50.702 52.3214 50.709 52.2812 50.7415 52.2781C50.767 52.275 50.8026 52.3005 50.8429 52.3431L53.6623 55.0349C53.7026 55.0775 53.732 55.1084 53.8071 55.1015C53.8713 55.0953 53.8674 55.0504 53.8566 54.9265L53.5818 51.782C53.53 51.1923 53.9944 51.2882 53.9797 51.1195C53.9781 51.1033 53.9727 51.0468 53.8713 51.0553C53.8241 51.0607 53.6391 51.0986 53.3032 51.1288C52.9364 51.1605 52.78 51.152 52.6949 51.1598C52.6253 51.1667 52.6144 51.2224 52.6183 51.2627C52.6345 51.4469 53.2754 51.289 53.3195 51.799L53.4828 53.6658C53.4952 53.8066 53.4905 53.8748 53.4588 53.8778C53.4263 53.8802 53.3559 53.8183 53.2816 53.7463L50.9233 51.4608C50.8181 51.3625 50.8785 51.3184 50.7082 51.3323C50.4265 51.3571 50.2903 51.3919 50.151 51.4043C50.0496 51.4136 49.952 51.3989 49.8507 51.409C49.7857 51.4144 49.7632 51.4608 49.7686 51.5119C49.7911 51.7805 50.3568 51.3633 50.4505 52.4406L50.6362 54.5705Z" fill="black"/>
<path fill-rule="evenodd" clip-rule="evenodd" d="M57.2503 50.2573C57.2403 50.231 57.2039 50.2364 57.1784 50.2442C57.1072 50.2651 57.1559 50.4454 57.0584 50.4756C56.9067 50.522 56.4106 50.3131 55.7922 50.5027C54.5052 50.8974 54.3411 52.2479 54.6182 53.1519C54.7474 53.5768 55.3983 54.8847 56.8959 54.4258C57.9856 54.0938 58.2789 53.1147 58.2124 52.9004C58.2031 52.8671 58.1497 52.8547 58.1241 52.8617C57.9902 52.9035 57.8579 53.7153 57.0661 53.956C56.0894 54.2563 55.3542 53.3136 55.122 52.5552C54.9022 51.8339 55.0856 50.9539 55.8371 50.724C56.4307 50.5437 57.0244 50.8726 57.4369 51.313C57.4949 51.371 57.5646 51.474 57.6458 51.4492C57.7341 51.4229 57.6752 51.3045 57.6551 51.2526L57.2503 50.2573Z" fill="black"/>
<path fill-rule="evenodd" clip-rule="evenodd" d="M58.7905 49.9214C58.5405 49.4486 58.9894 49.4377 58.8988 49.2698C58.8671 49.2094 58.8392 49.2125 58.6968 49.2876C58.4283 49.4308 58.2681 49.5391 58.0994 49.6312C57.9337 49.7194 57.7387 49.7968 57.5545 49.8951C57.5119 49.9183 57.385 49.9656 57.4314 50.0499C57.5228 50.2241 57.984 49.8015 58.2232 50.2535L59.4917 52.6388C59.7424 53.1116 59.3338 53.1627 59.4274 53.3361C59.4406 53.3609 59.4677 53.3903 59.5103 53.3678C59.6333 53.3028 59.8245 53.1743 60.028 53.0668C60.3972 52.8709 60.5814 52.7982 60.7563 52.7045C60.8654 52.6473 60.8972 52.6047 60.8678 52.5498C60.7849 52.3903 60.3763 52.9004 60.0512 52.2905L58.7905 49.9214Z" fill="black"/>
<path fill-rule="evenodd" clip-rule="evenodd" d="M28.1841 30.1998C27.8645 30.0458 27.9117 29.8631 27.7817 29.8515C27.6865 29.8407 27.6973 29.9057 27.6872 30.0001C27.6749 30.1271 27.6849 30.2555 27.6725 30.3809C27.6586 30.5117 27.6245 30.6355 27.6106 30.7656C27.6052 30.819 27.575 30.949 27.6818 30.9598C27.8792 30.9784 27.7151 30.504 28.2445 30.5566C28.335 30.5659 28.5308 30.5945 28.8954 30.7671L30.5431 31.555C30.5818 31.572 30.6584 31.5975 30.6561 31.6246C30.653 31.6517 30.5725 31.6664 30.5307 31.6757L28.6616 32.0789C28.3072 32.1571 28.0363 32.1896 27.8668 32.1726C27.6323 32.1494 27.7422 31.887 27.5913 31.8723C27.4953 31.863 27.4984 31.8862 27.4837 32.0294C27.4767 32.1014 27.486 32.2337 27.4581 32.5224C27.4419 32.6749 27.404 32.8266 27.3893 32.9744C27.3823 33.0417 27.3243 33.1764 27.4597 33.1896C27.4984 33.1942 27.5379 33.1385 27.544 33.1253C27.6199 32.9465 27.6872 32.89 27.9155 32.8351L31.3008 32.0426C31.5446 31.9853 31.6057 31.9458 31.6096 31.9009C31.615 31.853 31.584 31.8259 31.4424 31.7616L28.1841 30.1998Z" fill="black"/>
<path fill-rule="evenodd" clip-rule="evenodd" d="M30.8612 29.8399C31.42 29.9684 31.2241 30.367 31.4439 30.4165C31.5368 30.4382 31.5283 30.3445 31.5407 30.2965C31.5686 30.1781 31.5732 30.0543 31.6057 29.9134C31.6405 29.7602 31.697 29.6163 31.7473 29.4011C31.7613 29.3438 31.7907 29.2355 31.7148 29.2177C31.4563 29.1581 31.7001 29.8059 30.646 29.5629L28.7816 29.1318C28.7328 29.1209 28.6964 29.1031 28.7019 29.076C28.7073 29.0544 28.7413 29.0342 28.7924 29.0141L32.1304 27.563C32.1815 27.5421 32.2194 27.5282 32.2342 27.4662C32.2465 27.4136 32.2016 27.4035 32.0817 27.3749L29.0052 26.6652C28.4294 26.5321 28.6469 26.19 28.4821 26.1513C28.4658 26.1482 28.4101 26.1351 28.3915 26.2186C28.3822 26.2581 28.3683 26.416 28.3056 26.6923C28.2352 26.9957 28.1841 27.1172 28.1678 27.1876C28.1555 27.2457 28.2073 27.2704 28.2445 27.2797C28.4248 27.3215 28.4511 26.7635 28.9503 26.878L30.7753 27.2998C30.913 27.3308 30.9773 27.3556 30.9718 27.3819C30.9649 27.4074 30.8867 27.4461 30.7969 27.4848L27.9705 28.6906C27.849 28.7456 27.8227 28.6844 27.7894 28.8245C27.7368 29.0575 27.7313 29.1759 27.7058 29.2904C27.6857 29.3732 27.647 29.4468 27.6261 29.5311C27.6145 29.5845 27.6532 29.6163 27.7035 29.6271C27.9666 29.6875 27.7236 29.114 28.7762 29.357L30.8612 29.8399Z" fill="black"/>
<path fill-rule="evenodd" clip-rule="evenodd" d="M29.4108 25.1104C28.9031 24.9455 29.2003 24.6862 29.0192 24.6266C28.9542 24.6057 28.9364 24.6243 28.8946 24.7528C28.8149 24.9974 28.7862 25.1576 28.7359 25.3116C28.6879 25.4617 28.6121 25.6212 28.5587 25.7891C28.5455 25.827 28.4952 25.9292 28.5858 25.9594C28.7739 26.0197 28.78 25.4873 29.2684 25.6459L31.8379 26.4802C32.3464 26.6459 32.1065 26.909 32.2938 26.9694C32.3208 26.9787 32.3611 26.9817 32.3735 26.9431C32.4098 26.8316 32.4478 26.6404 32.5081 26.457C32.6157 26.1234 32.6892 25.9718 32.7419 25.8131C32.7728 25.7148 32.7635 25.6684 32.7055 25.6506C32.5344 25.5941 32.625 26.1536 31.9664 25.94L29.4108 25.1104Z" fill="black"/>
<path fill-rule="evenodd" clip-rule="evenodd" d="M30.6778 21.9101C30.4231 21.6648 30.5253 21.5069 30.4061 21.4542C30.3186 21.4148 30.3094 21.4798 30.2699 21.5665C30.2188 21.6818 30.1878 21.8064 30.1368 21.9209C30.0841 22.0409 30.0122 22.1469 29.9588 22.2661C29.9371 22.3149 29.869 22.4271 29.9673 22.4704C30.1468 22.5509 30.1414 22.051 30.6244 22.2669C30.7064 22.3033 30.8828 22.3915 31.1731 22.6686L32.4841 23.9278C32.5151 23.9564 32.5801 24.0052 32.5677 24.0292C32.5569 24.0547 32.4764 24.0431 32.4361 24.0384L30.5423 23.8357C30.1832 23.7993 29.917 23.7451 29.7622 23.677C29.5462 23.581 29.7335 23.3682 29.595 23.3063C29.5068 23.2668 29.5029 23.29 29.4449 23.4216C29.4154 23.4874 29.3829 23.6159 29.2661 23.879C29.2042 24.0191 29.1206 24.1499 29.0602 24.2853C29.0323 24.3472 28.9356 24.4564 29.0579 24.5121C29.0943 24.5276 29.15 24.4881 29.1593 24.478C29.2862 24.3325 29.3682 24.3008 29.6004 24.3194L33.0491 24.6274C33.2976 24.6499 33.3672 24.6305 33.3866 24.591C33.4051 24.5446 33.3835 24.5113 33.2705 24.4061L30.6778 21.9101Z" fill="black"/>
<path fill-rule="evenodd" clip-rule="evenodd" d="M31.6243 20.7422C31.2977 20.5309 31.3031 20.5124 31.6003 20.055C32.074 19.3267 32.4346 19.9799 32.5507 19.8019C32.6056 19.7152 32.4385 19.6324 32.375 19.5968L31.8975 19.3081C31.8557 19.281 31.7915 19.2756 31.7582 19.3251C31.5422 19.6571 31.3929 19.9303 31.2187 20.1981C30.8441 20.7763 30.6483 21.0363 30.547 21.1911C30.5129 21.2437 30.5307 21.2979 30.574 21.3258C30.7629 21.4488 30.8883 20.9233 31.3132 21.1988L33.5236 22.6337C34.0986 23.0083 33.6574 23.1298 33.8741 23.2699C33.9028 23.2885 33.9415 23.2807 33.9724 23.232C34.1079 23.0238 34.1922 22.8535 34.2681 22.7374C34.3904 22.5478 34.5568 22.3342 34.929 21.7599C35.1303 21.4504 34.888 20.9759 34.5188 20.736C34.4306 20.6787 34.3989 20.6958 34.3896 20.7105C34.2952 20.8544 34.9484 21.2035 34.3416 22.14C34.1651 22.4116 34.0042 22.2862 33.7116 22.0966L33.1072 21.7042C32.8332 21.5262 32.7666 21.5045 32.8804 21.3312L33.0607 21.0518C33.3161 20.6594 33.748 21.0897 33.8262 20.9698C33.8857 20.8792 33.7008 20.791 33.6373 20.7554L32.7798 20.2361C32.6498 20.1571 32.6327 20.2051 32.6142 20.2306C32.5662 20.3057 32.9926 20.6006 32.7813 20.9241L32.6281 21.1625C32.5213 21.3242 32.4888 21.3033 32.2852 21.1718L31.6243 20.7422Z" fill="black"/>
<path fill-rule="evenodd" clip-rule="evenodd" d="M37.2331 18.5775C37.3368 18.6665 37.3623 18.7044 37.4707 18.6572C37.7175 18.545 37.9807 18.5016 38.1912 18.3244C38.6432 17.9452 38.6393 17.2958 38.1649 16.7309C37.7059 16.1829 37.3228 16.1883 36.7834 16.2959C36.107 16.429 35.8709 16.532 35.6279 16.2433C35.3849 15.9546 35.4042 15.6605 35.6302 15.4693C36.2238 14.9717 36.9483 15.7302 37.028 15.6644C37.1038 15.6001 37.0713 15.5398 36.9846 15.4508L36.4614 14.9051C36.3709 14.8115 36.3283 14.738 36.2749 14.7821C36.23 14.8192 36.2022 14.9601 36.158 14.9988C36.0536 15.0847 35.768 15.039 35.4855 15.2751C35.0823 15.6141 35.1086 16.2084 35.5265 16.703C35.905 17.1565 36.2509 17.1542 36.6851 17.0691C37.497 16.9081 37.7601 16.7827 38.0681 17.1488C38.3584 17.494 38.3243 17.8747 38.0558 18.1007C37.6727 18.4219 37.1301 18.2091 36.6712 17.8879C36.6108 17.843 36.5713 17.8105 36.5156 17.8562C36.4297 17.9282 36.5682 18.0241 36.6302 18.076L37.2331 18.5775Z" fill="black"/>
<path fill-rule="evenodd" clip-rule="evenodd" d="M37.822 14.3169C37.5155 13.8781 37.9079 13.851 37.7988 13.6939C37.7601 13.6382 37.7353 13.6421 37.6254 13.7194C37.4149 13.8665 37.2942 13.9779 37.1618 14.0708C37.0326 14.1606 36.8755 14.2442 36.7315 14.3448C36.699 14.368 36.5969 14.4191 36.6518 14.4965C36.764 14.6575 37.0899 14.2372 37.3848 14.6575L38.935 16.8702C39.2414 17.3074 38.8916 17.3732 39.0054 17.535C39.0216 17.5582 39.0511 17.5845 39.0843 17.5621C39.1811 17.4947 39.3258 17.3655 39.4837 17.2548C39.7716 17.0528 39.921 16.9754 40.0572 16.8802C40.1423 16.8206 40.1624 16.7796 40.1268 16.7285C40.0231 16.5815 39.7584 17.0815 39.3622 16.5149L37.822 14.3169Z" fill="black"/>
<path fill-rule="evenodd" clip-rule="evenodd" d="M53.4789 10.9085C53.5238 10.6593 53.6144 10.561 53.814 10.5958C54.5021 10.7173 54.3984 11.5331 54.369 11.6762C54.3395 11.8202 54.1894 12.4386 53.6523 12.3441C53.5548 12.3279 53.4851 12.2807 53.4495 12.2745C53.3961 12.2652 53.3752 12.3302 53.369 12.3689C53.3652 12.3921 53.3621 12.5345 53.797 12.6104C54.3248 12.7033 54.8116 12.355 54.9347 11.6615C55.0779 10.8528 54.5756 10.4782 54.0067 10.3892C53.691 10.3389 53.3729 10.2994 53.311 10.2893C52.9743 10.2297 52.7344 10.1647 52.7042 10.1601C52.5966 10.1407 52.5664 10.2096 52.5603 10.2429C52.5239 10.4488 53.0262 10.3025 52.9217 10.8899L52.4914 13.3286C52.3699 14.0221 52.0363 13.8379 52.0084 13.9981C51.9906 14.0917 52.0734 14.0948 52.0866 14.0971C52.1121 14.1025 52.4573 14.1397 52.6361 14.1714C52.7336 14.1885 52.9248 14.2457 53.2351 14.3007C53.297 14.3107 53.3396 14.3301 53.3559 14.2364C53.3899 14.0414 52.9054 14.173 53.0269 13.4803L53.4789 10.9085Z" fill="black"/>
<path fill-rule="evenodd" clip-rule="evenodd" d="M57.2178 11.1538C56.197 10.8141 55.3294 11.4975 54.927 12.6638C54.5562 13.7434 54.8821 14.6598 55.7373 14.9554C57.0963 15.4221 57.8053 14.2078 58.0614 13.4625C58.4492 12.3341 58.0514 11.4301 57.2178 11.1538ZM57.4663 13.4896C57.1621 14.3727 56.6776 15.005 55.9393 14.7681C55.1731 14.522 55.2868 13.317 55.5554 12.54C55.8216 11.7683 56.286 11.1066 57.0112 11.3388C57.5646 11.5168 57.8718 12.314 57.4663 13.4896Z" fill="black"/>
<path fill-rule="evenodd" clip-rule="evenodd" d="M59.7068 12.7853C59.9003 12.4045 60.0899 12.735 60.1875 12.5438C60.2184 12.4835 60.2014 12.4688 60.117 12.4262C60.0528 12.3937 59.9947 12.3883 59.6527 12.2149C59.501 12.1367 59.2781 11.9982 59.1171 11.9162C59.0343 11.8736 58.9693 11.8914 58.9453 11.9355C58.8571 12.112 59.3795 12.2072 59.162 12.6328L57.9531 15.005C57.642 15.6179 57.474 15.1915 57.3564 15.4221C57.3409 15.4515 57.3517 15.4895 57.4044 15.5165C57.6242 15.6295 57.8045 15.6946 57.9283 15.758C58.1295 15.8602 58.3602 16.0026 58.97 16.3137C59.2982 16.4817 59.7448 16.1906 59.9444 15.7998C59.9932 15.7046 59.9715 15.6752 59.9568 15.6667C59.8044 15.5885 59.525 16.275 58.5304 15.7681C58.2425 15.621 58.3493 15.4477 58.508 15.1373L59.7068 12.7853Z" fill="black"/>
<path fill-rule="evenodd" clip-rule="evenodd" d="M62.1386 14.3061C62.4381 13.8626 62.6045 14.2194 62.7113 14.06C62.7492 14.005 62.7368 13.9826 62.6238 13.9067C62.4125 13.7628 62.2647 13.6916 62.1301 13.6003C62 13.512 61.8669 13.3959 61.7214 13.2976C61.6874 13.2744 61.6038 13.1978 61.5496 13.2775C61.4405 13.4401 61.9505 13.5948 61.6626 14.019L60.1534 16.2588C59.8531 16.7015 59.6658 16.3988 59.5567 16.5629C59.5404 16.5854 59.5257 16.6233 59.559 16.6465C59.6565 16.7115 59.8307 16.8013 59.9893 16.9096C60.2811 17.1062 60.4065 17.2184 60.545 17.3113C60.6302 17.3694 60.6781 17.3732 60.7114 17.3222C60.8136 17.172 60.2501 17.1047 60.6371 16.5312L62.1386 14.3061Z" fill="black"/>
<path fill-rule="evenodd" clip-rule="evenodd" d="M61.9691 17.4545C61.5566 17.9823 61.3236 17.456 61.1866 17.6286C61.1116 17.7262 61.1735 17.7687 61.2377 17.819C61.3801 17.9305 61.5117 18.004 61.7485 18.1897C61.9869 18.3755 62.089 18.4846 62.2314 18.5953C62.3344 18.6758 62.3947 18.7447 62.4768 18.6386C62.5743 18.514 62.0194 18.2873 62.4458 17.7424L64.0123 15.7379C64.1787 15.5251 64.2321 15.5297 64.3768 15.6435L64.6794 15.8787C65.1012 16.1806 64.602 16.5838 64.7437 16.6953C64.8373 16.7672 64.9333 16.5637 64.9681 16.5049L65.2467 16.0676C65.2777 16.0196 65.3272 15.9577 65.2738 15.9159C64.9433 15.6582 64.6926 15.4895 64.174 15.0855C63.6563 14.6799 63.4318 14.4771 63.1014 14.2194C63.0495 14.1776 63 14.2403 62.962 14.2813L62.4466 14.8223C62.3955 14.8742 62.2988 14.9554 62.3723 15.0135C62.5317 15.1389 62.8792 14.4748 63.2801 14.7883L63.5789 15.0204C63.7236 15.1334 63.7422 15.1845 63.5758 15.3966L61.9691 17.4545Z" fill="black"/>
<path fill-rule="evenodd" clip-rule="evenodd" d="M65.8458 17.5048C66.1298 17.2409 66.1468 17.2494 66.5176 17.648C67.1119 18.2834 66.3891 18.4753 66.5338 18.6309C66.6042 18.7067 66.725 18.5628 66.7753 18.5102L67.1708 18.117C67.2079 18.0837 67.2272 18.021 67.187 17.9785C66.9169 17.689 66.6894 17.4769 66.4703 17.2432C66.0013 16.7394 65.7978 16.4871 65.6708 16.3524C65.6275 16.306 65.571 16.3098 65.5331 16.3447C65.3682 16.4987 65.8473 16.7479 65.4766 17.0931L63.5502 18.8902C63.048 19.3576 63.0371 18.9002 62.849 19.0767C62.8243 19.0999 62.822 19.1386 62.8622 19.1812C63.0317 19.363 63.1757 19.4853 63.2708 19.5875C63.4249 19.7523 63.592 19.9652 64.0595 20.4659C64.3118 20.736 64.8296 20.6153 65.1508 20.3165C65.2297 20.243 65.2196 20.2082 65.2073 20.195C65.0919 20.0704 64.5943 20.6192 63.8343 19.8019C63.6129 19.5658 63.7724 19.4397 64.0278 19.2021L64.5548 18.7106C64.794 18.4877 64.8311 18.4289 64.972 18.5806L65.2003 18.8236C65.5184 19.1657 64.9952 19.4815 65.0935 19.5859C65.1686 19.6649 65.2986 19.507 65.3473 19.4551L66.0601 18.7478C66.1685 18.641 66.1244 18.6131 66.105 18.5891C66.0431 18.5241 65.6561 18.8662 65.3915 18.5837L65.1964 18.3763C65.0641 18.2346 65.0935 18.2083 65.2707 18.0427L65.8458 17.5048Z" fill="black"/>
<path fill-rule="evenodd" clip-rule="evenodd" d="M69.1799 20.9968C69.2024 20.9821 69.19 20.9527 69.1768 20.9326C69.1428 20.8807 68.9857 20.9806 68.9369 20.9102C68.861 20.7972 68.9531 20.3189 68.6482 19.8669C68.0136 18.9265 66.7226 19.2369 65.9386 19.7655C65.5702 20.0147 64.489 20.9883 65.2258 22.0819C65.7629 22.8767 66.735 22.797 66.9208 22.6717C66.9486 22.6531 66.9486 22.6028 66.937 22.585C66.8705 22.4875 66.088 22.6461 65.6979 22.0672C65.2181 21.3544 65.9394 20.4326 66.598 19.9884C67.2234 19.5666 68.0809 19.4281 68.4509 19.9768C68.7434 20.4102 68.5592 21.0123 68.2365 21.5015C68.1931 21.568 68.1142 21.6609 68.1544 21.7205C68.197 21.7839 68.2937 21.6965 68.3379 21.6609L69.1799 20.9968Z" fill="black"/>
<path fill-rule="evenodd" clip-rule="evenodd" d="M66.9254 23.2188C66.4045 23.4611 66.314 23.0277 66.1105 23.1221C66.0245 23.1623 66.0872 23.2328 66.1081 23.2777C66.1592 23.3876 66.2304 23.4882 66.2908 23.6182C66.3581 23.7614 66.403 23.9092 66.4966 24.1096C66.5199 24.1623 66.564 24.2668 66.6344 24.2335C66.8743 24.122 66.2846 23.7606 67.2629 23.3047L68.9973 22.496C69.0437 22.4743 69.0824 22.4658 69.0948 22.4906C69.1041 22.5107 69.0886 22.5471 69.0615 22.595L67.3248 25.7953C67.2977 25.8433 67.276 25.8766 67.3031 25.9354C67.3255 25.9834 67.3658 25.9648 67.4788 25.9122L70.3424 24.5779C70.8756 24.3287 70.9159 24.7319 71.0683 24.6615C71.0838 24.6537 71.1349 24.6297 71.1001 24.5531C71.0823 24.516 70.994 24.3828 70.8756 24.1259C70.7425 23.8442 70.7085 23.7165 70.679 23.6515C70.6527 23.5973 70.5962 23.6097 70.5614 23.6267C70.3927 23.7056 70.7162 24.1607 70.2534 24.3767L68.5546 25.1676C68.4276 25.228 68.3611 25.2489 68.3502 25.2233C68.3394 25.1994 68.3773 25.122 68.4245 25.0345L69.909 22.3451C69.9709 22.2266 70.0305 22.2591 69.9693 22.1291C69.8679 21.9124 69.7983 21.8164 69.748 21.7096C69.7139 21.6322 69.6992 21.5487 69.6636 21.4713C69.6412 21.4217 69.5893 21.421 69.5444 21.4419C69.2999 21.5564 69.8455 21.859 68.8649 22.3149L66.9254 23.2188Z" fill="black"/>
<path fill-rule="evenodd" clip-rule="evenodd" d="M70.9445 26.1877C71.453 26.0228 71.3648 26.4059 71.5459 26.3479C71.6109 26.327 71.6147 26.3015 71.5729 26.1737C71.4932 25.9292 71.422 25.7821 71.3717 25.6281C71.3237 25.4772 71.2912 25.3031 71.2355 25.1367C71.2231 25.098 71.2038 24.9857 71.114 25.0152C70.9267 25.0755 71.2324 25.512 70.7456 25.6691L68.1769 26.5042C67.6684 26.6691 67.7079 26.3154 67.5198 26.3758C67.4919 26.3858 67.4587 26.4052 67.4718 26.4446C67.5082 26.5561 67.5887 26.7325 67.6483 26.9167C67.7574 27.2511 67.7876 27.4167 67.8387 27.5754C67.8712 27.6737 67.9045 27.7054 67.9641 27.6868C68.1343 27.6311 67.7334 27.2317 68.3905 27.0173L70.9445 26.1877Z" fill="black"/>
<path fill-rule="evenodd" clip-rule="evenodd" d="M72.1472 29.5334C72.1751 29.5288 72.1751 29.4963 72.1704 29.4754C72.1596 29.4135 71.9762 29.4398 71.9607 29.3562C71.9375 29.2223 72.2145 28.8222 72.1209 28.2843C71.9235 27.1675 70.6179 26.9276 69.6869 27.0916C69.2488 27.1675 67.865 27.6179 68.0941 28.9174C68.2597 29.8624 69.1799 30.1843 69.4013 30.1456C69.4345 30.1394 69.4547 30.0946 69.45 30.0721C69.4307 29.9576 68.6521 29.7834 68.5306 29.0962C68.3812 28.2495 69.4167 27.7015 70.1969 27.563C70.9399 27.4322 71.7788 27.6543 71.8934 28.306C71.9855 28.8214 71.5714 29.2958 71.0784 29.6124C71.0111 29.6557 70.9012 29.7068 70.9136 29.7788C70.9259 29.8539 71.0513 29.8136 71.1055 29.7989L72.1472 29.5334Z" fill="black"/>
<path fill-rule="evenodd" clip-rule="evenodd" d="M39.9295 43.716C39.7847 43.8259 39.777 43.8189 39.6052 43.5914C39.3304 43.2268 39.6857 43.1889 39.6199 43.0999C39.5874 43.0566 39.5255 43.1185 39.4992 43.1401L39.2979 43.305C39.2794 43.3189 39.2685 43.3483 39.2863 43.3723C39.4117 43.538 39.5177 43.6618 39.6199 43.7957C39.8374 44.0851 39.931 44.2268 39.9891 44.3042C40.0092 44.3312 40.0378 44.3328 40.0564 44.3189C40.14 44.2554 39.9124 44.0929 40.1013 43.9505L41.0834 43.2114C41.3381 43.0186 41.3326 43.2477 41.4301 43.1758C41.4425 43.1649 41.4456 43.1456 41.4263 43.1216C41.3481 43.0179 41.2808 42.9443 41.2359 42.8863C41.1647 42.7919 41.0873 42.6719 40.8714 42.3848C40.7545 42.2308 40.4991 42.2478 40.335 42.3708C40.2956 42.4026 40.2994 42.4188 40.3048 42.4281C40.359 42.4993 40.6136 42.2664 40.9658 42.7346C41.068 42.8708 40.9875 42.9196 40.8574 43.0179L40.5889 43.2206C40.4658 43.312 40.4472 43.3375 40.3822 43.2516L40.277 43.1107C40.1284 42.9157 40.39 42.8004 40.3443 42.74C40.311 42.6951 40.2445 42.7625 40.2174 42.7857L39.8544 43.0806C39.7995 43.1247 39.8196 43.1432 39.8289 43.1556C39.8567 43.1936 40.0541 43.055 40.1771 43.2168L40.2661 43.3352C40.3281 43.4157 40.3133 43.4273 40.2228 43.4962L39.9295 43.716Z" fill="black"/>
<path fill-rule="evenodd" clip-rule="evenodd" d="M40.3799 42.1007C40.5525 42.0984 40.6253 42.2091 40.674 42.1727C40.7034 42.1495 40.6771 42.1263 40.6454 42.0876C40.6013 42.0272 40.5479 41.9723 40.4999 41.9104C40.4596 41.8569 40.4279 41.7974 40.3582 41.706C40.3312 41.6697 40.3134 41.6627 40.2963 41.6743C40.2228 41.7316 40.4078 41.8577 40.2963 41.9421C40.2661 41.963 40.1965 41.9823 40.1021 41.9877L39.7577 42.004C39.6779 42.0079 39.6323 42.0117 39.6284 42.0055C39.623 41.9978 39.6416 41.9545 39.6648 41.8926L39.8064 41.5172C39.8296 41.4553 39.8482 41.415 39.8916 41.3825C39.9705 41.3222 40.0208 41.4475 40.0827 41.3995C40.116 41.3748 40.0905 41.35 40.0703 41.3229C40.0278 41.2641 39.9759 41.2053 39.8993 41.1132C39.8296 41.0234 39.8049 40.9692 39.7724 40.9259C39.7143 40.8485 39.6942 40.8315 39.6671 40.8524C39.6214 40.8872 39.7112 40.9692 39.6083 41.237L39.3653 41.8709C39.339 41.9421 39.3305 41.9808 39.2979 42.004C39.2747 42.021 39.2136 42.0172 39.1486 42.0195L38.6602 42.035C38.3568 42.0458 38.3027 41.8964 38.2539 41.9328C38.2315 41.9498 38.2291 41.9669 38.2531 41.9986C38.322 42.093 38.3731 42.1425 38.4157 42.199C38.4551 42.2517 38.4892 42.312 38.555 42.4018C38.5619 42.408 38.5789 42.4421 38.6176 42.4142C38.6687 42.3763 38.5356 42.2517 38.6269 42.182C38.6641 42.1534 38.7059 42.1425 38.8367 42.1387L39.1741 42.1278C39.2066 42.1263 39.2469 42.1193 39.2569 42.1332C39.2662 42.1472 39.2554 42.1735 39.2445 42.1952L39.0557 42.6185C39.0418 42.6502 39.0216 42.6835 39.0038 42.6967C38.928 42.754 38.856 42.6386 38.8042 42.6781C38.7933 42.6874 38.7771 42.6959 38.8088 42.7377C38.8475 42.7888 38.8893 42.8267 38.9977 42.9714C39.1052 43.1138 39.1432 43.1812 39.1788 43.2292C39.2043 43.2624 39.2206 43.2655 39.2415 43.25C39.3188 43.1905 39.1509 43.161 39.3297 42.7269L39.5201 42.2664C39.5402 42.2161 39.5696 42.1371 39.5882 42.1216C39.6037 42.1108 39.6601 42.1123 39.7143 42.1108L40.3799 42.1007Z" fill="black"/>
<path d="M47.5041 19.0775C47.7977 19.0775 48.0358 18.8394 48.0358 18.5458C48.0358 18.2521 47.7977 18.0141 47.5041 18.0141C47.2104 18.0141 46.9724 18.2521 46.9724 18.5458C46.9724 18.8394 47.2104 19.0775 47.5041 19.0775Z" fill="black"/>
<path d="M42.7203 20.1409C43.014 20.1409 43.252 19.9028 43.252 19.6092C43.252 19.3155 43.014 19.0775 42.7203 19.0775C42.4267 19.0775 42.1886 19.3155 42.1886 19.6092C42.1886 19.9028 42.4267 20.1409 42.7203 20.1409Z" fill="black"/>
<path d="M58.4794 21.0897C58.3509 21.3946 58.2139 21.4411 57.7093 21.3521C57.289 21.2778 57.2991 20.7252 57.3231 20.4915L56.6142 20.2848C56.31 20.8916 55.9509 20.9249 55.6707 20.8862C55.1607 20.8165 55.1352 19.9714 55.1653 19.4753L54.4378 19.3282C54.0841 20.3266 53.9255 20.4798 53.4812 20.5619C53.2343 20.6075 53.0455 20.4489 52.9542 20.3498C52.7994 20.1803 52.7065 19.9505 52.6926 19.7338C52.7112 19.627 52.7243 19.5163 52.729 19.4041L51.9922 19.2903C51.9573 19.4149 51.9419 19.5449 51.9403 19.6765C51.8761 19.9683 51.7399 20.2206 51.5665 20.3483C51.4473 20.4373 51.3235 20.4597 51.1749 20.421C50.8212 20.3274 50.3522 20.041 50.3522 18.6402H49.6015C49.6015 18.6835 49.6022 18.7238 49.6038 18.7656H49.6015C49.6015 19.774 49.3546 20.2686 48.7788 20.421C48.6325 20.4605 48.4963 20.428 48.3647 20.3235C48.1828 20.1788 48.0451 19.918 47.9948 19.6479C47.9963 19.538 47.987 19.4288 47.9692 19.3228L47.2247 19.3785C47.2216 19.4822 47.2278 19.5883 47.2417 19.6927C47.2247 19.952 47.1132 20.2229 46.9391 20.3955C46.7975 20.5371 46.6403 20.5936 46.4716 20.5627C46.0212 20.4798 45.7991 20.2763 45.4516 19.2965L44.7233 19.4443C44.7542 19.9628 44.7364 20.8428 44.2643 20.9078C44.0027 20.945 43.687 20.8877 43.3379 20.1919L42.6298 20.3978C42.6778 20.8746 42.492 21.3327 42.2242 21.3993C41.7475 21.5193 41.7475 21.5193 41.5269 21.1377L41.4627 21.0286L40.8164 21.4094L40.8776 21.5146C41.2196 22.1067 41.4828 22.3598 42.4061 22.1276C42.8194 22.0254 43.098 21.7089 43.2505 21.318C43.5724 21.5966 43.9455 21.7096 44.3673 21.6508C44.738 21.6005 45.1466 21.3846 45.3517 20.7476C45.594 21.0371 45.902 21.2205 46.3362 21.3002C46.7487 21.3768 47.1527 21.2437 47.47 20.9256C47.5435 20.8521 47.6093 20.7716 47.6689 20.6834C47.7386 20.7685 47.8144 20.8444 47.8972 20.9094C48.2138 21.1617 48.5946 21.246 48.9707 21.1462C49.4699 21.0146 49.7872 20.7329 49.99 20.404C50.2206 20.7825 50.5511 21.0324 50.9829 21.147C51.3529 21.2445 51.7081 21.1779 52.0131 20.9527C52.1075 20.8831 52.1949 20.7972 52.2739 20.7004C52.3141 20.7546 52.3559 20.8072 52.4024 20.8575C52.7344 21.2205 53.1778 21.3823 53.6167 21.301C54.054 21.2205 54.3442 21.0425 54.5655 20.7747C54.8016 21.4078 55.2536 21.5874 55.5693 21.6307C55.9006 21.6764 56.3131 21.6439 56.6939 21.3629C56.8556 21.7538 57.1621 22.0192 57.5808 22.092C57.9724 22.1601 58.7851 22.304 59.1728 21.3815L58.4794 21.0897Z" fill="black"/>
<path d="M52.3838 19.1092C52.6774 19.1092 52.9155 18.8711 52.9155 18.5775C52.9155 18.2838 52.6774 18.0458 52.3838 18.0458C52.0901 18.0458 51.8521 18.2838 51.8521 18.5775C51.8521 18.8711 52.0901 19.1092 52.3838 19.1092Z" fill="black"/>
<path d="M57.2294 20.0782C57.5231 20.0782 57.7611 19.8401 57.7611 19.5465C57.7611 19.2528 57.5231 19.0148 57.2294 19.0148C56.9358 19.0148 56.6977 19.2528 56.6977 19.5465C56.6977 19.8401 56.9358 20.0782 57.2294 20.0782Z" fill="black"/>
<path fill-rule="evenodd" clip-rule="evenodd" d="M42.7312 23.718L43.2954 23.1755L43.9888 23.4379L43.4556 23.9758L42.7312 23.718Z" fill="black"/>
<path d="M41.4836 23.2916C44.6939 22.2661 46.6063 21.9705 50.0101 21.9743C53.4456 21.9767 55.3642 22.2723 58.5606 23.2916C58.5606 23.2916 58.8269 23.3612 58.9275 23.0462C59.0281 22.7305 58.7773 22.6167 58.7773 22.6167C55.5376 21.5843 53.4905 21.2685 50.0116 21.2654C46.5645 21.2615 44.5221 21.5773 41.2692 22.6167C41.2692 22.6167 41.0122 22.7258 41.1128 23.0416C41.2127 23.3574 41.4836 23.2916 41.4836 23.2916Z" fill="black"/>
<path d="M42.167 25.3658C42.4587 25.3046 42.7575 25.2365 43.0725 25.1638C44.6637 24.7985 46.6427 24.3434 49.9753 24.3411C52.7328 24.3395 54.6034 24.7149 56.9725 25.1916L57.8486 25.3673C57.8486 25.3673 58.1179 25.4068 58.1814 25.0871C58.2449 24.7667 57.9871 24.6723 57.9871 24.6723L57.1126 24.4966C54.7056 24.0129 52.804 23.6298 49.9745 23.6329C46.563 23.6352 44.5399 24.0996 42.9138 24.4726C42.6019 24.5446 42.307 24.6127 42.0214 24.6715C42.0214 24.6715 41.7629 24.7706 41.8287 25.0864C41.8953 25.4021 42.167 25.3658 42.167 25.3658Z" fill="black"/>
<path fill-rule="evenodd" clip-rule="evenodd" d="M47.0614 22.8969L47.6914 22.4402L48.3926 22.8086L47.7471 23.2591L47.0614 22.8969Z" fill="black"/>
<path fill-rule="evenodd" clip-rule="evenodd" d="M58.5684 24.2095C58.7077 23.8682 58.4964 23.4077 58.4964 23.4077C58.2456 23.3287 57.7573 23.3713 57.6358 23.7049C57.505 24.0663 57.6358 24.3612 58.0421 24.6034C58.0421 24.6034 58.2975 24.5136 58.5684 24.2095Z" fill="black"/>
<path fill-rule="evenodd" clip-rule="evenodd" d="M57.2503 23.718L56.6861 23.1755L55.9927 23.4379L56.5252 23.9758L57.2503 23.718Z" fill="black"/>
<path fill-rule="evenodd" clip-rule="evenodd" d="M52.8899 22.8969L52.2592 22.4402L51.5564 22.8086L52.2019 23.2591L52.8899 22.8969Z" fill="black"/>
<path fill-rule="evenodd" clip-rule="evenodd" d="M55.5213 23.29C55.5809 22.9154 55.1653 22.6376 54.6019 22.5478C54.0392 22.4588 53.5416 22.5927 53.482 22.9673C53.4232 23.3427 53.821 23.6151 54.3837 23.7049C54.9463 23.7939 55.4618 23.6654 55.5213 23.29Z" fill="black"/>
<path fill-rule="evenodd" clip-rule="evenodd" d="M62.5209 25.1537C62.6277 25.0895 62.6958 25.0926 62.7492 25.1839C62.9365 25.4958 62.6014 25.7218 62.5379 25.7574C62.4745 25.793 62.1958 25.9361 62.0496 25.6931C62.0225 25.649 62.0171 25.6064 62.0055 25.5902C61.9923 25.5662 61.9613 25.5794 61.9435 25.5894C61.9358 25.5956 61.8816 25.6405 62 25.8379C62.144 26.0778 62.4358 26.1552 62.7337 25.9772C63.0797 25.7682 63.0503 25.4478 62.8893 25.1939C62.8011 25.0515 62.709 24.9138 62.6919 24.8851C62.5991 24.7327 62.5426 24.6158 62.5348 24.6019C62.5054 24.5539 62.469 24.5647 62.4559 24.5725C62.3669 24.6251 62.5906 24.776 62.339 24.9269L61.2926 25.5554C60.9955 25.7341 60.9513 25.5414 60.8825 25.5825C60.8422 25.6072 60.8685 25.6405 60.8732 25.6467C60.8801 25.6591 60.9823 25.8077 61.0311 25.8882C61.0574 25.9331 61.1007 26.0275 61.1843 26.1676C61.2021 26.1954 61.2083 26.2186 61.2493 26.1946C61.3321 26.1443 61.1208 25.9965 61.418 25.8177L62.5209 25.1537Z" fill="black"/>
<path fill-rule="evenodd" clip-rule="evenodd" d="M64.7475 31.0264C64.7924 31.0194 64.8528 31.0117 64.8474 30.9768C64.842 30.9405 64.7653 30.9459 64.7584 30.8948C64.7491 30.8321 64.9008 30.6115 64.8543 30.2888C64.7723 29.7029 64.1322 29.5489 63.671 29.6139C63.4543 29.6441 62.767 29.8477 62.8614 30.528C62.8978 30.781 63.0603 31.0217 63.2337 31.2214C63.25 31.24 63.2646 31.2415 63.3088 31.2353C63.3475 31.2299 63.4225 31.2121 63.5355 31.1959C63.8869 31.1471 63.7615 31.3274 63.8784 31.3112C63.9055 31.3073 63.9148 31.2918 63.914 31.2802C63.9016 31.1966 63.8799 31.1169 63.8676 31.031C63.8513 30.9219 63.8474 30.8135 63.8327 30.7044C63.8265 30.6642 63.8374 30.5875 63.7577 30.5984C63.6532 30.6131 63.8792 30.8631 63.4512 30.9234C63.2925 30.9459 63.0603 30.9714 63.0023 30.5527C62.9481 30.1766 63.4256 29.9436 63.8002 29.891C64.4952 29.7935 64.7065 30.076 64.7367 30.2927C64.8218 30.9025 64.2243 30.9877 64.2313 31.038C64.2383 31.0821 64.2522 31.0937 64.2894 31.0891L64.7475 31.0264Z" fill="black"/>
<path fill-rule="evenodd" clip-rule="evenodd" d="M64.5262 33.6446C64.7166 33.664 64.7174 33.674 64.6879 33.9558C64.6407 34.4062 64.3381 34.191 64.3265 34.3002C64.3211 34.3536 64.4124 34.3512 64.4488 34.3528L64.7228 34.3729C64.7468 34.3752 64.7762 34.3621 64.7785 34.3303C64.8009 34.1253 64.8056 33.9635 64.8249 33.7979C64.8621 33.4403 64.8899 33.2747 64.9008 33.1787C64.9046 33.1462 64.8845 33.1253 64.859 33.1222C64.7499 33.1106 64.8095 33.3846 64.561 33.3583L63.2708 33.2221C62.935 33.1872 63.1021 33.0255 62.9752 33.0123C62.9589 33.0108 62.9442 33.0232 62.9396 33.0533C62.9257 33.1818 62.928 33.2809 62.9202 33.3536C62.9079 33.4697 62.8823 33.609 62.8436 33.9635C62.8258 34.1554 63.0356 34.3172 63.2515 34.3381C63.3026 34.3443 63.3142 34.3288 63.3142 34.3195C63.325 34.2297 62.9582 34.2243 63.0193 33.647C63.0379 33.479 63.1346 33.4984 63.3072 33.5169L63.6586 33.5533C63.8188 33.5703 63.8529 33.5641 63.842 33.6717L63.8234 33.8451C63.7995 34.0873 63.5131 33.9914 63.5054 34.0664C63.4992 34.1229 63.5998 34.1191 63.6354 34.1198L64.1284 34.1547C64.2042 34.1601 64.2011 34.133 64.2034 34.1167C64.2073 34.0711 63.955 34.037 63.9751 33.8366L63.9914 33.6895C64.003 33.5905 64.0216 33.592 64.1392 33.6052L64.5262 33.6446Z" fill="black"/>
<path fill-rule="evenodd" clip-rule="evenodd" d="M62.9574 34.4526C62.8901 34.4511 62.8684 34.4441 62.8413 34.4998C62.7794 34.6252 62.6919 34.7305 62.6649 34.8706C62.606 35.1732 62.8065 35.4309 63.164 35.5005C63.5092 35.5679 63.6547 35.4386 63.8304 35.2173C64.0518 34.9394 64.1106 34.8195 64.2948 34.8559C64.4766 34.8915 64.5595 35.0153 64.53 35.1662C64.4527 35.5625 63.9395 35.4982 63.931 35.5524C63.9202 35.6019 63.9527 35.6159 64.0131 35.6221L64.3815 35.6685C64.4465 35.6762 64.4859 35.6909 64.4929 35.6561C64.4983 35.6267 64.4658 35.5609 64.4712 35.5307C64.4852 35.4611 64.6105 35.3852 64.6477 35.1964C64.6995 34.9271 64.5061 34.6987 64.1934 34.6376C63.9078 34.5827 63.7755 34.6972 63.6338 34.8752C63.3676 35.2088 63.3041 35.3473 63.0735 35.3016C62.856 35.2599 62.7523 35.0966 62.7871 34.9154C62.8351 34.66 63.1114 34.5664 63.3869 34.5432C63.4241 34.5409 63.4489 34.5409 63.4566 34.5037C63.4682 34.4457 63.3846 34.4542 63.3459 34.4542L62.9574 34.4526Z" fill="black"/>
<path fill-rule="evenodd" clip-rule="evenodd" d="M62.7012 35.6383C62.6339 35.6275 62.6138 35.6197 62.5797 35.6693C62.5031 35.7877 62.4033 35.8813 62.3592 36.0175C62.264 36.3101 62.4319 36.591 62.7771 36.704C63.1114 36.8124 63.274 36.7017 63.4736 36.5028C63.7259 36.2551 63.801 36.1429 63.9775 36.201C64.1547 36.2582 64.2205 36.3914 64.1741 36.5384C64.0487 36.9231 63.5479 36.7961 63.5309 36.8472C63.5154 36.8967 63.5448 36.913 63.6037 36.9277L63.9651 37.0183C64.027 37.033 64.0657 37.0515 64.0765 37.0198C64.0858 36.9896 64.0611 36.9215 64.0703 36.8913C64.092 36.8255 64.2259 36.7644 64.2855 36.581C64.3699 36.3209 64.2066 36.0694 63.9032 35.9711C63.6276 35.8813 63.4814 35.9796 63.3196 36.1398C63.0139 36.4362 62.935 36.5663 62.7105 36.4935C62.5008 36.4262 62.4164 36.2513 62.4729 36.0764C62.5534 35.8295 62.8382 35.7691 63.1153 35.7799C63.1517 35.7807 63.1772 35.7846 63.188 35.7482C63.2066 35.6933 63.1238 35.6902 63.0843 35.6847L62.7012 35.6383Z" fill="black"/>
<path fill-rule="evenodd" clip-rule="evenodd" d="M63.5657 37.6328C63.8126 37.721 63.6586 37.8541 63.7484 37.8858C63.7786 37.8967 63.7878 37.8882 63.8126 37.8216C63.8567 37.6962 63.8761 37.6134 63.9055 37.5345C63.9326 37.4571 63.9744 37.375 64.0069 37.2884C64.0138 37.269 64.0425 37.2172 63.9968 37.2009C63.9055 37.1676 63.8877 37.4424 63.6501 37.3565L62.4017 36.9014C62.1533 36.8108 62.2779 36.6777 62.1889 36.6437C62.175 36.6398 62.1548 36.6367 62.1479 36.6576C62.1277 36.7149 62.103 36.8132 62.0681 36.9084C62.0055 37.0794 61.9652 37.1583 61.9358 37.2396C61.9172 37.2899 61.9203 37.3147 61.9497 37.324C62.0325 37.3549 62.0024 37.0631 62.3228 37.1808L63.5657 37.6328Z" fill="black"/>
<path fill-rule="evenodd" clip-rule="evenodd" d="M62.7717 37.6057C62.2431 37.4137 61.7833 37.5832 61.6216 38.0267C61.3662 38.7294 61.9544 39.0963 62.3189 39.2286C62.8723 39.4299 63.3266 39.224 63.479 38.7914C63.6656 38.2628 63.3413 37.8131 62.7717 37.6057ZM63.39 38.6846C63.2933 38.9709 62.8924 39.1296 62.3158 38.9206C61.884 38.7635 61.579 38.512 61.7106 38.1304C61.8468 37.7342 62.4412 37.7914 62.8212 37.9307C63.1981 38.0677 63.5185 38.31 63.39 38.6846Z" fill="black"/>
<path d="M42.4943 43.6866C42.4216 43.4706 42.3697 43.3143 42.2142 43.0612C41.941 42.6162 41.8489 42.4885 41.3891 41.9165C41.3613 41.8825 41.3326 41.8469 41.3048 41.8097L41.7583 41.302L41.8047 41.2494L41.9092 41.1813L41.8906 41.1534L41.8922 41.1527L41.8883 41.1503L41.6577 40.8021C41.3783 40.3834 41.1577 40.0513 40.9108 39.5158C40.5301 38.6931 40.376 38.2148 40.1547 37.3867L40.1462 37.389L40.1501 37.3758L39.8621 37.4478L39.1625 37.6235C38.0333 34.7297 37.7183 32.1587 38.2198 29.8686L39.8358 30.5612L40.0247 30.6417L40.0765 30.4428L40.8296 27.58L40.8977 27.4949L40.8574 27.474L40.8582 27.4724L40.8505 27.4709L40.7057 27.395L39.9953 27.0266L40.2987 25.6622L40.3969 25.5407L37.1023 23.4332L37.0063 23.5826L36.8616 23.4804C35.1597 25.8827 34.1799 28.8779 34.1001 31.9172C34.0173 35.0842 34.8787 38.1149 36.5899 40.6821L36.6843 40.8237L37.8166 40.1365C37.8839 40.2812 38.0132 40.5544 38.1262 40.744C38.1757 40.8284 38.2438 40.9267 38.3057 41.011L37.3995 41.6L37.4962 41.7486L37.3445 41.8399L37.4451 42.0094C38.0619 43.0535 39.5077 45.4976 40.9604 45.0131C41.386 44.8699 41.6554 44.6462 41.9162 44.4303C42.0787 44.2949 42.2474 44.1548 42.4603 44.0271L42.5833 43.9536L42.5369 43.8173L42.4943 43.6866ZM41.0873 41.5203C40.8861 41.2401 40.6756 40.922 40.4852 40.6101L41.3605 41.2161L41.0873 41.5203ZM39.6617 37.8626L39.51 38.4632C39.4357 38.2929 39.3645 38.1234 39.2956 37.9547L39.6617 37.8626ZM39.7871 30.1526L38.3042 29.5172C38.3305 29.415 38.3576 29.3129 38.387 29.2115L39.4202 29.3338L39.4821 29.2571L40.2863 28.2564L39.7871 30.1526ZM38.4961 28.8678C38.7949 27.9817 39.2236 27.1389 39.7863 26.3378L39.2058 28.9514L38.4961 28.8678ZM40.3513 27.6086L39.681 28.443L39.9163 27.3834L40.3513 27.6086ZM36.7958 40.3408C35.1875 37.8649 34.3772 34.9596 34.4561 31.9242C34.5328 29.0133 35.4561 26.1443 37.0574 23.8225L39.8753 25.6258C37.0937 29.1635 36.9003 33.4867 39.2848 38.8301L36.7958 40.3408ZM38.1239 39.9492L39.6013 39.053L39.736 38.9717L39.729 38.9554L39.7507 38.9609L39.9767 38.0639C40.1354 38.5971 40.2979 39.0313 40.5904 39.6644C40.7684 40.0506 40.9317 40.3323 41.1105 40.6117L40.1005 39.9136L40.0943 39.9221L40.0649 39.8679L39.9032 39.9724L38.606 40.816C38.5464 40.7363 38.4791 40.6419 38.4342 40.5629C38.3197 40.3702 38.1811 40.0722 38.1239 39.9492ZM41.691 44.1563C41.434 44.3692 41.2119 44.5541 40.8505 44.6749C39.6687 45.0696 38.2763 42.7145 37.7516 41.8275L37.7377 41.8035L39.9364 40.3725C40.2762 40.9801 40.7344 41.6697 41.1136 42.1394C41.5656 42.7005 41.6476 42.8143 41.9131 43.2462C42.0462 43.4652 42.0888 43.5914 42.1584 43.7988V43.8003C41.9804 43.9172 41.8334 44.0379 41.691 44.1563ZM65.8481 31.9149C65.7691 28.8756 64.7878 25.8797 63.0874 23.4781L62.9427 23.5803L62.8467 23.4309L59.7192 25.4315L59.5521 25.5391L59.6511 25.6606L59.9537 27.0243L59.2432 27.3935L59.1001 27.4686L59.09 27.4709L59.0908 27.4732L59.0513 27.4933L59.1179 27.5761L59.8725 30.4413L59.9243 30.6402L60.1139 30.5597L61.7292 29.867C62.2307 32.1571 61.9157 34.7289 60.7865 37.6227L59.7997 37.375L59.802 37.3882L59.7943 37.3859C59.573 38.214 59.4189 38.6931 59.0374 39.5142C58.7866 40.0575 58.5738 40.3764 58.2797 40.8183L58.039 41.1813L58.0552 41.1921L58.0421 41.1999L58.1899 41.3655L58.6202 41.8461C58.5978 41.8747 58.5738 41.9042 58.5498 41.9336C58.1868 42.384 58.1048 42.4622 57.8316 42.723L57.6149 42.9296C57.3006 43.1711 57.1188 43.4869 57.1528 43.7392C57.1729 43.8924 57.2666 44.0101 57.4183 44.0704C57.7774 44.2144 57.8772 44.2407 57.9655 44.2647C58.015 44.2786 58.0537 44.2887 58.1412 44.3212L58.1582 44.3282C58.1605 44.3282 58.1783 44.3312 58.1783 44.3312L58.5421 44.3847C59.1132 44.4729 59.2138 44.476 59.9251 44.2639C61.2679 43.8607 62.0627 42.1147 62.0828 41.9978L61.9079 41.9669L62 41.8159L61.3639 41.4274C61.4962 41.2409 61.6866 40.9638 61.8197 40.7456C61.9335 40.5552 62.0627 40.2812 62.1285 40.1357L63.2616 40.823L63.356 40.6813C65.0703 38.1126 65.9309 35.0818 65.8481 31.9149ZM60.0334 27.3827L60.2695 28.443L59.5985 27.6086L60.0334 27.3827ZM60.1642 26.3371C60.7254 27.1381 61.1557 27.9809 61.4536 28.8671L60.7447 28.9514L60.1642 26.3371ZM60.1627 30.1526L59.6627 28.2541L60.4684 29.2564L60.5303 29.333L61.5635 29.2107C61.5937 29.3121 61.62 29.4143 61.6471 29.5164L60.1627 30.1526ZM60.6549 37.9547C60.586 38.1234 60.5141 38.2929 60.4405 38.4632L60.2888 37.8634L60.6549 37.9547ZM58.6047 41.2943L59.2649 40.9298C59.1179 41.1774 58.9848 41.3717 58.8431 41.5605L58.6047 41.2943ZM61.6866 42.0373C61.4776 42.4753 60.7935 43.6324 59.826 43.9226C59.1643 44.1207 59.1217 44.1145 58.5985 44.0333L58.2487 43.9814C58.1597 43.9489 58.1079 43.9342 58.0607 43.9211C57.9809 43.9002 57.8912 43.8754 57.5522 43.74C57.5104 43.7229 57.5081 43.7059 57.5065 43.692C57.4918 43.5883 57.6172 43.3708 57.8424 43.2021L57.8509 43.1959L57.8602 43.1881L58.0785 42.9784C58.3571 42.7129 58.4507 42.6239 58.8284 42.1557C59.162 41.7401 59.3973 41.4328 59.7254 40.8392L61.6866 42.0373ZM61.5186 40.5606C61.3879 40.7757 61.192 41.059 61.0628 41.2417L59.751 40.4391L59.6031 40.3478L59.5985 40.3408L59.5938 40.3423L59.59 40.3408L59.5869 40.3462L58.6899 40.8423C58.9306 40.4801 59.1326 40.1543 59.3601 39.6636C59.6534 39.0313 59.816 38.5971 59.9731 38.0631L60.1998 38.9601L60.2215 38.9547L60.2138 38.9709L60.3484 39.0522L61.8259 39.9484C61.771 40.0722 61.634 40.3702 61.5186 40.5606ZM63.1548 40.3408L60.6658 38.8301C63.0511 33.4867 62.8568 29.1635 60.0745 25.6258L62.8932 23.8225C64.4945 26.1443 65.4186 29.0133 65.4936 31.9242C65.5733 34.9596 64.7638 37.8649 63.1548 40.3408Z" fill="black"/>
<path fill-rule="evenodd" clip-rule="evenodd" d="M51.0534 22.7893C51.0603 22.4093 50.6107 22.1918 50.0411 22.181C49.4714 22.1717 48.9947 22.3721 48.9893 22.7529C48.9823 23.1322 49.4142 23.3473 49.9861 23.3574C50.555 23.3674 51.048 23.1685 51.0534 22.7893Z" fill="black"/>
<path fill-rule="evenodd" clip-rule="evenodd" d="M44.3975 23.29C44.3379 22.9154 44.7519 22.6376 45.3154 22.5478C45.8788 22.4588 46.3772 22.5927 46.4368 22.9673C46.4956 23.3427 46.0978 23.6151 45.5336 23.7049C44.9709 23.7939 44.457 23.6654 44.3975 23.29Z" fill="black"/>
<path fill-rule="evenodd" clip-rule="evenodd" d="M37.8174 37.7961C38.0991 37.6583 38.1022 37.954 38.1951 37.9091C38.2462 37.8835 38.226 37.8487 38.2067 37.8108C38.1664 37.7256 38.1231 37.6599 38.0534 37.5182C37.983 37.375 37.9582 37.3007 37.918 37.2156C37.887 37.1537 37.8739 37.108 37.8174 37.1359C37.7508 37.1684 37.9528 37.406 37.6618 37.5476L36.5953 38.0677C36.4823 38.1234 36.4607 38.1072 36.4173 38.0205L36.3299 37.8402C36.1998 37.5995 36.4947 37.5399 36.4552 37.4548C36.4282 37.3998 36.3469 37.4687 36.3198 37.4865L36.1155 37.6157C36.0923 37.6297 36.0598 37.6459 36.0752 37.6784C36.172 37.875 36.2501 38.0128 36.4011 38.3231C36.5528 38.6327 36.6131 38.7805 36.7083 38.9787C36.7246 39.0104 36.7571 38.9941 36.7834 38.9841L37.1108 38.8664C37.1433 38.8564 37.2013 38.844 37.1797 38.7983C37.1332 38.7031 36.8538 38.9167 36.737 38.6768L36.6511 38.4988C36.6077 38.4129 36.61 38.3858 36.7238 38.3301L37.8174 37.7961Z" fill="black"/>
<path fill-rule="evenodd" clip-rule="evenodd" d="M35.9653 36.5345C35.7912 36.5825 35.7858 36.5748 35.7068 36.2993C35.5807 35.862 35.9282 35.9541 35.8972 35.8473C35.8825 35.7954 35.8028 35.8302 35.7703 35.8426L35.5234 35.9231C35.5002 35.9301 35.4801 35.9525 35.4886 35.9827C35.5451 36.1824 35.6 36.3364 35.6457 36.4966C35.7455 36.8449 35.7819 37.0128 35.809 37.1057C35.8183 37.1367 35.8438 37.1498 35.867 37.1436C35.9677 37.1134 35.8129 36.8805 36.0412 36.8155L37.2214 36.4773C37.5303 36.3875 37.4428 36.5995 37.5604 36.567C37.5751 36.5616 37.5836 36.5454 37.5751 36.5152C37.5388 36.3898 37.5016 36.2969 37.483 36.2265C37.449 36.1127 37.4203 35.9742 37.3205 35.629C37.2679 35.4425 37.0225 35.3674 36.8252 35.4239C36.7764 35.4379 36.7741 35.4564 36.7764 35.4657C36.802 35.5516 37.1231 35.4247 37.2849 35.9881C37.3313 36.1514 37.2377 36.1685 37.0814 36.2133L36.7586 36.307C36.6124 36.3488 36.5829 36.3658 36.5535 36.2629L36.5055 36.0934C36.4374 35.8581 36.7238 35.8442 36.7029 35.7707C36.6866 35.7165 36.6007 35.7575 36.5682 35.7683L36.1232 35.9138C36.0559 35.9355 36.0683 35.9587 36.0737 35.975C36.0861 36.0191 36.3206 35.9595 36.3763 36.1553L36.4181 36.2985C36.4467 36.3968 36.4274 36.4006 36.3198 36.4316L35.9653 36.5345Z" fill="black"/>
<path fill-rule="evenodd" clip-rule="evenodd" d="M35.9181 35.2746C36.213 35.2266 36.4057 35.0045 36.3639 34.739C36.3268 34.4983 36.0899 34.3358 36.0249 34.3451C35.9963 34.3489 35.9948 34.3636 35.9963 34.3737C36.0033 34.4108 36.1581 34.5029 36.1797 34.6407C36.2146 34.8613 35.9537 35.03 35.7053 35.0679C35.5443 35.0942 35.3508 35.0834 35.323 34.9038C35.3028 34.7785 35.3849 34.7251 35.5048 34.6763C35.5226 34.6693 35.5428 34.6608 35.5381 34.6407C35.5319 34.6005 35.3996 34.4844 35.3539 34.4929C35.203 34.5169 35.1929 34.7382 35.2053 34.8179C35.2564 35.1314 35.5699 35.328 35.9181 35.2746Z" fill="black"/>
<path fill-rule="evenodd" clip-rule="evenodd" d="M35.3524 32.2724C35.0946 32.2724 35.2069 32.1014 35.107 32.1014C35.0838 32.1014 35.0761 32.1107 35.0761 32.1517C35.0761 32.2531 35.0869 32.3398 35.0869 32.4636C35.0869 32.6099 35.0761 32.671 35.0761 32.7685C35.0761 32.8018 35.0707 32.8235 35.1179 32.8235C35.1945 32.8235 35.1001 32.5627 35.3887 32.5627H35.7587C35.8167 32.5627 35.8779 32.5774 35.8779 32.6455V33.3482C35.8779 33.3977 35.8438 33.407 35.7726 33.407H35.3555C35.1202 33.407 35.1976 33.2252 35.1148 33.2252C35.0892 33.2252 35.0761 33.246 35.0761 33.2801C35.0761 33.3482 35.0869 33.4434 35.0869 33.585C35.0869 33.7081 35.0761 33.7785 35.0761 33.849C35.0761 33.8938 35.0784 33.965 35.1179 33.965C35.2177 33.965 35.1032 33.698 35.3887 33.698H36.5605C36.8848 33.698 36.7904 33.8993 36.8964 33.8993C36.9312 33.8993 36.9359 33.8745 36.9359 33.8466C36.9359 33.729 36.9258 33.6299 36.9258 33.5301C36.9258 33.3606 36.9359 33.2824 36.9359 33.1857C36.9359 33.1106 36.915 33.1145 36.8987 33.1145C36.8043 33.1145 36.8987 33.4078 36.5737 33.4078H36.1611C36.0466 33.4078 36.0195 33.4008 36.0195 33.2925V32.6617C36.0195 32.5588 36.0482 32.565 36.1588 32.565H36.6317C36.8856 32.565 36.8151 32.7376 36.9072 32.7376C36.9258 32.7376 36.9359 32.7229 36.9359 32.6904C36.9359 32.5696 36.9258 32.4775 36.9258 32.3916C36.9258 32.2949 36.9359 32.1556 36.9359 32.0774C36.9359 32.0464 36.9374 32.0271 36.9041 32.0271C36.8012 32.0271 36.8987 32.2732 36.5659 32.2732L35.3524 32.2724Z" fill="black"/>
<path fill-rule="evenodd" clip-rule="evenodd" d="M36.6069 31.5767C36.874 31.6037 36.8043 31.8251 36.9096 31.8351C36.9537 31.8398 36.9444 31.791 36.9467 31.7655C36.9537 31.7013 36.9498 31.6362 36.9575 31.5612C36.9653 31.4791 36.9846 31.4002 36.9955 31.2841C36.9978 31.2531 37.0078 31.1951 36.9707 31.1905C36.8469 31.1781 36.9955 31.4977 36.4916 31.4474L35.6016 31.3584C35.5768 31.3561 35.5598 31.3491 35.5606 31.3344C35.5621 31.3228 35.5768 31.3096 35.5985 31.2965L37.076 30.2989C37.0976 30.2842 37.1154 30.2741 37.1177 30.2408C37.1208 30.2122 37.0999 30.2106 37.0427 30.2052L35.5737 30.0574C35.2982 30.0303 35.3802 29.8368 35.3021 29.8291C35.2943 29.8283 35.2688 29.8252 35.2634 29.8701C35.2618 29.891 35.2634 29.9746 35.2479 30.1232C35.2316 30.2857 35.2146 30.353 35.2123 30.391C35.2076 30.4219 35.2332 30.4312 35.2525 30.4328C35.3392 30.4421 35.3206 30.1495 35.559 30.1743L36.432 30.2617C36.4963 30.2679 36.528 30.2757 36.5264 30.2904C36.5257 30.3043 36.4916 30.3298 36.4514 30.3561L35.2022 31.1881C35.1481 31.2253 35.1318 31.1959 35.1241 31.2709C35.1117 31.3963 35.1155 31.4582 35.1101 31.5194C35.1055 31.5643 35.0916 31.6053 35.0861 31.6502C35.0846 31.6788 35.1039 31.6927 35.1264 31.6943C35.2525 31.7082 35.1094 31.4257 35.6124 31.4768L36.6069 31.5767Z" fill="black"/>
<path fill-rule="evenodd" clip-rule="evenodd" d="M35.7517 28.8857C35.5079 28.833 35.6372 28.679 35.5497 28.6604C35.5188 28.6542 35.5103 28.6643 35.4955 28.734C35.4685 28.8655 35.4607 28.9514 35.4429 29.0342C35.4251 29.1147 35.3957 29.2037 35.3771 29.2935C35.3725 29.3144 35.3524 29.3709 35.3973 29.3794C35.4863 29.3988 35.47 29.1225 35.7037 29.172L36.9366 29.4344C37.1804 29.4862 37.0798 29.6387 37.1688 29.6573C37.182 29.6604 37.2013 29.6604 37.2052 29.6387C37.2168 29.5791 37.2284 29.4777 37.2501 29.3779C37.2888 29.1975 37.3174 29.114 37.3352 29.0281C37.3468 28.9747 37.3406 28.9522 37.312 28.946C37.23 28.929 37.2934 29.2123 36.9769 29.1457L35.7517 28.8857Z" fill="black"/>
<path fill-rule="evenodd" clip-rule="evenodd" d="M36.2981 26.7101C36.2865 26.7054 36.278 26.7202 36.2741 26.731C36.2618 26.7619 36.3415 26.7952 36.3252 26.837C36.2997 26.9036 36.0853 27.015 35.9831 27.2828C35.7703 27.8385 36.2246 28.2742 36.6379 28.4321C36.8306 28.5064 37.4954 28.648 37.7439 28.0018C37.925 27.5312 37.644 27.1559 37.5473 27.1172C37.5326 27.1118 37.5125 27.1265 37.5078 27.1373C37.4854 27.1946 37.7493 27.4678 37.6193 27.8106C37.4575 28.2317 36.9041 28.2224 36.5574 28.0893C36.2293 27.9631 35.9545 27.6528 36.0799 27.3285C36.1766 27.0723 36.4653 26.9601 36.7439 26.9392C36.7819 26.9369 36.8383 26.9407 36.8515 26.9051C36.8662 26.868 36.8074 26.8556 36.7818 26.8479L36.2981 26.7101Z" fill="black"/>
<path fill-rule="evenodd" clip-rule="evenodd" d="M42.1004 49.8023C42.1159 49.6219 42.112 49.6057 42.0687 49.5848C42.0067 49.5538 41.9332 49.6351 41.8597 49.6985L39.0232 52.0753C38.76 52.2951 38.5341 52.1403 38.4745 52.2564C38.4404 52.3207 38.5224 52.3501 38.589 52.3841C38.7283 52.4546 38.8761 52.5041 39.0193 52.5776C39.1702 52.6558 39.3041 52.7487 39.4566 52.8245C39.5564 52.8764 39.6857 52.987 39.7399 52.8818C39.8087 52.7471 39.253 52.5652 39.4372 52.203C39.4984 52.0838 39.6547 51.9414 39.7399 51.8579C40.0177 51.5839 40.1284 51.6141 40.2089 51.6551L41.1469 52.1326C41.2707 52.1961 41.2699 52.258 41.2266 52.7301C41.2103 52.8918 41.198 52.9986 41.1422 53.1085C40.9867 53.415 40.6763 53.1883 40.602 53.333C40.5657 53.4034 40.633 53.4251 40.7197 53.4677C40.8567 53.5396 41.0432 53.6085 41.2537 53.7145C41.5664 53.8755 41.6856 53.9599 41.8566 54.0489C41.9858 54.1147 42.0238 54.1472 42.0671 54.0605C42.1507 53.8956 41.7947 53.9607 41.8225 53.5265L42.1004 49.8023ZM41.3559 51.6094C41.3489 51.6814 41.3489 51.7518 41.3133 51.8207C41.2877 51.8702 41.2243 51.8323 41.1376 51.7882L40.4906 51.4577C40.4039 51.4136 40.335 51.3842 40.3606 51.3354C40.3962 51.265 40.4527 51.224 40.5076 51.176L41.3264 50.4764C41.3775 50.4322 41.3992 50.4369 41.4085 50.4415C41.4332 50.4547 41.4185 50.4477 41.4263 50.5011L41.3559 51.6094Z" fill="black"/>
<path fill-rule="evenodd" clip-rule="evenodd" d="M64.6562 49.7829C64.5417 49.6374 64.4488 49.9888 64.0672 49.7783L60.8097 47.9541C60.6518 47.8628 60.6348 47.8612 60.5969 47.8906C60.5442 47.9324 60.5876 48.0338 60.6131 48.1282L61.5682 51.7038C61.6556 52.0343 61.4219 52.1759 61.5008 52.2773C61.5457 52.3346 61.6061 52.2727 61.6649 52.227C61.7864 52.1334 61.8948 52.0196 62.0217 51.9205C62.1564 51.8145 62.2965 51.734 62.4319 51.6288C62.5201 51.5599 62.6741 51.4879 62.6014 51.395C62.5093 51.2766 62.1092 51.7015 61.86 51.3827C61.7764 51.2758 61.7145 51.0754 61.675 50.9632C61.5426 50.594 61.6169 50.5065 61.6889 50.4516L62.5201 49.8023C62.6292 49.7179 62.6842 49.7465 63.0928 49.9834C63.2337 50.0662 63.3258 50.1234 63.4017 50.221C63.6129 50.4911 63.2763 50.6776 63.3769 50.8053C63.4249 50.8672 63.4728 50.8146 63.5495 50.7558C63.6702 50.6613 63.8142 50.5205 63.9984 50.3765C64.2754 50.1598 64.4039 50.0878 64.5556 49.971C64.6694 49.8804 64.715 49.8595 64.6562 49.7829ZM62.2013 49.6645L61.6285 50.1126C61.5527 50.1722 61.4978 50.2241 61.4622 50.1784C61.4149 50.1165 61.4018 50.0476 61.3809 49.9772L61.0914 48.9385C61.0752 48.8735 61.0891 48.8565 61.0976 48.8495C61.1185 48.8333 61.1054 48.8449 61.1595 48.8596L62.1308 49.3921C62.1943 49.4284 62.2578 49.4579 62.3065 49.5205C62.3406 49.5654 62.2779 49.6057 62.2013 49.6645Z" fill="black"/>
<path fill-rule="evenodd" clip-rule="evenodd" d="M46.4739 18.4142L46.3617 17.8918C46.3176 17.6789 46.1086 17.5427 45.8935 17.5884L45.4415 17.6867L45.3409 17.2107C45.296 16.9979 45.0863 16.8609 44.8726 16.9065L44.3572 17.0164C44.1436 17.0621 44.0066 17.2718 44.0523 17.4847L44.149 17.9583L43.7017 18.0535C43.4888 18.0992 43.3526 18.3089 43.3983 18.5218L43.509 19.0434C43.5554 19.257 43.7636 19.3932 43.9772 19.3476L46.1682 18.8824C46.3818 18.8375 46.5188 18.6278 46.4739 18.4142ZM45.0638 19.0782C44.7581 19.144 44.4547 18.9474 44.3889 18.641C44.3239 18.3329 44.5197 18.0303 44.827 17.9661C45.135 17.9011 45.4361 18.0969 45.5019 18.4034C45.5677 18.7114 45.3719 19.014 45.0638 19.0782Z" fill="black"/>
<path fill-rule="evenodd" clip-rule="evenodd" d="M51.0789 17.0342H50.6215L50.6184 16.5505C50.6184 16.3323 50.442 16.155 50.2245 16.155H49.6943C49.4776 16.155 49.2996 16.3323 49.2996 16.5505V17.0366L48.8368 17.0342C48.6178 17.0342 48.4405 17.2107 48.4405 17.429V17.9622C48.4405 18.1805 48.6178 18.3569 48.8368 18.3569H51.0781C51.2964 18.3569 51.4728 18.1797 51.4728 17.9622V17.429C51.4736 17.2107 51.2972 17.0342 51.0789 17.0342ZM49.9606 18.3198C49.6456 18.3198 49.3902 18.0644 49.3902 17.7509C49.3902 17.4375 49.6456 17.1821 49.9606 17.1821C50.2748 17.1821 50.5279 17.4375 50.5279 17.7509C50.5279 18.0651 50.2748 18.3198 49.9606 18.3198Z" fill="black"/>
<path fill-rule="evenodd" clip-rule="evenodd" d="M56.2481 18.0535L55.8015 17.9583L55.899 17.4847C55.9447 17.2711 55.8077 17.0613 55.5941 17.0164L55.0779 16.9065C54.865 16.8609 54.6553 16.9979 54.6097 17.2107L54.5083 17.6867L54.0563 17.5884C53.8434 17.5427 53.6329 17.6789 53.5888 17.8918L53.4766 18.4142C53.4317 18.6278 53.5679 18.8375 53.7815 18.8824L55.9733 19.3476C56.1862 19.3932 56.3967 19.2578 56.4408 19.0434L56.5515 18.5218C56.5971 18.3089 56.4609 18.0992 56.2481 18.0535ZM55.5608 18.641C55.4943 18.9474 55.1932 19.144 54.8867 19.0782C54.5787 19.014 54.3837 18.7106 54.4487 18.4034C54.5144 18.0969 54.8155 17.9003 55.1228 17.9661C55.43 18.0311 55.6251 18.3329 55.5608 18.641Z" fill="black"/>
<path fill-rule="evenodd" clip-rule="evenodd" d="M60.0218 19.0333C59.8338 18.9203 59.5907 18.9815 59.4793 19.168L59.2293 19.5852L58.8323 19.3452C58.6473 19.233 58.4035 19.2934 58.2913 19.4807L58.0173 19.9373C57.9043 20.1254 57.9662 20.3676 58.152 20.4798L59.0118 21.0278C59.1991 21.1408 59.4406 21.0804 59.5536 20.8931L59.8284 20.4365C59.9406 20.2492 60.0257 20.0797 60.0257 20.0797L60.4731 19.3058L60.0218 19.0333ZM59.107 20.9527C58.8385 20.791 58.7518 20.4419 58.9136 20.1726C59.0753 19.9025 59.4244 19.8166 59.6937 19.9783L59.107 20.9527Z" fill="black"/>
<path fill-rule="evenodd" clip-rule="evenodd" d="M41.9332 19.9373L41.6585 19.4807C41.547 19.2934 41.3055 19.233 41.1183 19.3452L40.7228 19.5852L40.4712 19.168C40.359 18.9815 40.116 18.9203 39.9295 19.0333L39.4775 19.305L39.9264 20.0789C39.9264 20.0789 40.01 20.2484 40.123 20.4357L40.3977 20.8924C40.5099 21.0797 40.7514 21.14 40.9395 21.027L41.7985 20.4791C41.9866 20.3676 42.0478 20.1246 41.9332 19.9373ZM40.8427 20.9527L40.2569 19.9783C40.5262 19.8166 40.8745 19.9025 41.037 20.1726C41.1987 20.4419 41.1113 20.7902 40.8427 20.9527Z" fill="black"/>
<path fill-rule="evenodd" clip-rule="evenodd" d="M37.0605 18.7447C37.0272 18.7153 36.9831 18.7137 36.956 18.7447C36.9266 18.7779 36.9227 18.8344 36.8925 18.8685C36.8693 18.8956 36.8128 18.9606 36.7184 18.932C35.9715 18.7114 35.1039 18.4653 35.0776 18.4428C35.0358 18.4057 35.083 18.2741 35.0714 18.0907C35.0552 17.9026 34.9832 17.6681 34.7123 17.4321C34.5165 17.2626 33.8579 16.8083 33.2117 17.5536C33.0135 17.7803 32.8293 18.0264 32.632 18.254C32.4454 18.4676 32.4052 18.48 32.269 18.6363C32.2342 18.6773 32.2256 18.7307 32.2674 18.7671C32.4207 18.8995 32.5863 18.3925 33.0607 18.8058L34.9306 20.4303C35.4646 20.8955 35.0861 21.0495 35.2216 21.1679C35.3059 21.2414 35.3555 21.1586 35.3872 21.1207C35.5358 20.9512 35.6666 20.7662 35.8253 20.5828C35.9499 20.4404 36.0466 20.3638 36.0969 20.3057C36.1642 20.2275 36.1627 20.1772 36.1248 20.1455C35.9715 20.0116 35.8523 20.5 35.3988 20.1053L34.6636 19.4668C34.515 19.3375 34.4685 19.3321 34.6249 19.1518C34.7711 18.9815 34.8632 18.9536 35.1179 19.0388L36.0373 19.3367C36.3763 19.4459 36.737 19.5689 36.9707 19.3004C37.0899 19.1657 37.1928 18.8592 37.0605 18.7447ZM34.4902 18.9149C34.4012 19.0163 34.2921 19.1425 34.1853 19.0496L33.327 18.3035C33.0716 18.0822 33.1637 17.9777 33.2728 17.8515C33.5708 17.5087 34.0506 17.5923 34.4662 17.9529C34.7185 18.1704 34.9383 18.3979 34.4902 18.9149Z" fill="black"/>
<path fill-rule="evenodd" clip-rule="evenodd" d="M46.0398 14.2511C45.9817 14.0739 45.8184 14.3579 45.5584 14.0221L43.3372 11.1213C43.2296 10.9797 43.218 10.9712 43.1793 10.9836C43.1243 11.0021 43.1344 11.1097 43.1336 11.2064L43.0237 14.8215C43.0144 15.1559 42.7861 15.1938 42.8256 15.3184C42.8488 15.3865 42.9138 15.3548 42.9742 15.3354C43.098 15.2944 43.2156 15.2333 43.3441 15.1915C43.4803 15.1474 43.6165 15.1265 43.7528 15.0816C43.8425 15.0522 43.9865 15.0468 43.9524 14.9345C43.9045 14.7898 43.4687 15.0259 43.3449 14.6412C43.3039 14.512 43.3023 14.3053 43.2969 14.1885C43.2807 13.803 43.365 13.7527 43.4378 13.7295L44.2814 13.4555C44.3928 13.4192 44.43 13.4656 44.7086 13.8371C44.8022 13.9663 44.8641 14.053 44.9021 14.1707C45.0089 14.4965 44.6846 14.5375 44.7357 14.6931C44.7604 14.7666 44.8115 14.7387 44.8897 14.7132C45.0135 14.6729 45.1644 14.6002 45.3541 14.5391C45.6358 14.4477 45.7588 14.4307 45.9136 14.3812C46.0282 14.3432 46.07 14.3425 46.0398 14.2511ZM44.0531 13.2102L43.4718 13.399C43.3936 13.4238 43.3348 13.4493 43.3178 13.3952C43.2938 13.3201 43.3008 13.2528 43.3015 13.1823L43.3232 12.1274C43.324 12.0624 43.3402 12.0516 43.3488 12.0477C43.3704 12.0408 43.358 12.0454 43.3967 12.0795L44.0623 12.9339C44.1057 12.9919 44.1498 13.0415 44.1746 13.1173C44.1924 13.1707 44.1304 13.1846 44.0531 13.2102Z" fill="black"/>
<path fill-rule="evenodd" clip-rule="evenodd" d="M72.5489 31.4606C72.5427 31.4017 72.4344 31.3909 72.3399 31.3685L68.8162 30.4885C68.4896 30.408 68.5004 30.175 68.3704 30.1874C68.2984 30.1959 68.3154 30.2656 68.3224 30.3298C68.3371 30.4599 68.3704 30.5883 68.3843 30.7238C68.3998 30.8677 68.3905 31.0047 68.4052 31.1487C68.4145 31.2431 68.389 31.3863 68.5058 31.3747C68.6583 31.3584 68.5205 30.8832 68.9237 30.8422C69.0592 30.829 69.2627 30.8724 69.3788 30.8917C69.7604 30.9575 69.7921 31.0496 69.8006 31.127L69.8889 32.0132C69.9005 32.1308 69.8455 32.1587 69.4214 32.3506C69.2743 32.4156 69.1784 32.4574 69.053 32.4698C68.7109 32.5046 68.7403 32.1788 68.5762 32.1958C68.4973 32.2028 68.5151 32.2608 68.5236 32.3413C68.5368 32.4721 68.5755 32.6354 68.5948 32.8343C68.6242 33.1307 68.6149 33.2553 68.6312 33.4171C68.6444 33.5386 68.6351 33.5796 68.731 33.5703C68.9176 33.5518 68.6738 33.3304 69.0592 33.147L72.3794 31.5875C72.5427 31.5109 72.5535 31.5016 72.5489 31.4606ZM71.429 31.4412L70.4461 31.9118C70.3818 31.9412 70.323 31.9737 70.2433 31.9814C70.1876 31.9868 70.1876 31.9234 70.1791 31.8429L70.1172 31.2307C70.1087 31.1502 70.0963 31.0875 70.1535 31.0821C70.2317 31.0736 70.2967 31.0953 70.3664 31.11L71.3957 31.3569C71.4607 31.3739 71.4685 31.3901 71.4685 31.4002C71.4723 31.4234 71.4708 31.4103 71.429 31.4412Z" fill="black"/>
<path fill-rule="evenodd" clip-rule="evenodd" d="M64.4147 28.3307C64.2367 27.7983 63.7058 27.6442 63.1277 27.8315C62.5921 28.0057 62.3344 28.4221 62.4807 28.8702C62.7121 29.5822 63.4009 29.5087 63.7716 29.3895C64.3288 29.2076 64.5618 28.7649 64.4147 28.3307ZM63.5773 29.1488C63.1408 29.2912 62.7461 29.2804 62.6145 28.8996C62.476 28.5025 62.9814 28.1829 63.366 28.0575C63.7491 27.9329 64.1485 27.9267 64.2793 28.3013C64.3784 28.5869 64.1609 28.9592 63.5773 29.1488Z" fill="black"/>
<path fill-rule="evenodd" clip-rule="evenodd" d="M63.6454 26.5538C63.5789 26.4114 63.4999 26.272 63.4349 26.1289C63.3715 25.995 63.3746 25.9733 63.3281 25.875C63.3165 25.8495 63.2941 25.834 63.2693 25.8448C63.1787 25.8874 63.3792 26.0762 63.099 26.207L61.9923 26.7225C61.6765 26.8703 61.6788 26.659 61.5976 26.6962C61.5488 26.7202 61.5767 26.7604 61.5867 26.7852C61.6371 26.8904 61.6966 26.9926 61.75 27.1079C61.7918 27.1961 61.8081 27.2588 61.8251 27.2952C61.8468 27.344 61.8708 27.3548 61.8932 27.3432C61.9838 27.2998 61.7825 27.1381 62.0511 27.0135L62.4861 26.8107C62.5743 26.7697 62.5851 26.7488 62.6378 26.8618C62.6873 26.967 62.6819 27.0166 62.5936 27.1172L62.281 27.4809C62.1664 27.6141 62.0395 27.7565 62.1184 27.9244C62.1579 28.0095 62.2787 28.1241 62.3553 28.0869C62.3762 28.0784 62.3855 28.0591 62.3769 28.0397C62.3661 28.0188 62.3421 28.0041 62.3313 27.9825C62.3228 27.9662 62.3042 27.9252 62.3359 27.8873C62.5805 27.5862 62.8614 27.2356 62.8761 27.2286C62.9017 27.2163 62.9535 27.2673 63.0394 27.3029C63.1277 27.3362 63.2492 27.354 63.4102 27.2797C63.5278 27.2271 63.8629 27.0189 63.6454 26.5538ZM63.2205 27.0522C63.0727 27.1218 62.9257 27.1745 62.774 26.851C62.7446 26.7875 62.7082 26.7085 62.7717 26.6799L63.2786 26.4423C63.428 26.3727 63.4589 26.4384 63.4961 26.5166C63.5967 26.7318 63.4667 26.9376 63.2205 27.0522Z" fill="black"/>
<path fill-rule="evenodd" clip-rule="evenodd" d="M64.9797 31.5689C64.8791 31.5596 64.9565 31.8251 64.6462 31.7941L63.4264 31.6718C63.0766 31.637 63.1873 31.4559 63.099 31.4466C63.0433 31.4412 63.0472 31.4915 63.0449 31.5171C63.0325 31.6339 63.0325 31.7523 63.0193 31.8785C63.01 31.9776 62.9922 32.0395 62.9884 32.0789C62.983 32.1331 62.9984 32.154 63.024 32.1556C63.1238 32.1664 63.0333 31.9226 63.3289 31.9528L63.8095 32.0008C63.9063 32.0093 63.9264 31.9985 63.9148 32.1223C63.9024 32.2391 63.8738 32.2794 63.7461 32.3204L63.2879 32.4744C63.1207 32.5309 62.9373 32.589 62.9195 32.7739C62.9102 32.8684 62.9559 33.0293 63.041 33.0371C63.0634 33.0394 63.0812 33.027 63.0828 33.0061C63.0859 32.9829 63.072 32.9574 63.0727 32.9334C63.0766 32.9156 63.0805 32.8699 63.1254 32.8529C63.4922 32.719 63.914 32.5596 63.931 32.5611C63.9581 32.5642 63.9775 32.6346 64.0332 32.7097C64.092 32.784 64.1888 32.8622 64.3675 32.88C64.4937 32.8939 64.8892 32.8854 64.9403 32.3715C64.9565 32.2144 64.9619 32.0534 64.9774 31.8963C64.9929 31.7485 65.0053 31.7314 65.0161 31.6231C65.0192 31.5968 65.0068 31.572 64.9797 31.5689ZM64.8311 32.2655C64.8095 32.5023 64.5897 32.613 64.3188 32.5859C64.1547 32.5704 64.0007 32.5402 64.0371 32.1834C64.044 32.113 64.0525 32.0263 64.1214 32.0333L64.6818 32.0898C64.8474 32.106 64.8404 32.1788 64.8311 32.2655Z" fill="black"/>
<path fill-rule="evenodd" clip-rule="evenodd" d="M38.9806 25.5143C38.9048 25.4718 38.9326 25.6335 38.7322 25.6095L37.0179 25.3874C36.9343 25.3766 36.9273 25.3781 36.9165 25.3967C36.9018 25.4246 36.9397 25.4586 36.9676 25.4935L38.0472 26.8246C38.1471 26.9477 38.0759 27.0452 38.1277 27.0738C38.1571 27.0901 38.1711 27.0553 38.1866 27.0259C38.2206 26.9655 38.2454 26.9013 38.2787 26.8393C38.315 26.7728 38.3591 26.7163 38.3955 26.649C38.4195 26.6064 38.4706 26.5507 38.4226 26.5243C38.3599 26.4895 38.274 26.7341 38.1084 26.642C38.0527 26.611 37.9884 26.5375 37.9497 26.4973C37.8259 26.3657 37.8406 26.3185 37.8592 26.2821L38.0844 25.8758C38.1146 25.8224 38.144 25.8247 38.3591 25.8557C38.435 25.8665 38.4837 25.875 38.5348 25.9036C38.6749 25.981 38.5681 26.1134 38.6347 26.1505C38.6672 26.1683 38.6772 26.1389 38.6981 26.1018C38.7322 26.0414 38.7639 25.9594 38.8158 25.8696C38.8916 25.7326 38.9303 25.6823 38.9721 25.608C39.0046 25.5523 39.0201 25.5352 38.9806 25.5143ZM37.9273 25.8696L37.7702 26.1521C37.7501 26.1877 37.7361 26.2194 37.7137 26.2063C37.6812 26.1885 37.6641 26.1621 37.6402 26.1366L37.3221 25.752C37.3035 25.728 37.3058 25.7187 37.3074 25.714C37.3143 25.7047 37.3097 25.7102 37.336 25.7086L37.846 25.7698C37.8785 25.7744 37.9103 25.7759 37.9428 25.7945C37.966 25.8054 37.9466 25.8332 37.9273 25.8696Z" fill="black"/>
<path d="M57.8084 25.3549L57.6342 25.3526H41.5919V34.2096C41.5919 38.1196 41.8303 41.3523 44.8278 44.4025C46.5924 46.198 47.7927 47.0199 49.7818 48.3821L49.9033 48.4649L50.1216 48.6143L50.3266 48.4455C50.9388 47.9386 51.476 47.5524 51.9945 47.1778C53.0602 46.4101 53.9804 45.746 55.153 44.3483C58.008 40.9414 58.5111 38.3641 58.5111 34.2081V25.3549H57.8084ZM54.6151 43.8978C53.5006 45.229 52.6121 45.8683 51.5835 46.6082C51.0565 46.989 50.7152 47.2142 50.0844 47.7366C48.1875 46.4387 47.0173 45.6276 45.3285 43.9102C42.5137 41.0443 42.2962 38.0824 42.2962 34.2096V26.0553L57.8084 26.0561V34.2096C57.8084 38.2744 57.3486 40.6364 54.6151 43.8978Z" fill="black"/>
<path fill-rule="evenodd" clip-rule="evenodd" d="M67.0833 16.6875L66.8 16.179L66.5408 16.9878L66.711 17.2966L67.0833 16.6875Z" fill="black"/>
<path fill-rule="evenodd" clip-rule="evenodd" d="M46.9259 13.437C47.066 14.0948 46.5088 13.9354 46.5552 14.1505C46.5807 14.272 46.655 14.2511 46.7355 14.2341C46.912 14.1962 47.0521 14.1428 47.3485 14.0793C47.6441 14.0174 47.7958 14.0074 47.9731 13.9702C48.1008 13.9423 48.1921 13.94 48.165 13.8077C48.1325 13.6537 47.6008 13.9346 47.4561 13.2543L46.9244 10.756C46.8679 10.4906 46.9058 10.4534 47.0877 10.4155L47.463 10.335C47.9669 10.2057 47.956 10.8489 48.1325 10.8117C48.2463 10.787 48.1526 10.5827 48.1294 10.5176L47.9731 10.02C47.9568 9.96582 47.9406 9.88765 47.8748 9.90158C47.463 9.98904 47.1728 10.0742 46.5266 10.2112C45.8811 10.3481 45.58 10.3899 45.1683 10.4766C45.1025 10.4913 45.1188 10.5687 45.1257 10.6244L45.2101 11.369C45.2155 11.4433 45.2155 11.5702 45.3084 11.5501C45.5081 11.5075 45.2217 10.8125 45.7201 10.7065L46.0908 10.626C46.2727 10.5881 46.3238 10.6066 46.3795 10.8713L46.9259 13.437Z" fill="black"/>
<path fill-rule="evenodd" clip-rule="evenodd" d="M41.0022 15.5196C41.3125 16.1156 40.7344 16.1117 40.8365 16.3075C40.8938 16.4182 40.9588 16.3764 41.0316 16.34C41.1926 16.2564 41.3141 16.1667 41.5811 16.0266C41.8504 15.8857 41.9928 15.8377 42.153 15.7541C42.2691 15.6922 42.3581 15.6659 42.2939 15.5452C42.2211 15.4051 41.7838 15.8184 41.4634 15.2023L40.2816 12.9385C40.1555 12.6978 40.1833 12.6514 40.3474 12.567L40.6879 12.3883C41.1376 12.129 41.3001 12.7512 41.4603 12.6677C41.564 12.6135 41.417 12.4417 41.3783 12.3852L41.0943 11.9479C41.0641 11.8999 41.0277 11.8295 40.9673 11.8604C40.5943 12.0547 40.3366 12.2149 39.7515 12.5214C39.1664 12.8271 38.887 12.9455 38.5155 13.1405C38.4551 13.1715 38.4923 13.2419 38.5139 13.2938L38.7957 13.9888C38.8212 14.0577 38.856 14.1815 38.9388 14.1358C39.1192 14.0422 38.6571 13.4486 39.1099 13.2133L39.4465 13.0376C39.6106 12.9517 39.664 12.9563 39.7894 13.1955L41.0022 15.5196Z" fill="black"/>
<path fill-rule="evenodd" clip-rule="evenodd" d="M47.7285 50.5747L47.1527 50.6133L47.7726 51.1884L48.1209 51.1629L47.7285 50.5747Z" fill="black"/>
<path fill-rule="evenodd" clip-rule="evenodd" d="M42.1019 84.6862L38.8715 91.8646C38.9953 91.8452 39.1292 91.8352 39.2546 91.8352C39.3784 91.8352 39.5023 91.8352 39.6168 91.8646C39.8962 90.9281 40.2685 90.0218 40.6307 89.1163L41.9588 86.0074L43.2621 89.1163L43.769 90.3306L44.2357 91.5666L44.3293 91.8646C44.5159 91.8352 44.7125 91.8352 44.899 91.8352C45.0754 91.8352 45.2511 91.8452 45.4283 91.8646L45.2511 91.4946L42.3109 84.6855L42.1019 84.6862Z" fill="black"/>
<path d="M41.4178 91.8274C41.8636 91.8274 42.225 91.4681 42.225 91.0248C42.225 90.5816 41.8636 90.2223 41.4178 90.2223C40.972 90.2223 40.6106 90.5816 40.6106 91.0248C40.6106 91.4681 40.972 91.8274 41.4178 91.8274Z" fill="black"/>
<path fill-rule="evenodd" clip-rule="evenodd" d="M81.7503 84.6862L78.5183 91.8646C78.6437 91.8452 78.7776 91.8352 78.9022 91.8352C79.026 91.8352 79.1506 91.8352 79.2652 91.8646C79.5446 90.9281 79.9184 90.0218 80.2806 89.1163L81.6071 86.0074L83.4182 90.3306L83.8841 91.5666L83.9769 91.8646C84.1635 91.8352 84.36 91.8352 84.5473 91.8352C84.723 91.8352 84.8987 91.8452 85.0752 91.8646L84.8987 91.4946L81.9577 84.6855L81.7503 84.6862Z" fill="black"/>
<path d="M81.0654 91.8274C81.5112 91.8274 81.8726 91.4681 81.8726 91.0248C81.8726 90.5816 81.5112 90.2223 81.0654 90.2223C80.6196 90.2223 80.2581 90.5816 80.2581 91.0248C80.2581 91.4681 80.6196 91.8274 81.0654 91.8274Z" fill="black"/>
<path fill-rule="evenodd" clip-rule="evenodd" d="M81.7503 74.125L78.5183 81.3033C78.6437 81.284 78.7776 81.2731 78.9022 81.2731C79.026 81.2731 79.1506 81.2731 79.2652 81.3033C79.5446 80.3661 79.9184 79.4606 80.2806 78.5535L81.6071 75.4446L83.4182 79.7686L83.8841 81.0046L83.9769 81.3033C84.1635 81.2731 84.36 81.2731 84.5473 81.2731C84.723 81.2731 84.8987 81.284 85.0752 81.3033L84.8987 80.9326L81.9577 74.1242H81.7503V74.125Z" fill="black"/>
<path d="M81.0654 81.2669C81.5112 81.2669 81.8726 80.9076 81.8726 80.4644C81.8726 80.0211 81.5112 79.6618 81.0654 79.6618C80.6196 79.6618 80.2581 80.0211 80.2581 80.4644C80.2581 80.9076 80.6196 81.2669 81.0654 81.2669Z" fill="black"/>
<path d="M74.3839 70.1268C74.3839 69.6841 74.7461 69.3242 75.1911 69.3242C75.6385 69.3242 75.9991 69.6841 75.9991 70.1268C75.9991 70.5703 75.6385 70.9302 75.1911 70.9302C74.7461 70.9302 74.3839 70.571 74.3839 70.1268ZM75.8761 63.789H76.0843L79.0245 70.5974L79.2017 70.9681C79.0245 70.948 78.8496 70.9371 78.6723 70.9371C78.4874 70.9371 78.2892 70.9371 78.1035 70.9681L78.0106 70.6693L77.5439 69.4333L77.037 68.2183L75.7337 65.1093L74.4048 68.2183C74.0442 69.1238 73.6711 70.0316 73.3909 70.9681C73.2779 70.9371 73.1526 70.9371 73.028 70.9371C72.9041 70.9371 72.7695 70.948 72.6449 70.9681L75.8761 63.789Z" fill="black"/>
<path fill-rule="evenodd" clip-rule="evenodd" d="M14.9396 91.8468H16.9635C18.0632 91.8468 19.2156 91.8259 20.0972 91.062C20.8758 90.3801 21.4051 89.4514 21.4051 88.0165C21.4051 87.0344 21.0731 86.0755 20.2945 85.4354C19.4231 84.7125 18.3751 84.8155 17.2947 84.8155H14.9396V91.8468ZM15.8529 85.2288C16.2994 85.2179 16.7352 85.1877 17.1608 85.1877C19.4858 85.1877 20.3882 85.9818 20.3882 88.1705C20.3882 89.4297 20.0144 90.5752 18.8937 91.1324C18.0524 91.5565 16.7661 91.4327 15.8521 91.3801L15.8529 85.2288Z" fill="black"/>
<path fill-rule="evenodd" clip-rule="evenodd" d="M24.0861 85.3015H24.8856L25.9226 85.3216C26.2338 85.3418 26.5464 85.3735 26.8576 85.4354C26.8467 85.3317 26.8258 85.228 26.8258 85.1251C26.8258 85.0221 26.846 84.93 26.8576 84.8163H23.1736V91.8468H26.9203C26.9094 91.7423 26.8893 91.6401 26.8893 91.5372C26.8893 91.4342 26.9094 91.3406 26.9203 91.2268C26.5983 91.2787 26.2872 91.3096 25.9652 91.3205C25.3422 91.3406 24.7199 91.3816 24.0868 91.3615V88.347H25.6959C26.007 88.347 26.3088 88.3888 26.6192 88.3988C26.6076 88.2858 26.5875 88.1914 26.5875 88.1094C26.5875 88.0173 26.6076 87.9236 26.6192 87.8408C26.3081 87.8517 26.0062 87.8911 25.6959 87.8911H24.0868L24.0861 85.3015Z" fill="black"/>
<path fill-rule="evenodd" clip-rule="evenodd" d="M35.9274 89.5025C35.7618 89.9258 35.5435 90.3275 35.3462 90.7509H35.2533L33.9763 87.6233L33.2813 85.8162C33.1575 85.4772 33.0336 85.1359 32.8974 84.8155C32.7109 84.8263 32.5553 84.8464 32.3889 84.8464C32.2233 84.8464 32.0461 84.8263 31.8905 84.8155C32.3472 85.6931 33.8618 89.4506 35.0451 91.8762C35.1179 91.8653 35.1906 91.846 35.2634 91.846C35.3261 91.846 35.398 91.8653 35.4708 91.8762C35.8446 90.7307 38.1386 85.4447 38.4698 84.8155C38.3352 84.8263 38.2105 84.8464 38.096 84.8464C37.9606 84.8464 37.8367 84.8263 37.7114 84.8155L37.6402 84.9811L37.0164 86.7047L35.9274 89.5025Z" fill="black"/>
<path fill-rule="evenodd" clip-rule="evenodd" d="M48.2556 84.8163C48.0892 84.8271 47.9444 84.8472 47.7989 84.8472C47.6434 84.8472 47.487 84.8271 47.3423 84.8163V91.8468H51.1199C51.1091 91.7423 51.089 91.6401 51.089 91.5372C51.089 91.4342 51.1091 91.3406 51.1199 91.2268C50.7864 91.2686 50.4652 91.3096 50.1347 91.3205C49.5101 91.3406 48.8886 91.3816 48.2556 91.3615V84.8163Z" fill="black"/>
<path fill-rule="evenodd" clip-rule="evenodd" d="M55.9184 84.2273L54.612 82.9371C54.4874 82.8141 54.3628 82.6693 54.218 82.5664C54.1747 82.5246 54.1344 82.5145 54.0818 82.4944C53.9054 82.4526 53.7188 82.5447 53.6569 82.7104C53.626 82.8032 53.626 82.8953 53.667 82.9882C53.7297 83.0919 53.8334 83.1445 53.927 83.2157L55.5562 84.2273H55.9184ZM54.1871 85.3015H54.985L56.0236 85.3216C56.3348 85.3418 56.6459 85.3735 56.9578 85.4354C56.947 85.3317 56.9253 85.228 56.9253 85.1251C56.9253 85.0221 56.947 84.93 56.9578 84.8163H53.273V91.8468H57.0197C57.0081 91.7423 56.988 91.6401 56.988 91.5372C56.988 91.4342 57.0081 91.3406 57.0197 91.2268C56.6977 91.2787 56.3858 91.3096 56.0654 91.3205C55.4416 91.3406 54.8202 91.3816 54.1871 91.3615V88.347H55.7945C56.1064 88.347 56.4067 88.3888 56.7186 88.3988C56.7078 88.2858 56.6861 88.1914 56.6861 88.1094C56.6861 88.0173 56.7078 87.9236 56.7186 87.8408C56.4067 87.8517 56.1064 87.8911 55.7945 87.8911H54.1871V85.3015Z" fill="black"/>
<path fill-rule="evenodd" clip-rule="evenodd" d="M65.3365 84.8163C65.2328 84.8271 65.1399 84.8472 65.047 84.8472C64.9418 84.8472 64.8489 84.8271 64.7561 84.8163V90.1325H64.6523L59.7223 84.8163H59.3183V91.8769C59.4112 91.8661 59.5041 91.8468 59.6093 91.8468C59.7022 91.8468 59.7951 91.8661 59.8988 91.8769V86.3138H60.0025L64.4859 91.2477C64.7042 91.4853 64.9132 91.733 65.0262 91.8769H65.3365V84.8163Z" fill="black"/>
<path fill-rule="evenodd" clip-rule="evenodd" d="M73.5101 90.7617C73.3027 90.9374 72.4305 91.5983 71.3098 91.5983C69.6706 91.5983 68.5283 90.3275 68.5283 88.3462C68.5283 86.5925 69.4732 85.0531 71.3826 85.0531C72.4506 85.0531 73.2199 85.755 73.3646 85.9408L73.4374 85.93C73.49 85.6614 73.5519 85.3936 73.6556 85.1359C72.9606 84.8356 72.1828 84.6615 71.4244 84.6615C69.2349 84.6615 67.5121 85.9818 67.5121 88.3052C67.5121 90.5659 68.8819 92 71.1643 92C71.9545 92 72.8035 91.846 73.459 91.4118L73.5101 90.7617Z" fill="black"/>
<path fill-rule="evenodd" clip-rule="evenodd" d="M75.7793 91.8769C75.9248 91.8661 76.0804 91.8468 76.236 91.8468C76.3815 91.8468 76.5262 91.8661 76.6926 91.8769V84.8163C76.5262 84.8271 76.3815 84.8472 76.236 84.8472C76.0804 84.8472 75.9248 84.8271 75.7793 84.8163V91.8769Z" fill="black"/>
<path fill-rule="evenodd" clip-rule="evenodd" d="M24.891 81.5935C27.2051 81.5935 28.845 80.0859 28.845 77.7842C28.845 75.306 26.8622 74.2535 24.9119 74.2535C22.7634 74.2535 21.0716 75.6775 21.0716 77.939C21.0716 80.1478 22.597 81.5935 24.891 81.5935ZM27.8281 77.8662C27.9001 79.0024 27.1114 81.2522 24.9219 81.2522C23.3756 81.2522 22.0885 80.1579 22.0885 78.0628C22.0885 75.967 23.1883 74.594 25.0148 74.594C25.8453 74.594 26.6548 74.9454 27.1733 75.5963C27.7143 76.2866 27.8281 77.0103 27.8281 77.8662Z" fill="black"/>
<path fill-rule="evenodd" clip-rule="evenodd" d="M31.4231 74.409C31.2567 74.4183 31.1119 74.44 30.9672 74.44C30.8109 74.44 30.6553 74.4183 30.5106 74.409V81.438H34.2874C34.2781 81.3351 34.2572 81.2321 34.2572 81.1292C34.2572 81.0262 34.2781 80.9326 34.2874 80.8188C33.9562 80.8606 33.6334 80.9016 33.3022 80.9133C32.6792 80.9326 32.0569 80.9744 31.4238 80.9543L31.4231 74.409Z" fill="black"/>
<path fill-rule="evenodd" clip-rule="evenodd" d="M15.9628 74.8107C16.2739 74.7906 17.0099 74.7805 17.4565 74.8208C18.2768 74.8943 18.6298 75.4508 18.6298 76.1527C18.6298 77.0722 18.0276 77.7223 16.9898 77.8252C16.6369 77.8562 16.222 77.8562 15.9628 77.8252V74.8107ZM15.9751 78.2277C16.2344 78.2277 16.9085 78.3004 17.376 78.2075C18.8395 77.9189 19.5964 77.35 19.5964 76.1009C19.5964 74.8517 18.9332 74.4083 16.9193 74.4083H15.0619V81.4689C15.2074 81.4573 15.363 81.4372 15.5185 81.4372C15.664 81.4372 15.8087 81.4573 15.9759 81.4689L15.9751 78.2277Z" fill="black"/>
<path fill-rule="evenodd" clip-rule="evenodd" d="M36.3825 81.4697C36.528 81.4581 36.6836 81.438 36.8391 81.438C36.9839 81.438 37.1293 81.4581 37.2957 81.4697V74.409C37.1293 74.4183 36.9839 74.44 36.8391 74.44C36.6828 74.44 36.5272 74.4183 36.3825 74.409V81.4697Z" fill="black"/>
<path fill-rule="evenodd" clip-rule="evenodd" d="M42.2738 74.9044C43.1978 74.9044 43.9246 74.9655 44.4431 75.0274C44.4315 74.9245 44.4114 74.82 44.4114 74.7178C44.4114 74.6157 44.4315 74.522 44.4431 74.409H39.0882C39.099 74.522 39.1207 74.6157 39.1207 74.7178C39.1207 74.82 39.099 74.9252 39.0882 75.0274C39.6803 74.9655 40.3134 74.9044 41.3605 74.9044V81.4906C41.5068 81.479 41.6631 81.4581 41.8171 81.4581C41.9634 81.4581 42.1081 81.479 42.2738 81.4906V74.9044Z" fill="black"/>
<path fill-rule="evenodd" clip-rule="evenodd" d="M48.8461 73.8201L47.5381 72.5291C47.4135 72.4061 47.2897 72.2606 47.1442 72.1584C47.1016 72.1174 47.0614 72.1073 47.0087 72.0864C46.8323 72.0446 46.6458 72.1375 46.5839 72.3024C46.5521 72.3952 46.5521 72.4881 46.5931 72.581C46.6551 72.6847 46.7603 72.7358 46.8524 72.8085L48.4823 73.8201H48.8461ZM47.1125 74.8935H47.9112L48.949 74.9136C49.2609 74.9338 49.5713 74.9647 49.8839 75.0266C49.8731 74.9237 49.8522 74.8192 49.8522 74.7171C49.8522 74.6149 49.8731 74.5213 49.8839 74.4083H46.1992V81.4372H49.9459C49.935 81.3343 49.9141 81.2313 49.9141 81.1284C49.9141 81.0255 49.935 80.9318 49.9459 80.8181C49.6239 80.8699 49.3128 80.9009 48.99 80.9125C48.3686 80.9318 47.7471 80.9736 47.1125 80.9535V77.939H48.7215C49.0326 77.939 49.3329 77.9808 49.6448 77.9893C49.634 77.8763 49.6131 77.7834 49.6131 77.7014C49.6131 77.6085 49.634 77.5149 49.6448 77.4321C49.3329 77.4437 49.0326 77.4839 48.7215 77.4839H47.1125V74.8935Z" fill="black"/>
<path fill-rule="evenodd" clip-rule="evenodd" d="M57.4787 80.3545C57.2712 80.5302 56.399 81.1903 55.2791 81.1903C53.6391 81.1903 52.4968 79.9203 52.4968 77.939C52.4968 76.1837 53.4418 74.6451 55.3511 74.6451C56.4199 74.6451 57.1884 75.347 57.3332 75.5328L57.4074 75.5227C57.4578 75.2542 57.5205 74.9864 57.6242 74.7287C56.9292 74.4284 56.1506 74.2535 55.3929 74.2535C53.2018 74.2535 51.4798 75.5746 51.4798 77.898C51.4798 80.1579 52.8497 81.5928 55.1336 81.5928C55.9215 81.5928 56.7728 81.4372 57.4268 81.0038L57.4787 80.3545Z" fill="black"/>
<path fill-rule="evenodd" clip-rule="evenodd" d="M65.6987 74.409C65.595 74.4183 65.5021 74.44 65.4085 74.44C65.304 74.44 65.2104 74.4183 65.1183 74.409V79.7253H65.0138L60.0845 74.409H59.679V81.4697C59.7734 81.4581 59.8663 81.438 59.9708 81.438C60.0636 81.438 60.1573 81.4581 60.261 81.4697V75.9058H60.3647L64.8482 80.8405C65.0664 81.0781 65.2746 81.3258 65.3876 81.4697H65.6987V74.409Z" fill="black"/>
<path fill-rule="evenodd" clip-rule="evenodd" d="M68.3441 81.4697C68.4888 81.4581 68.6459 81.438 68.8007 81.438C68.9462 81.438 69.0917 81.4581 69.2573 81.4697V74.409C69.0917 74.4183 68.9462 74.44 68.8007 74.44C68.6459 74.44 68.4888 74.4183 68.3441 74.409V81.4697Z" fill="black"/>
<path fill-rule="evenodd" clip-rule="evenodd" d="M77.2359 80.3545C77.0269 80.5302 76.1555 81.1903 75.0348 81.1903C73.3956 81.1903 72.254 79.9203 72.254 77.939C72.254 76.1837 73.1982 74.6451 75.1083 74.6451C76.1764 74.6451 76.9441 75.347 77.0888 75.5328L77.1624 75.5227C77.2142 75.2542 77.2761 74.9864 77.3799 74.7287C76.6849 74.4284 75.907 74.2535 75.1493 74.2535C72.9591 74.2535 71.2363 75.5746 71.2363 77.898C71.2363 80.1579 72.6062 81.5928 74.8901 81.5928C75.6779 81.5928 76.5293 81.4372 77.1825 81.0038L77.2359 80.3545Z" fill="black"/>
<path fill-rule="evenodd" clip-rule="evenodd" d="M15.7909 64.0003C15.6253 64.0103 15.4798 64.0312 15.3335 64.0312C15.178 64.0312 15.0232 64.0103 14.8777 64.0003V68.1285C14.8877 68.955 14.9706 69.8737 15.6245 70.4619C16.1648 70.948 16.8489 71.1863 17.8759 71.1863C19.7032 71.1863 20.9067 70.1531 20.9067 68.1091V64.0003C20.803 64.0103 20.7094 64.0312 20.6165 64.0312C20.5128 64.0312 20.4199 64.0103 20.3255 64.0003V67.8514C20.3255 69.5231 19.7342 70.7104 18.0841 70.7104C16.3095 70.7104 15.7909 69.7708 15.7909 67.9536V64.0003Z" fill="black"/>
<path fill-rule="evenodd" clip-rule="evenodd" d="M29.8845 64.0003C29.7815 64.0103 29.6871 64.0312 29.5935 64.0312C29.4898 64.0312 29.3969 64.0103 29.3032 64.0003V69.3165H29.1987L24.2687 64.0003H23.8647V71.0609C23.9584 71.0493 24.0512 71.03 24.155 71.03C24.2486 71.03 24.343 71.0493 24.446 71.0609V65.4978H24.5489L29.0323 70.4317C29.2506 70.6693 29.4572 70.917 29.5718 71.0609H29.8837L29.8845 64.0003Z" fill="black"/>
<path fill-rule="evenodd" clip-rule="evenodd" d="M32.738 71.0609C32.8835 71.0493 33.0391 71.03 33.1946 71.03C33.3401 71.03 33.4849 71.0493 33.652 71.0609V64.0003C33.4849 64.0103 33.3401 64.0312 33.1946 64.0312C33.0391 64.0312 32.8835 64.0103 32.738 64.0003V71.0609Z" fill="black"/>
<path fill-rule="evenodd" clip-rule="evenodd" d="M39.7314 68.6873C39.5657 69.1098 39.3475 69.5123 39.1501 69.9364H39.0572L37.7802 66.8081L37.0845 65.0017C36.9606 64.6612 36.8353 64.3207 36.7006 64.0003C36.5141 64.0103 36.3577 64.0312 36.1913 64.0312C36.0265 64.0312 35.8492 64.0103 35.6937 64.0003C36.1503 64.8779 37.6657 68.6346 38.8483 71.0609C38.9218 71.0493 38.9938 71.03 39.0665 71.03C39.1292 71.03 39.2012 71.0493 39.2739 71.0609C39.647 69.9155 41.9417 64.6303 42.273 64.0003C42.1375 64.0103 42.0137 64.0312 41.8992 64.0312C41.7637 64.0312 41.6391 64.0103 41.5153 64.0003L41.4418 64.1659L40.8187 65.8895L39.7314 68.6873Z" fill="black"/>
<path fill-rule="evenodd" clip-rule="evenodd" d="M45.046 64.4847H45.8455L46.8818 64.5064C47.1937 64.5265 47.5064 64.5575 47.8167 64.6194C47.8051 64.5165 47.7858 64.4128 47.7858 64.3106C47.7858 64.2084 47.8051 64.114 47.8167 64.001H44.132V71.0308H47.8787C47.8678 70.9271 47.8485 70.8249 47.8485 70.722C47.8485 70.6175 47.8678 70.5246 47.8787 70.4124C47.5567 70.4627 47.2463 70.4944 46.9244 70.5053C46.3021 70.5246 45.6799 70.5664 45.046 70.5471V67.5318H46.6551C46.9654 67.5318 47.268 67.5736 47.5784 67.5828C47.5675 67.4698 47.5474 67.3762 47.5474 67.2942C47.5474 67.2013 47.5675 67.1084 47.5784 67.0256C47.268 67.0364 46.9654 67.0767 46.6551 67.0767H45.046V64.4847Z" fill="black"/>
<path fill-rule="evenodd" clip-rule="evenodd" d="M50.1626 71.0609C50.3081 71.0493 50.4636 71.03 50.6192 71.03C50.7647 71.03 50.9094 71.0493 51.0766 71.0609V67.6138H51.4705L52.3002 68.5836L53.5246 70.1624C53.7428 70.4519 53.9502 70.7405 54.1786 71.0609C54.3659 71.0493 54.5733 71.03 54.7706 71.03C54.968 71.03 55.1537 71.0493 55.372 71.0609L55.1754 70.8024L54.6762 70.2243L52.5378 67.531C53.5857 67.3452 54.6661 66.7671 54.6661 65.5698C54.6661 64.5273 53.9603 64.001 52.3629 64.001H50.1618V71.0609H50.1626ZM51.0758 64.3826C51.5108 64.3617 52.2166 64.3307 52.602 64.3926C53.3791 64.5165 53.7428 64.9808 53.7428 65.6936C53.7428 66.4993 53.1717 67.0148 52.414 67.1696C51.8846 67.2733 51.2205 67.2322 51.0758 67.2206V64.3826Z" fill="black"/>
<path fill-rule="evenodd" clip-rule="evenodd" d="M57.0677 69.6679C57.0251 69.9774 56.9741 70.287 56.8703 70.5873C57.2233 70.9688 58.0529 71.1863 58.5622 71.1863C59.9723 71.1863 61.1255 70.3079 61.1255 68.832C61.1255 66.6332 57.8563 67.3971 57.8563 65.4978C57.8563 64.7641 58.4476 64.2889 59.1635 64.2889C59.7765 64.2889 60.2324 64.6302 60.4498 65.1867H60.5543C60.6371 64.8988 60.7106 64.6101 60.8345 64.3408C60.4498 64.0003 59.8485 63.8455 59.3501 63.8455C58.1048 63.8455 57.046 64.4956 57.046 65.8275C57.046 68.1602 60.2943 67.3143 60.2943 69.2329C60.2943 70.0486 59.6929 70.7398 58.8516 70.7398C58.0429 70.7398 57.5762 70.3273 57.1706 69.6663H57.0677V69.6679Z" fill="black"/>
<path fill-rule="evenodd" clip-rule="evenodd" d="M63.4078 71.0609C63.5533 71.0493 63.7097 71.03 63.8652 71.03C64.0107 71.03 64.1547 71.0493 64.3226 71.0609V64.0003C64.1547 64.0103 64.0107 64.0312 63.8652 64.0312C63.7097 64.0312 63.5541 64.0103 63.4078 64.0003V71.0609Z" fill="black"/>
<path fill-rule="evenodd" clip-rule="evenodd" d="M69.5096 64.4964C70.4314 64.4964 71.1589 64.5583 71.6782 64.6194C71.6674 64.5165 71.6465 64.4128 71.6465 64.3106C71.6465 64.2084 71.6674 64.114 71.6782 64.001H66.3233C66.3349 64.114 66.355 64.2084 66.355 64.3106C66.355 64.4128 66.3349 64.5173 66.3233 64.6194C66.9154 64.5583 67.5484 64.4964 68.5964 64.4964V71.0826C68.7419 71.0718 68.8974 71.0501 69.0538 71.0501C69.1985 71.0501 69.3432 71.0718 69.5104 71.0826L69.5096 64.4964Z" fill="black"/>
<path fill-rule="evenodd" clip-rule="evenodd" d="M82.9538 64.4964C83.8756 64.4964 84.6031 64.5583 85.1224 64.6194C85.1123 64.5165 85.0907 64.4128 85.0907 64.3106C85.0907 64.2084 85.1123 64.114 85.1224 64.001H79.7667C79.7775 64.114 79.7984 64.2084 79.7984 64.3106C79.7984 64.4128 79.7775 64.5173 79.7667 64.6194C80.3588 64.5583 80.9918 64.4964 82.0405 64.4964V71.0826C82.1853 71.0718 82.3408 71.0501 82.4972 71.0501C82.6427 71.0501 82.7866 71.0718 82.9546 71.0826L82.9538 64.4964Z" fill="black"/>
</svg>
