<svg width="100" height="100" viewBox="0 0 100 100" fill="none" xmlns="http://www.w3.org/2000/svg">
<path d="M48.2626 87.9C47.0155 87.2761 8.52643 48.7098 8.22145 47.7786C7.08441 44.3064 10.5392 41.1172 13.7205 42.7022C14.0049 42.8439 22.2836 50.9987 32.1177 60.8239L49.9978 78.688L67.8779 60.8239C77.7119 50.9987 85.9906 42.8439 86.275 42.7022C88.8171 41.4357 91.963 43.3665 91.983 46.2055C91.9963 48.1092 93.2222 46.7709 72.0525 67.9647C50.9658 89.0753 51.799 88.3068 49.9978 88.3068C49.3456 88.3068 48.8379 88.1878 48.2626 87.9ZM48.435 64.2342C47.8224 63.6216 47.8214 63.5713 48.258 55.0143C48.484 50.5841 48.6164 46.9115 48.5523 46.8529C48.4883 46.7944 45.4399 46.1144 41.7782 45.342C33.6537 43.628 33.2974 43.3968 34.9806 40.9327C51.859 16.224 55.1342 11.6896 56.1029 11.6896C57.8665 11.6896 57.862 11.6578 57.4016 20.8146C57.2243 24.3412 57.0581 27.7413 57.0323 28.3702L56.9854 29.5135L63.6931 30.9383C71.4045 32.5764 71.8468 32.7789 71.2331 34.3931C71.0057 34.9911 51.0444 63.8317 50.5606 64.2611C49.9766 64.7795 48.9675 64.7667 48.435 64.2342Z" fill="black"/>
</svg>
